<svg width="80" height="80" viewBox="0 0 80 80" fill="none" xmlns="http://www.w3.org/2000/svg">
<circle cx="40" cy="40" r="40" fill="#0E82FD"/>
<path d="M30.5843 60.311C33.5144 60.311 36.3958 60.311 39.3368 60.311C39.3197 59.282 39.3732 58.27 39.1349 57.2459C37.9915 52.3382 36.8762 47.4231 35.7876 42.5032C35.6465 41.8623 35.7171 41.1751 35.6927 40.5085C35.6867 40.3419 35.6782 40.1728 35.694 40.0074C35.7986 38.9371 35.6113 38.0358 34.8073 37.1759C33.8622 36.1664 33.5229 34.8151 33.5083 33.4212C33.4937 31.9921 33.5022 30.5629 33.5046 29.1338C33.5059 28.4758 33.7588 28.2203 34.4108 28.2179C35.7025 28.2143 36.9966 28.1863 38.2871 28.2252C39.5131 28.2629 40.3049 27.6864 40.7914 26.6197C40.9508 26.2706 41.1697 25.9641 41.5614 26.0553C41.8131 26.1137 42.1099 26.3436 42.223 26.5759C42.7643 27.6852 43.5731 28.3067 44.8502 28.2216C45.1981 28.1984 45.5496 28.2082 45.8986 28.2228C46.3231 28.2398 46.6211 28.4758 46.6223 28.8929C46.626 30.6554 46.6613 32.4214 46.553 34.1777C46.4618 35.6689 45.7308 36.9193 44.6933 37.992C44.5559 38.1343 44.4488 38.3861 44.461 38.5783C44.624 41.0619 44.2031 43.4665 43.6242 45.8724C42.6572 49.8861 41.756 53.9157 40.89 57.9526C40.7318 58.6897 40.8669 59.49 40.8669 60.2964C43.7118 60.2964 46.6053 60.2964 49.556 60.2964C49.556 59.7734 49.556 59.2479 49.556 58.7213C49.556 58.1289 49.5548 57.5354 49.556 56.9431C49.5573 56.2546 49.775 55.9542 50.2761 55.9481C50.7845 55.942 51.0144 56.2437 51.0156 56.9212C51.0168 57.8942 51.0156 58.8672 51.0156 59.8403C51.0156 59.9886 51.0156 60.137 51.0156 60.3073C52.2367 60.3073 53.4165 60.3073 54.6377 60.3073C54.6462 60.182 54.6632 60.0519 54.6632 59.9218C54.6645 56.8664 54.6778 53.8099 54.6596 50.7546C54.6377 47.0777 52.1455 43.9433 48.5745 43.0591C48.4322 43.0238 48.285 43.0031 48.1147 42.9715C48.1147 44.667 48.1147 46.3212 48.1147 47.9863C49.477 48.3573 50.4658 49.16 50.838 50.5381C51.001 51.1401 50.9961 51.7981 50.9925 52.4306C50.99 52.8308 50.6848 53.0424 50.2761 53.0375C49.8674 53.0327 49.6132 52.815 49.5682 52.4112C49.5354 52.1107 49.5621 51.8042 49.5524 51.5002C49.5122 50.3045 48.5599 49.3862 47.3643 49.3862C46.1674 49.3862 45.2212 50.3009 45.1798 51.5026C45.1701 51.7762 45.1883 52.0511 45.1713 52.3236C45.1445 52.7651 44.8551 53.0363 44.4391 53.0327C44.0231 53.029 43.7507 52.7554 43.7191 52.3102C43.5597 50.0868 44.4938 48.6857 46.6175 47.9826C46.6175 46.2896 46.6175 44.5892 46.6175 42.8511C46.5798 42.8389 46.5275 42.8243 46.4764 42.8049C46.0397 42.6468 45.8342 42.3463 45.9145 41.9486C46.0008 41.5229 46.2915 41.3526 46.7099 41.3587C48.78 41.3879 50.6653 41.9912 52.3097 43.2488C54.7824 45.1389 56.0754 47.6652 56.1131 50.7777C56.1544 54.1371 56.124 57.4965 56.1216 60.8571C56.1216 61.5419 55.871 61.7924 55.1862 61.7924C45.1068 61.7936 35.0274 61.7936 24.948 61.7924C24.2791 61.7924 24.0139 61.5419 24.0127 60.9033C24.0115 57.4527 23.9786 54.0008 24.0236 50.5502C24.0881 45.5464 28.4108 41.321 33.3769 41.3757C33.6348 41.3782 33.9766 41.5472 34.1201 41.7516C34.2381 41.9194 34.1858 42.2819 34.0872 42.5045C34.0106 42.6772 33.7442 42.766 33.4998 42.9362C33.4998 44.7631 33.4937 46.6763 33.5144 48.5896C33.5156 48.7112 33.7005 48.8657 33.8355 48.9459C34.7015 49.4641 35.1296 50.4237 34.8912 51.3554C34.6467 52.3126 33.8209 52.9938 32.86 53.0327C31.8797 53.0716 30.9638 52.4245 30.678 51.4892C30.3861 50.532 30.7558 49.5079 31.6388 49.0153C31.9733 48.8292 32.0512 48.6224 32.0475 48.2697C32.0305 46.5231 32.039 44.7765 32.039 42.9703C31.7666 43.0263 31.533 43.0603 31.3068 43.1236C27.8829 44.0796 25.4954 47.186 25.4747 50.746C25.4577 53.8172 25.471 56.8883 25.4698 59.9582C25.4698 60.0628 25.4698 60.1674 25.4698 60.3037C26.6861 60.3037 27.8756 60.3037 29.1187 60.3037C29.1187 59.3306 29.1187 58.3637 29.1187 57.3955C29.1187 57.1827 29.1138 56.9698 29.1199 56.757C29.1345 56.2376 29.3936 55.953 29.846 55.9518C30.3021 55.9506 30.5722 56.2315 30.5758 56.7497C30.5831 57.8285 30.5782 58.9086 30.5782 59.9874C30.5843 60.0762 30.5843 60.1662 30.5843 60.311ZM34.9763 29.6775C34.9763 31.064 34.9204 32.3861 34.9885 33.7022C35.1187 36.1919 37.0963 38.1732 39.6092 38.4202C42.0868 38.6634 44.5096 37.0555 44.9682 34.6046C45.2662 33.0162 45.1737 31.3547 45.2601 29.6604C43.7154 29.7869 42.4663 29.422 41.5249 28.2301C40.5944 29.4305 39.3672 29.7431 37.9733 29.6847C36.9905 29.6446 36.0053 29.6775 34.9763 29.6775ZM37.7191 44.487C38.4999 47.923 39.2589 51.2642 40.0179 54.6053C40.0544 54.6041 40.0921 54.6041 40.1286 54.6029C40.8875 51.2569 41.6465 47.9109 42.4237 44.4858C40.8218 45.1694 39.3185 45.1669 37.7191 44.487ZM37.1523 39.2156C37.1523 40.0609 37.1365 40.8321 37.162 41.6032C37.1693 41.8294 37.2472 42.0848 37.3737 42.2709C38.5413 43.9847 41.61 43.9774 42.7801 42.2661C42.8713 42.1323 42.9759 41.9717 42.9795 41.8209C42.999 40.9768 42.9893 40.1315 42.9893 39.2168C41.0396 40.1144 39.1324 40.1181 37.1523 39.2156ZM32.7931 50.116C32.3917 50.1051 32.0658 50.4079 32.0475 50.8105C32.0293 51.2095 32.3321 51.5452 32.7311 51.5683C33.1458 51.5926 33.4973 51.2654 33.501 50.8507C33.5046 50.4493 33.1945 50.127 32.7931 50.116Z" fill="white"/>
<path d="M29.8531 33.6033C29.8531 31.8251 29.8494 30.0469 29.8543 28.2675C29.8701 22.332 34.7219 17.7234 40.644 18.0129C45.9069 18.2708 50.215 22.6896 50.2746 27.9561C50.3184 31.8008 50.2868 35.6479 50.2856 39.4926C50.2856 40.0813 50.0277 40.3793 49.5461 40.3757C49.0669 40.3708 48.8272 40.0777 48.8272 39.4744C48.826 35.7197 48.8382 31.965 48.8224 28.2103C48.8053 24.1102 46.1161 20.7009 42.1462 19.7097C36.7105 18.3535 31.3589 22.4731 31.3187 28.0704C31.292 31.7789 31.3126 35.4886 31.3126 39.1971C31.3126 39.3333 31.3163 39.4707 31.3114 39.607C31.2932 40.1129 31.0134 40.4073 30.5658 40.3976C30.1341 40.3878 29.864 40.1044 29.8567 39.6203C29.847 38.9976 29.8543 38.3736 29.8543 37.7509C29.8531 36.3692 29.8531 34.9863 29.8531 33.6033Z" fill="white"/>
</svg>
