<svg width="80" height="80" viewBox="0 0 80 80" fill="none" xmlns="http://www.w3.org/2000/svg">
<circle cx="40" cy="40" r="40" fill="#0E82FD"/>
<path d="M22.2232 39.9721C22.2137 30.1289 30.1867 22.1515 40.0292 22.1563C49.8138 22.1622 57.7394 30.1336 57.7418 39.9697C57.743 49.6542 49.7853 57.6778 40.1607 57.6944C30.2269 57.7121 22.2338 49.8153 22.2232 39.9721ZM56.321 39.9295C56.3174 30.9143 49.0039 23.5778 40.0221 23.5778C30.9729 23.5778 23.651 30.8954 23.6439 39.946C23.6368 48.9932 30.9646 56.2633 40.1015 56.274C48.9921 56.2835 56.3245 48.8948 56.321 39.9295Z" fill="white"/>
<path d="M53.4854 27.8067C53.4854 26.6055 53.4723 25.4244 53.4925 24.2421C53.4996 23.8536 53.7612 23.5965 54.1496 23.5894C55.33 23.5692 56.5105 23.5823 57.717 23.5823C57.717 24.0502 57.717 24.4885 57.717 24.9778C57.254 24.9778 56.7745 24.9778 56.1825 24.9778C59.6007 28.8374 61.5543 33.2253 61.932 38.2778C62.3097 43.3421 61.1162 48.0274 58.2498 52.2044C53.8808 58.5719 47.7252 61.7136 40.0127 61.9991C40.0127 61.4861 40.0127 61.0371 40.0127 60.6592C50.1157 59.8584 57.0551 54.9481 59.8943 45.061C62.0492 37.5599 59.2159 30.1132 54.9215 25.807C54.9215 26.4835 54.9215 27.1267 54.9215 27.8055C54.4408 27.8067 53.9921 27.8067 53.4854 27.8067Z" fill="white"/>
<path d="M29.0715 22.4364C28.817 22.0265 28.5849 21.6557 28.3232 21.2352C28.7365 20.9923 29.1307 20.7601 29.5617 20.5078C29.7938 20.9414 30.0069 21.3382 30.2307 21.7552C29.8435 21.9827 29.4788 22.1971 29.0715 22.4364Z" fill="white"/>
<path d="M23.2156 27.9403C22.8213 27.6549 22.4649 27.3978 22.0659 27.1087C22.3655 26.7214 22.6484 26.3541 22.9433 25.9727C23.321 26.2818 23.6608 26.5614 24.0313 26.8647C23.7602 27.2236 23.5045 27.5613 23.2156 27.9403Z" fill="white"/>
<path d="M30.2593 58.1107C30.0308 58.5384 29.8248 58.9258 29.5915 59.3617C29.1677 59.1177 28.777 58.8926 28.3472 58.645C28.5982 58.2387 28.8362 57.8548 29.0919 57.4414C29.4767 57.6617 29.8414 57.8714 30.2593 58.1107Z" fill="white"/>
<path d="M34.9711 61.3889C34.4916 61.2621 34.0559 61.1461 33.5835 61.0205C33.7244 60.5537 33.8558 60.1237 33.9943 59.6641C34.4312 59.7825 34.8385 59.8927 35.2861 60.0123C35.1831 60.4601 35.086 60.8842 34.9711 61.3889Z" fill="white"/>
<path d="M33.5459 18.8541C34.0136 18.7238 34.4327 18.6077 34.9217 18.4727C35.0342 18.9287 35.1396 19.3611 35.258 19.8409C34.8365 19.9618 34.4339 20.0778 33.971 20.2117C33.8312 19.7687 33.6951 19.3327 33.5459 18.8541Z" fill="white"/>
<path d="M32.1735 19.3086C32.3488 19.7682 32.5051 20.1781 32.6791 20.633C32.2825 20.8036 31.8965 20.9695 31.4501 21.1602C31.2559 20.7408 31.0677 20.3345 30.8569 19.8796C31.2891 19.6912 31.7011 19.5135 32.1735 19.3086Z" fill="white"/>
<path d="M21.1969 31.4371C21.0181 31.8683 20.8607 32.2474 20.6831 32.6775C20.2462 32.5152 19.8271 32.3588 19.3594 32.1846C19.5405 31.7404 19.711 31.3246 19.9028 30.8555C20.335 31.0498 20.7423 31.2334 21.1969 31.4371Z" fill="white"/>
<path d="M18.2477 36.3633C18.7307 36.4438 19.1736 36.5173 19.6448 36.5943C19.582 37.0456 19.5252 37.4614 19.4613 37.9211C18.977 37.8725 18.5318 37.8275 18.0547 37.7801C18.1222 37.2909 18.1826 36.8454 18.2477 36.3633Z" fill="white"/>
<path d="M20.2497 33.9609C20.1278 34.4241 20.0224 34.8198 19.9064 35.2616C19.4588 35.1609 19.0338 35.0638 18.54 34.9524C18.6537 34.4952 18.7614 34.0628 18.8834 33.5664C19.3475 33.7003 19.7773 33.8247 20.2497 33.9609Z" fill="white"/>
<path d="M19.3628 40.6295C18.8904 40.6295 18.4653 40.6295 18 40.6295C18 40.1888 18 39.741 18 39.2695C18.444 39.2695 18.8927 39.2695 19.3628 39.2695C19.3628 39.7315 19.3628 40.1533 19.3628 40.6295Z" fill="white"/>
<path d="M18.9069 46.3341C18.7814 45.8662 18.6642 45.4326 18.5352 44.9552C19.0005 44.8414 19.4232 44.7384 19.9003 44.6211C20.0187 45.0476 20.1347 45.4634 20.2614 45.9183C19.8079 46.0569 19.3793 46.1884 18.9069 46.3341Z" fill="white"/>
<path d="M21.8075 49.6602C22.0407 50.0641 22.2539 50.4314 22.48 50.8223C22.0763 51.0734 21.6903 51.3127 21.2771 51.5698C21.0355 51.1504 20.8094 50.7595 20.5596 50.3259C20.9953 50.0937 21.3907 49.8829 21.8075 49.6602Z" fill="white"/>
<path d="M36.3424 18.1895C36.8314 18.1244 37.2659 18.0663 37.7573 18C37.8082 18.462 37.8567 18.9063 37.9112 19.3991C37.4684 19.4642 37.054 19.5246 36.5863 19.5922C36.507 19.129 36.43 18.6895 36.3424 18.1895Z" fill="white"/>
<path d="M25.9883 22.9133C26.379 22.6101 26.7271 22.3411 27.1166 22.0391C27.3949 22.4205 27.6601 22.783 27.9502 23.1811C27.589 23.4606 27.2469 23.726 26.8881 24.0044C26.5862 23.6371 26.3056 23.2972 25.9883 22.9133Z" fill="white"/>
<path d="M32.7148 59.2222C32.5431 59.6759 32.388 60.087 32.214 60.549C31.7664 60.3642 31.3414 60.1877 30.8867 59.9993C31.0892 59.5551 31.2703 59.1571 31.4692 58.7188C31.886 58.887 32.2755 59.0445 32.7148 59.2222Z" fill="white"/>
<path d="M20.5435 29.5615C20.7968 29.1231 21.0206 28.7346 21.2621 28.3164C21.6754 28.5711 22.0471 28.7997 22.4615 29.0556C22.2366 29.4513 22.0234 29.8233 21.7938 30.2261C21.3723 30.0022 20.9875 29.7972 20.5435 29.5615Z" fill="white"/>
<path d="M18.064 42.1124C18.5553 42.0639 18.9887 42.02 19.4634 41.9727C19.5262 42.4086 19.5866 42.8232 19.6564 43.3018C19.1935 43.3765 18.7424 43.4487 18.2534 43.5281C18.1883 43.0412 18.1303 42.6112 18.064 42.1124Z" fill="white"/>
<path d="M19.3687 47.7081C19.8292 47.5328 20.2413 47.3776 20.6888 47.207C20.8569 47.6051 21.0227 47.9936 21.2109 48.4402C20.7894 48.6345 20.3833 48.8217 19.9228 49.0338C19.7369 48.5907 19.5628 48.1749 19.3687 47.7081Z" fill="white"/>
<path d="M22.961 53.9083C22.6673 53.5292 22.3891 53.1714 22.0801 52.7722C22.4708 52.4902 22.8355 52.2273 23.2262 51.9453C23.5021 52.3019 23.7602 52.636 24.0491 53.0091C23.6856 53.3112 23.3387 53.5967 22.961 53.9083Z" fill="white"/>
<path d="M26.9095 55.8672C27.2754 56.1479 27.5998 56.3967 27.9728 56.6822C27.704 57.0578 27.4447 57.4238 27.1522 57.8325C26.7627 57.5352 26.3945 57.2544 26.0073 56.9594C26.314 56.5875 26.5946 56.2475 26.9095 55.8672Z" fill="white"/>
<path d="M25.7944 55.0753C25.567 55.3205 25.2604 55.6522 24.9194 56.0194C24.5962 55.6629 24.2919 55.3276 23.9497 54.9497C24.2481 54.6713 24.5749 54.3657 24.9277 54.0352C25.213 54.3799 25.4901 54.7128 25.7944 55.0753Z" fill="white"/>
<path d="M36.6196 60.2695C37.0767 60.3335 37.4922 60.3915 37.9504 60.4555C37.9031 60.9258 37.8581 61.3712 37.8084 61.8558C37.336 61.7965 36.9038 61.7432 36.3994 61.6804C36.4728 61.203 36.5439 60.7517 36.6196 60.2695Z" fill="white"/>
<path d="M24.8753 25.804C24.5758 25.5232 24.2454 25.2128 23.9009 24.8894C24.2407 24.5494 24.5604 24.2296 24.912 23.8789C25.2364 24.2213 25.5454 24.547 25.8568 24.8764C25.523 25.1927 25.2151 25.4841 24.8753 25.804Z" fill="white"/>
<path d="M40.0104 25C48.2569 25.0142 54.9133 31.7134 54.9003 39.9846C54.8873 48.1752 48.1598 54.8803 39.9808 54.853C31.7011 54.8246 25.0364 48.1183 25.066 39.8424C25.0944 31.6459 31.8006 24.9858 40.0104 25ZM26.4856 39.9526C26.4833 47.4064 32.537 53.4208 40.053 53.4315C47.4163 53.4409 53.4736 47.3566 53.4795 39.9467C53.4854 32.5047 47.4601 26.437 40.0495 26.4216C32.5524 26.4062 26.4892 32.455 26.4856 39.9526Z" fill="white"/>
<path d="M39.2727 41.3552C39.7712 41.3552 40.2105 41.3552 40.6698 41.3552C40.6698 41.8255 40.6698 42.2639 40.6698 42.7507C40.227 42.7507 39.7771 42.7507 39.281 42.7507C39.281 43.2471 39.281 43.6961 39.281 44.1676C38.7956 44.1676 38.3575 44.1676 37.8709 44.1676C37.8709 43.7233 37.8709 43.2744 37.8709 42.7685C37.0906 42.7685 36.3566 42.7685 35.6225 42.7685C35.4603 42.7685 35.2969 42.7721 35.1347 42.7673C34.403 42.7496 34.0939 42.2177 34.4681 41.5933C34.8777 40.9086 35.3099 40.2369 35.7326 39.5605C36.4454 38.4197 37.1605 37.2812 37.8685 36.1369C38.0733 35.8064 38.3315 35.5765 38.7388 35.6891C39.1614 35.8052 39.2798 36.1333 39.2775 36.5479C39.268 38.1294 39.2727 39.7109 39.2727 41.3552ZM37.8354 39.0428C37.8117 39.0274 37.7868 39.0108 37.7631 38.9954C37.2848 39.7595 36.8077 40.5224 36.308 41.3209C36.8621 41.3209 37.3416 41.3209 37.8354 41.3209C37.8354 40.5438 37.8354 39.7927 37.8354 39.0428Z" fill="white"/>
<path d="M30.8498 42.7702C31.8135 42.7702 32.6684 42.7702 33.5576 42.7702C33.5576 43.237 33.5576 43.686 33.5576 44.1906C32.9904 44.1906 32.4197 44.1906 31.8491 44.1906C31.0511 44.1906 30.253 44.1859 29.4538 44.193C29.1152 44.1954 28.8441 44.0959 28.6902 43.7736C28.5327 43.4443 28.6546 43.1766 28.8678 42.9219C29.7688 41.8438 30.6935 40.7848 31.5495 39.6736C31.842 39.2933 32.048 38.7981 32.1427 38.3255C32.2729 37.6727 31.7922 37.1325 31.1777 37.0887C30.5621 37.0449 30.0778 37.5092 30.0399 38.1821C30.0352 38.271 30.0316 38.3586 30.0269 38.4759C29.5734 38.4759 29.1223 38.4759 28.6724 38.4759C28.438 37.2332 29.2869 36.0154 30.5869 35.7228C31.8621 35.4361 33.1811 36.2263 33.496 37.4986C33.7683 38.5979 33.451 39.58 32.7702 40.446C32.1687 41.2089 31.5329 41.9445 30.8498 42.7702Z" fill="white"/>
<path d="M49.4293 37.1006C48.6088 37.1006 47.8735 37.1006 47.1063 37.1006C47.0957 37.3186 47.085 37.5199 47.0732 37.7581C46.6268 37.7581 46.1781 37.7581 45.6808 37.7581C45.6808 37.2605 45.6441 36.7452 45.6926 36.2382C45.727 35.878 46.0076 35.6683 46.3782 35.666C47.7978 35.6577 49.2174 35.647 50.637 35.6707C51.2527 35.6814 51.5202 36.2547 51.1899 36.8281C50.476 38.0661 49.9041 39.3656 49.6176 40.7635C49.3902 41.8723 49.2801 43.0048 49.112 44.1646C48.7367 44.1646 48.2879 44.1646 47.7989 44.1646C47.7918 41.6875 48.3424 39.3573 49.4293 37.1006Z" fill="white"/>
<path d="M44.9441 35.8443C44.2255 38.7146 43.521 41.5234 42.8094 44.3654C42.3547 44.254 41.9321 44.1498 41.4336 44.0278C42.1428 41.1894 42.8461 38.3746 43.5636 35.5078C44.0242 35.6204 44.4611 35.727 44.9441 35.8443Z" fill="white"/>
</svg>
