<svg width="80" height="80" viewBox="0 0 80 80" fill="none" xmlns="http://www.w3.org/2000/svg">
<circle cx="40" cy="40" r="40" fill="#0E82FD"/>
<path d="M33.6068 61.9989C33.6102 61.3813 33.6146 60.7637 33.6168 60.1461C33.6257 57.8458 35.1204 56.3444 37.4324 56.3366C40.4595 56.3278 43.4867 56.3344 46.515 56.3344C46.6868 56.3344 46.8598 56.3344 47.0894 56.3344C47.0894 55.4064 47.0894 54.4971 47.0894 53.5326C44.0688 53.5326 41.0073 53.5326 37.9569 53.5326C37.6763 52.041 38.3361 50.555 39.5924 49.7949C40.23 49.4093 40.9264 49.2657 41.656 49.2646C45.0724 49.2591 48.4898 49.2491 51.9062 49.2734C52.5438 49.2778 53.1803 49.4303 53.8811 49.5231C53.962 49.0149 54.0507 48.4569 54.1372 47.9067C52.1701 47.2991 51.4438 46.5511 51.3662 45.0927C51.3008 43.8586 52.057 42.8687 53.575 42.2445C52.7767 39.5896 51.3363 37.3434 49.3348 35.4972C48.0108 36.8164 46.7013 38.1234 45.3451 39.4758C45.7543 39.8591 46.2322 40.3066 46.6891 40.7342C45.6046 41.8125 44.5778 42.8344 43.5798 43.8277C40.4451 40.7043 37.2882 37.5589 34.1513 34.4333C35.1382 33.4533 36.1672 32.4324 37.2283 31.3773C37.6309 31.8148 38.0644 32.2877 38.488 32.7484C41.8622 29.3864 45.16 26.0995 48.4909 22.7806C48.9966 23.3154 49.439 23.7816 49.8615 24.2291C50.7364 23.3463 51.5636 22.511 52.4152 21.6504C52.2566 21.4846 52.0415 21.2604 51.8131 21.0206C52.882 19.9997 53.9398 18.991 54.9777 18C56.641 19.6407 58.3808 21.3565 60.1039 23.0568C59.0516 24.0766 58.006 25.0897 56.9359 26.1261C56.8129 26.0089 56.5867 25.7946 56.3926 25.6101C55.541 26.4498 54.7061 27.2729 53.8312 28.1346C54.2714 28.5545 54.736 28.9986 55.2073 29.4483C54.5375 30.1001 53.9121 30.7089 53.3067 31.2989C60.3756 38.762 61.7339 47.0582 57.4405 56.309C57.8652 56.3322 58.3342 56.3433 58.7999 56.3863C60.5519 56.5454 61.8936 57.9198 61.9812 59.6754C62.02 60.4488 61.9868 61.2255 61.9857 62C52.5249 61.9989 43.0653 61.9989 33.6068 61.9989ZM48.5187 56.351C49.0387 56.351 49.4789 56.351 49.9258 56.351C49.9258 56.8382 49.9258 57.2768 49.9258 57.763C49.7329 57.763 49.5643 57.763 49.3947 57.763C45.3584 57.763 41.3211 57.7563 37.2849 57.7663C35.7292 57.7696 34.7024 59.1109 35.1226 60.5549C43.6042 60.5549 52.0858 60.5549 60.563 60.5549C60.8036 58.8556 59.7569 57.69 58.0736 57.7464C56.0001 57.8171 53.9221 57.763 51.8463 57.763C51.6944 57.763 51.5425 57.763 51.385 57.763C51.385 57.2592 51.385 56.8216 51.385 56.3289C52.801 56.3289 54.1904 56.3289 55.5854 56.3289C55.5854 55.4726 55.622 54.6694 55.5776 53.8717C55.4944 52.3913 54.3435 51.1251 52.8232 50.776C51.3828 50.4456 49.7706 51.1583 49.0321 52.4134C48.3091 53.6408 48.5819 54.9733 48.5187 56.351ZM53.1082 29.5068C51.578 27.9822 50.0345 26.4442 48.5564 24.9715C45.6212 27.896 42.6584 30.847 39.7188 33.777C41.2191 35.2697 42.7582 36.7998 44.2795 38.3124C47.2113 35.389 50.1631 32.4446 53.1082 29.5068ZM57.0391 53.5436C58.6281 49.6203 58.8909 45.6098 57.8064 41.533C56.8594 37.971 55.001 34.9415 52.3353 32.4711C51.6445 33.1594 50.9947 33.8057 50.3294 34.4686C50.3505 34.4919 50.3915 34.5482 50.4414 34.5957C52.6403 36.6805 54.1716 39.1675 55.0099 42.0798C55.0531 42.229 55.2117 42.3892 55.3569 42.4588C57.3806 43.4311 57.629 45.9976 55.8282 47.3366C55.6996 47.4317 55.5942 47.6162 55.5654 47.7753C55.4235 48.5509 55.3026 49.3298 55.1984 50.112C55.1817 50.2368 55.2516 50.4191 55.3459 50.5053C56.2551 51.3262 56.8062 52.336 57.0391 53.5436ZM37.204 33.4334C36.8547 33.7671 36.4865 34.1195 36.1505 34.441C38.6233 36.9048 41.1071 39.3796 43.5832 41.8467C43.9169 41.5109 44.2751 41.1496 44.6055 40.817C42.1306 38.3488 39.6479 35.8718 37.204 33.4334ZM39.4239 52.093C42.1406 52.093 44.7774 52.0941 47.4143 52.0874C47.4985 52.0874 47.6161 52.0344 47.6626 51.967C47.9476 51.5626 48.2171 51.1472 48.5076 50.7119C46.0249 50.7119 43.5632 50.6766 41.1038 50.7329C40.3265 50.7506 39.7787 51.2864 39.4239 52.093ZM52.7933 26.9591C53.585 26.1658 54.4211 25.3295 55.184 24.5671C54.6207 24.0026 54.0274 23.406 53.4364 22.8149C52.6536 23.6015 51.8341 24.4257 51.0402 25.2245C51.6246 25.8023 52.2233 26.3945 52.7933 26.9591ZM57.0014 24.1241C57.3739 23.786 57.7432 23.4501 58.0947 23.1308C57.0247 22.0691 55.9579 21.0107 54.9267 19.9887C54.5841 20.3102 54.2115 20.6604 53.8611 20.9897C54.9267 22.0525 55.9912 23.1154 57.0014 24.1241ZM52.7966 45.0209C52.7933 45.8031 53.3921 46.4174 54.1727 46.4329C54.97 46.4495 55.6064 45.8319 55.6098 45.0364C55.6142 44.242 54.9888 43.6233 54.1882 43.6277C53.4076 43.6332 52.7999 44.242 52.7966 45.0209Z" fill="white"/>
<path d="M18.725 61.9996C18.5542 60.1534 19.2949 58.61 20.4692 57.2864C21.6701 55.933 22.9874 54.6823 24.2559 53.3885C24.4167 53.225 24.5897 53.0725 24.8469 52.8306C24.4777 52.4914 24.1029 52.1809 23.7669 51.8329C22.3143 50.3292 20.9549 48.7493 19.9259 46.9186C17.2247 42.1093 17.391 37.3585 20.2607 32.6784C21.2354 31.0897 22.4507 29.6876 23.7403 28.3486C24.0785 27.9983 24.4544 27.6835 24.654 27.4979C23.8412 26.5985 23.0695 25.7633 22.3199 24.9103C21.4672 23.9403 20.5768 22.9946 19.8061 21.9615C18.99 20.8677 18.5742 19.6071 18.756 18.1808C19.2007 18.1808 19.6409 18.1808 20.0534 18.1808C20.1654 18.8912 20.2752 19.5773 20.3838 20.2634C24.0242 20.2634 27.5681 20.2634 31.2317 20.2634C31.3459 19.5906 31.4635 18.8978 31.5843 18.1797C31.9902 18.1797 32.4304 18.1797 32.8806 18.1797C33.0524 19.6027 32.6433 20.8655 31.8249 21.9593C31.0443 23.0034 30.1428 23.9569 29.2812 24.9391C28.5416 25.782 27.7821 26.6085 27.0658 27.4039C28.0682 28.5596 29.2568 29.8324 30.3324 31.1935C31.9037 33.1811 33.0114 35.4074 33.4328 37.9308C34.0061 41.3635 33.211 44.5101 31.3991 47.4379C30.41 49.0355 29.1959 50.4552 27.8941 51.8009C27.5559 52.1511 27.18 52.466 26.7375 52.8737C26.9593 53.046 27.119 53.1432 27.2465 53.2725C28.5583 54.6038 29.9077 55.902 31.1607 57.2875C32.0334 58.252 32.691 59.3789 32.8617 60.7103C32.916 61.1356 32.8983 61.5698 32.9138 61.9996C32.4525 61.9996 31.9913 61.9996 31.53 61.9996C31.4391 61.3798 31.3625 60.7578 31.2417 60.1435C31.2206 60.0352 31.0122 59.8861 30.8902 59.8861C27.5082 59.8717 24.1251 59.8717 20.7431 59.8861C20.6211 59.8861 20.4126 60.0352 20.3916 60.1424C20.2729 60.7567 20.1986 61.3798 20.1099 61.9996C19.6487 61.9996 19.1863 61.9996 18.725 61.9996ZM31.571 43.6074C28.953 43.6074 26.3372 43.6074 23.7215 43.6074C23.7215 43.1136 23.7215 42.6661 23.7215 42.1955C25.1031 42.1955 26.4426 42.1955 27.781 42.1955C29.0639 42.1955 30.3457 42.201 31.6287 42.1866C31.7662 42.1855 32.0012 42.0883 32.0201 41.9999C32.1022 41.6176 32.121 41.221 32.1642 40.8221C27.8974 40.8221 23.6982 40.8221 19.4657 40.8221C19.5012 41.1547 19.5588 41.453 19.5577 41.7513C19.5555 42.1413 19.7407 42.2153 20.0922 42.2032C20.8074 42.1778 21.5237 42.1955 22.2323 42.1955C22.2323 42.7059 22.2323 43.1545 22.2323 43.6362C21.4805 43.6362 20.7653 43.6362 19.9957 43.6362C20.121 43.9764 20.2519 44.2637 20.3317 44.5642C20.4293 44.9299 20.6267 45.036 21.0092 45.0338C23.9632 45.0161 26.9183 45.0238 29.8723 45.0238C31.2239 45.0238 31.2239 45.0238 31.5954 43.729C31.5987 43.7157 31.5899 43.7002 31.571 43.6074ZM30.3635 33.7203C30.0663 33.2695 29.8312 32.8795 29.5573 32.5182C29.4731 32.4066 29.2857 32.3127 29.1448 32.3116C26.926 32.2995 24.7083 32.3017 22.4895 32.3061C22.3831 32.3061 22.2256 32.3105 22.1779 32.3746C21.8741 32.7944 21.5947 33.2308 21.252 33.7424C23.3178 33.7424 25.2561 33.7424 27.1944 33.7424C27.1944 34.2163 27.1944 34.6528 27.1944 35.1234C27.007 35.1234 26.8517 35.1234 26.6954 35.1234C24.7649 35.1234 22.8344 35.1212 20.9039 35.1289C20.7619 35.13 20.5357 35.1665 20.4925 35.256C20.2995 35.6582 20.1587 36.0846 19.9902 36.5232C23.91 36.5232 27.7466 36.5232 31.6331 36.5232C31.4945 36.1487 31.3603 35.8195 31.2517 35.4814C31.1652 35.2107 31.0199 35.1046 30.7183 35.1157C30.0463 35.1422 29.3733 35.1234 28.6802 35.1234C28.6802 34.6373 28.6802 34.2009 28.6802 33.7192C29.2269 33.7203 29.7503 33.7203 30.3635 33.7203ZM32.1642 39.3494C32.1277 39.008 32.07 38.6976 32.0689 38.3871C32.0678 38.0258 31.9114 37.9463 31.5688 37.9474C27.7355 37.9595 23.9011 37.9551 20.0678 37.9562C19.9281 37.9562 19.7873 37.9684 19.6098 37.9772C19.5622 38.4468 19.5178 38.8909 19.4712 39.3505C23.7381 39.3494 27.9262 39.3494 32.1642 39.3494ZM21.3197 21.7262C21.7355 22.2013 22.0837 22.6167 22.454 23.01C22.5261 23.0874 22.6858 23.1106 22.8055 23.1106C24.8203 23.1161 26.8351 23.115 28.8488 23.1128C28.9441 23.1128 29.0761 23.1095 29.1304 23.052C29.513 22.6399 29.8811 22.2134 30.3102 21.7262C27.2698 21.7262 24.3457 21.7262 21.3197 21.7262ZM21.2909 46.4712C21.567 46.891 21.791 47.2711 22.0582 47.618C22.1513 47.7395 22.3487 47.8489 22.4984 47.85C24.7161 47.8644 26.9338 47.861 29.1515 47.8566C29.2568 47.8566 29.4121 47.8456 29.4598 47.7793C29.7569 47.3694 30.0308 46.9429 30.3457 46.4712C27.2897 46.4712 24.3302 46.4712 21.2909 46.4712ZM30.3158 58.4442C29.9432 58.0123 29.6427 57.63 29.3023 57.2864C29.1792 57.1626 28.963 57.0676 28.7889 57.0665C26.8007 57.051 24.8137 57.0544 22.8255 57.0621C22.6924 57.0621 22.515 57.0875 22.4341 57.1726C22.0637 57.5626 21.72 57.978 21.3153 58.4453C24.3457 58.4442 27.2775 58.4442 30.3158 58.4442ZM23.3045 49.2852C24.1861 50.211 24.9833 51.0474 25.8183 51.9235C26.6621 51.0341 27.4539 50.1989 28.3199 49.2852C26.6067 49.2852 25.0299 49.2852 23.3045 49.2852ZM23.33 30.851C25.0366 30.851 26.62 30.851 28.3021 30.851C27.4428 29.9473 26.6477 29.1098 25.8128 28.2315C24.9778 29.1142 24.185 29.9506 23.33 30.851ZM23.9588 24.5402C24.623 25.1678 25.2129 25.7257 25.8183 26.2969C26.4459 25.7003 27.0258 25.1501 27.6701 24.5402C26.3849 24.5402 25.2306 24.5402 23.9588 24.5402ZM25.8161 53.8647C25.2018 54.4447 24.6163 54.9983 23.9909 55.5905C25.2439 55.5905 26.4082 55.5905 27.6412 55.5905C27.0092 54.9927 26.4348 54.4492 25.8161 53.8647Z" fill="white"/>
</svg>
