<svg width="80" height="80" viewBox="0 0 80 80" fill="none" xmlns="http://www.w3.org/2000/svg">
<circle cx="40" cy="40" r="40" fill="#0E82FD"/>
<path d="M18 60.5394C18.3992 60.5518 18.7984 60.574 19.1976 60.5749C20.9007 60.5793 22.6048 60.5767 24.3435 60.5767C24.3435 56.7896 24.3435 53.0291 24.3435 49.2216C23.9053 49.2216 23.468 49.2216 23.0031 49.2216C23.0031 47.7923 23.0031 46.4092 23.0031 44.972C23.9204 44.972 24.8412 44.972 25.8125 44.972C25.8125 44.149 25.8116 43.3802 25.8125 42.6106C25.8143 40.9177 26.5514 39.9403 28.1766 39.4786C28.9332 39.2638 29.6873 39.0419 30.4475 38.8421C30.6959 38.7764 30.7793 38.6655 30.7917 38.4018C30.8183 37.8399 30.7287 37.3711 30.302 36.9335C29.7742 36.392 29.485 35.6844 29.4176 34.9236C29.3165 33.7829 29.21 32.6333 29.6012 31.5209C30.1468 29.9727 31.2485 29.021 32.8435 28.7112C34.4163 28.4058 35.7522 28.9207 36.8149 30.1121C37.5308 30.9146 37.8688 31.8698 37.8626 32.9449C37.859 33.5752 37.8945 34.2108 37.828 34.8349C37.7286 35.7723 37.3179 36.5855 36.6579 37.2673C36.492 37.4386 36.3528 38.5145 36.492 38.693C36.5524 38.7711 36.681 38.8066 36.7857 38.8368C37.5273 39.0516 38.2662 39.278 39.014 39.468C40.381 39.8142 41.1945 40.6567 41.4189 42.1232C41.779 42.1232 42.1463 42.1232 42.5135 42.1232C43.3589 42.1232 44.2034 42.1303 45.0488 42.117C45.2058 42.1143 45.4072 42.077 45.5101 41.9758C46.7147 40.7898 47.9043 39.5896 49.0974 38.392C49.1161 38.3734 49.1214 38.3405 49.117 38.3503C48.6672 38.0405 48.1917 37.7715 47.7872 37.4217C46.9738 36.7195 46.5143 35.8087 46.4318 34.7319C46.3502 33.6604 46.2614 32.5818 46.626 31.5396C47.1743 29.9745 48.2831 29.0131 49.8985 28.7077C51.473 28.4103 52.8045 28.9323 53.8628 30.1281C54.5432 30.8968 54.8839 31.8112 54.8901 32.8374C54.8945 33.5388 54.9184 34.2463 54.8422 34.9414C54.7357 35.9108 54.2514 36.7204 53.5284 37.4386C54.8226 38.163 54.9956 39.3526 54.8821 40.6824C55.8534 40.6824 56.7636 40.6824 57.7083 40.6824C57.7198 40.8635 57.7358 41.0011 57.7358 41.1387C57.7376 43.991 57.7438 46.8433 57.7349 49.6956C57.7269 51.9727 56.6953 53.6017 54.6 54.5232C54.2895 54.6599 53.9506 54.7318 53.5639 54.8516C53.634 55.6009 53.7005 56.3652 53.7768 57.1296C53.877 58.1416 54.0048 59.1518 54.0775 60.1656C54.1032 60.5181 54.2345 60.5829 54.5476 60.582C56.8532 60.5713 59.1596 60.5767 61.4651 60.5767C61.6327 60.5767 61.8013 60.5767 62 60.5767C62 61.0871 62 61.5443 62 62.0015C47.333 62.0015 32.6661 62.0015 18 62.0015C18 61.5141 18 61.0268 18 60.5394ZM25.8356 52.0517C25.8356 54.92 25.8356 57.7235 25.8356 60.5731C26.3545 60.5731 26.8522 60.5882 27.3471 60.5607C27.4474 60.5554 27.5725 60.4071 27.6301 60.2961C28.0178 59.546 28.3983 58.7923 28.762 58.0306C28.8712 57.8025 29.0095 57.7288 29.2579 57.7297C33.1096 57.7368 36.9622 57.7368 40.8139 57.7297C41.0658 57.7288 41.1962 57.8122 41.3044 58.0386C41.6611 58.7879 42.0345 59.5291 42.4168 60.2651C42.4807 60.3885 42.6147 60.5527 42.7255 60.5598C43.2205 60.5918 43.7191 60.574 44.2256 60.574C44.2256 57.7084 44.2256 54.896 44.2256 52.0384C39.2553 52.0384 34.3223 52.0384 29.3741 52.0384C29.3741 51.5563 29.3741 51.1205 29.3741 50.6482C34.3329 50.6482 39.2677 50.6482 44.2327 50.6482C44.2327 50.1626 44.2327 49.7134 44.2327 49.2384C38.0888 49.2384 31.9697 49.2384 25.8436 49.2384C25.8436 49.716 25.8436 50.1644 25.8436 50.6606C26.5523 50.6606 27.2309 50.6606 27.9104 50.6606C27.9104 51.1444 27.9104 51.5803 27.9104 52.0526C27.2105 52.0517 26.5417 52.0517 25.8356 52.0517ZM39.9082 42.0939C39.8452 41.4938 39.5347 41.1192 38.9058 40.9256C38.0462 40.6611 37.1813 40.4108 36.3111 40.1853C36.1754 40.1498 35.9758 40.2474 35.8436 40.338C35.4577 40.6016 35.1242 40.9656 34.709 41.1609C33.5966 41.6838 32.3574 41.358 31.4304 40.3983C31.3133 40.2767 31.0835 40.1453 30.946 40.1799C30.0465 40.4072 29.155 40.6682 28.2679 40.9407C27.7747 41.0925 27.3427 41.4192 27.3072 41.9359C27.2398 42.9266 27.2877 43.9244 27.2877 44.9285C30.5956 44.9285 33.916 44.9285 37.2399 44.9285C37.0207 43.0003 37.6727 42.3114 39.9082 42.0939ZM45.699 50.6437C45.8667 50.6437 46.006 50.6437 46.1461 50.6437C47.7775 50.6437 49.4097 50.6446 51.041 50.6437C52.6271 50.6429 53.4867 49.7871 53.4876 48.2069C53.4885 45.557 53.4876 42.9071 53.4876 40.2572C53.4876 40.1267 53.4876 39.9962 53.4876 39.9775C53.1789 40.3806 52.8773 40.8644 52.4879 41.2639C51.0588 42.7304 49.6057 44.1739 48.1483 45.6111C47.9052 45.8508 47.7952 46.0852 47.8041 46.4314C47.828 47.3431 47.8121 48.2557 47.8121 49.2136C47.0811 49.2136 46.4007 49.2136 45.6981 49.2136C45.699 49.6965 45.699 50.1351 45.699 50.6437ZM47.8298 33.7136C47.8298 33.9276 47.8076 34.2578 47.8333 34.5854C47.9398 35.9259 49.0247 36.9832 50.4263 37.1288C51.6797 37.2593 53.0299 36.4266 53.3004 35.1749C53.4867 34.312 53.4894 33.3843 53.4202 32.4983C53.327 31.3034 52.4178 30.3811 51.2681 30.1147C50.1744 29.8617 49.0034 30.3189 48.3266 31.259C47.82 31.9648 47.7713 32.7709 47.8298 33.7136ZM30.7988 33.6621C30.7988 33.8938 30.7837 34.1948 30.8014 34.4949C30.8822 35.8815 31.9227 36.9512 33.3474 37.1235C34.6327 37.2788 36.0006 36.4363 36.2818 35.1385C36.4654 34.2907 36.4619 33.3754 36.3865 32.5045C36.2827 31.3079 35.5509 30.5178 34.4021 30.1804C33.2711 29.8475 32.2873 30.1565 31.488 31.0229C30.8112 31.7535 30.7305 32.6572 30.7988 33.6621ZM24.4012 47.7746C31.7488 47.7746 39.0459 47.7746 46.3422 47.7746C46.3422 47.297 46.3422 46.8486 46.3422 46.4012C39.0096 46.4012 31.7151 46.4012 24.4012 46.4012C24.4012 46.8717 24.4012 47.3094 24.4012 47.7746ZM56.3254 42.1489C55.8197 42.1489 55.3806 42.1489 54.8972 42.1489C54.8972 42.3434 54.898 42.512 54.8972 42.6807C54.8883 44.7287 54.9184 46.7785 54.8572 48.8256C54.8076 50.4768 53.3439 51.9532 51.7001 52.0109C49.8701 52.0757 48.0365 52.0419 46.2038 52.0508C46.037 52.0517 45.8702 52.0508 45.7088 52.0508C45.7088 52.563 45.7088 53.0122 45.7088 53.4747C48.1181 53.4747 50.4928 53.4792 52.8684 53.4694C53.1363 53.4685 53.4113 53.417 53.6703 53.3434C55.3283 52.8702 56.3165 51.5448 56.3236 49.772C56.3325 47.3511 56.3262 44.9294 56.3262 42.5085C56.3254 42.3975 56.3254 42.2857 56.3254 42.1489ZM42.9784 44.9631C44.1236 44.9631 45.2688 44.9764 46.4131 44.9515C46.6278 44.9471 46.8922 44.8477 47.043 44.6994C48.5847 43.1841 50.1078 41.65 51.6345 40.1187C51.7445 40.0077 51.8589 39.8923 51.9361 39.7592C52.1295 39.4236 52.094 39.0871 51.8261 38.8128C51.5573 38.5385 51.2193 38.4986 50.8849 38.6894C50.727 38.7791 50.5913 38.9158 50.46 39.0463C49.0504 40.4507 47.6497 41.864 46.2286 43.2577C46.0769 43.406 45.8152 43.5143 45.6032 43.5161C43.6144 43.5356 41.6247 43.5258 39.6359 43.5303C39.4522 43.5303 39.2615 43.5436 39.0859 43.5906C38.7736 43.6741 38.6104 43.9049 38.6024 44.2218C38.5935 44.5574 38.7523 44.8042 39.0814 44.9001C39.2429 44.9471 39.4185 44.9595 39.5888 44.9595C40.7172 44.9657 41.8482 44.9631 42.9784 44.9631ZM49.2979 54.9315C48.0507 54.9315 46.8735 54.9315 45.6999 54.9315C45.6999 56.8242 45.6999 58.6787 45.6999 60.5483C47.0882 60.5483 48.4525 60.5483 49.8568 60.5483C49.6687 58.6583 49.4833 56.8011 49.2979 54.9315ZM29.1098 60.5394C33.0901 60.5394 36.9995 60.5394 40.9549 60.5394C40.7474 60.1204 40.5788 59.7422 40.3712 59.3862C40.3091 59.2788 40.1379 59.1723 40.0164 59.1723C36.6934 59.1607 33.3704 59.1616 30.0474 59.1705C29.9321 59.1705 29.7653 59.2504 29.7121 59.3436C29.501 59.7129 29.3253 60.1035 29.1098 60.5394ZM52.1348 54.9289C51.6292 54.9289 51.1954 54.9289 50.7261 54.9289C50.9089 56.7754 51.0854 58.5828 51.2734 60.3894C51.2805 60.4559 51.3941 60.5616 51.4606 60.5642C51.8669 60.5802 52.2741 60.5722 52.6981 60.5722C52.5065 58.6423 52.3211 56.7931 52.1348 54.9289ZM32.2367 38.3326C32.1161 39.0827 32.2296 39.3339 32.8373 39.7245C33.4032 40.0876 33.8938 40.0681 34.4686 39.6757C34.9423 39.3526 35.1534 38.9362 34.9698 38.3334C34.0597 38.6264 33.1451 38.6122 32.2367 38.3326Z" fill="white"/>
<path d="M40.0102 29.411C40.0102 27.9338 40.0102 26.5383 40.0102 25.0824C38.3398 25.0824 36.7049 25.0824 35.0488 25.0824C35.0488 22.6917 35.0488 20.3632 35.0488 18C40.6959 18 46.3404 18 52.0221 18C52.0221 20.3285 52.0221 22.6669 52.0221 25.0762C51.858 25.0762 51.6939 25.0762 51.5289 25.0762C49.5676 25.0762 47.6071 25.0655 45.6458 25.0886C45.3886 25.0913 45.0852 25.2049 44.8847 25.3682C43.4192 26.5614 41.976 27.7802 40.5247 28.9911C40.3748 29.1154 40.2231 29.237 40.0102 29.411ZM50.6259 23.646C50.6259 22.2079 50.6259 20.8248 50.6259 19.4213C45.9013 19.4213 41.2015 19.4213 36.4805 19.4213C36.4805 20.8337 36.4805 22.2159 36.4805 23.6434C38.1251 23.6434 39.7494 23.6434 41.4286 23.6434C41.4286 24.5489 41.4286 25.4126 41.4286 26.3607C41.614 26.2178 41.7258 26.1379 41.8314 26.05C42.6901 25.3354 43.5381 24.6075 44.4128 23.9141C44.6044 23.7623 44.8909 23.6602 45.1348 23.6567C46.9525 23.6363 48.7692 23.646 50.6259 23.646Z" fill="white"/>
<path d="M46.3576 20.8281C46.3576 21.2871 46.3576 21.7247 46.3576 22.197C44.4867 22.197 42.6265 22.197 40.7344 22.197C40.7344 21.7434 40.7344 21.2977 40.7344 20.8281C42.6105 20.8281 44.4725 20.8281 46.3576 20.8281Z" fill="white"/>
<path d="M39.2694 22.2048C38.801 22.2048 38.3531 22.2048 37.8838 22.2048C37.8838 21.7388 37.8838 21.3029 37.8838 20.8359C38.3442 20.8359 38.7922 20.8359 39.2694 20.8359C39.2694 21.2754 39.2694 21.7112 39.2694 22.2048Z" fill="white"/>
<path d="M47.8315 20.8281C48.3061 20.8281 48.7408 20.8281 49.1968 20.8281C49.1968 21.288 49.1968 21.7247 49.1968 22.197C48.7399 22.197 48.2955 22.197 47.8315 22.197C47.8315 21.7398 47.8315 21.3022 47.8315 20.8281Z" fill="white"/>
</svg>
