<svg width="47" height="47" viewBox="0 0 47 47" fill="none" xmlns="http://www.w3.org/2000/svg">
<circle cx="23.5" cy="23.5" r="23.5" fill="#0E82FD"/>
<path d="M27.62 22.2516C27.19 22.2516 26.85 21.9016 26.85 21.4816C26.85 21.1116 26.48 20.3416 25.86 19.6716C25.25 19.0216 24.58 18.6416 24.02 18.6416C23.59 18.6416 23.25 18.2916 23.25 17.8716C23.25 17.4516 23.6 17.1016 24.02 17.1016C25.02 17.1016 26.07 17.6416 26.99 18.6116C27.85 19.5216 28.4 20.6516 28.4 21.4716C28.4 21.9016 28.05 22.2516 27.62 22.2516Z" fill="white"/>
<path d="M31.23 22.25C30.8 22.25 30.46 21.9 30.46 21.48C30.46 17.93 27.57 15.05 24.03 15.05C23.6 15.05 23.26 14.7 23.26 14.28C23.26 13.86 23.6 13.5 24.02 13.5C28.42 13.5 32 17.08 32 21.48C32 21.9 31.65 22.25 31.23 22.25Z" fill="white"/>
<path d="M21.05 26.45L19.2 28.3C18.81 28.69 18.19 28.69 17.79 28.31C17.68 28.2 17.57 28.1 17.46 27.99C16.43 26.95 15.5 25.86 14.67 24.72C13.85 23.58 13.19 22.44 12.71 21.31C12.24 20.17 12 19.08 12 18.04C12 17.36 12.12 16.71 12.36 16.11C12.6 15.5 12.98 14.94 13.51 14.44C14.15 13.81 14.85 13.5 15.59 13.5C15.87 13.5 16.15 13.56 16.4 13.68C16.66 13.8 16.89 13.98 17.07 14.24L19.39 17.51C19.57 17.76 19.7 17.99 19.79 18.21C19.88 18.42 19.93 18.63 19.93 18.82C19.93 19.06 19.86 19.3 19.72 19.53C19.59 19.76 19.4 20 19.16 20.24L18.4 21.03C18.29 21.14 18.24 21.27 18.24 21.43C18.24 21.51 18.25 21.58 18.27 21.66C18.3 21.74 18.33 21.8 18.35 21.86C18.53 22.19 18.84 22.62 19.28 23.14C19.73 23.66 20.21 24.19 20.73 24.72C20.83 24.82 20.94 24.92 21.04 25.02C21.44 25.41 21.45 26.05 21.05 26.45Z" fill="white"/>
<path d="M31.97 29.8291C31.97 30.1091 31.92 30.3991 31.82 30.6791C31.79 30.7591 31.76 30.8391 31.72 30.9191C31.55 31.2791 31.33 31.6191 31.04 31.9391C30.55 32.4791 30.01 32.8691 29.4 33.1191C29.39 33.1191 29.38 33.1291 29.37 33.1291C28.78 33.3691 28.14 33.4991 27.45 33.4991C26.43 33.4991 25.34 33.2591 24.19 32.7691C23.04 32.2791 21.89 31.6191 20.75 30.7891C20.36 30.4991 19.97 30.2091 19.6 29.8991L22.87 26.6291C23.15 26.8391 23.4 26.9991 23.61 27.1091C23.66 27.1291 23.72 27.1591 23.79 27.1891C23.87 27.2191 23.95 27.2291 24.04 27.2291C24.21 27.2291 24.34 27.1691 24.45 27.0591L25.21 26.3091C25.46 26.0591 25.7 25.8691 25.93 25.7491C26.16 25.6091 26.39 25.5391 26.64 25.5391C26.83 25.5391 27.03 25.5791 27.25 25.6691C27.47 25.7591 27.7 25.8891 27.95 26.0591L31.26 28.4091C31.52 28.5891 31.7 28.7991 31.81 29.0491C31.91 29.2991 31.97 29.5491 31.97 29.8291Z" fill="white"/>
</svg>
