<svg width="13" height="13" viewBox="0 0 13 13" fill="none" xmlns="http://www.w3.org/2000/svg">
<path d="M6.5 6.4987C7.99578 6.4987 9.20834 5.28614 9.20834 3.79036C9.20834 2.29459 7.99578 1.08203 6.5 1.08203C5.00423 1.08203 3.79167 2.29459 3.79167 3.79036C3.79167 5.28614 5.00423 6.4987 6.5 6.4987Z" stroke="white" stroke-linecap="round" stroke-linejoin="round"/>
<path d="M1.84709 11.9167C1.84709 9.82042 3.93251 8.125 6.50001 8.125C7.02001 8.125 7.52376 8.19541 7.99501 8.32541" stroke="white" stroke-linecap="round" stroke-linejoin="round"/>
<path d="M11.9167 9.7487C11.9167 10.1549 11.8029 10.5395 11.6025 10.8645C11.4888 11.0595 11.3425 11.2329 11.1746 11.3737C10.7954 11.7149 10.2971 11.9154 9.74999 11.9154C8.95916 11.9154 8.27124 11.4929 7.89749 10.8645C7.69707 10.5395 7.58333 10.1549 7.58333 9.7487C7.58333 9.0662 7.89749 8.45412 8.39583 8.0587C8.76958 7.76078 9.24083 7.58203 9.74999 7.58203C10.9471 7.58203 11.9167 8.55161 11.9167 9.7487Z" stroke="white" stroke-miterlimit="10" stroke-linecap="round" stroke-linejoin="round"/>
<path d="M8.905 9.74957L9.44124 10.2858L10.595 9.21875" stroke="white" stroke-linecap="round" stroke-linejoin="round"/>
</svg>
