<svg width="40" height="40" viewBox="0 0 40 40" fill="none" xmlns="http://www.w3.org/2000/svg">
<g id="Image">
<path id="Vector 1" d="M19.0715 19.8887H14.3173L12.6939 23.5992L14.3173 24.2949L21.6225 25.1066L27.0725 23.5992L26.2608 19.8887H19.0715Z" fill="#0E82FD"/>
<path id="Vector 2" d="M19.1883 7.72266H14.4341L12.8107 11.4332L14.4341 12.1289L21.7393 12.9406L27.1893 11.4332L26.3776 7.72266H19.1883Z" fill="#0E82FD"/>
<path id="Vector 3" d="M19.0715 32.7441H14.3173L12.6939 36.4546L14.3173 37.1504L21.6225 37.9621L27.0725 36.4546L26.2608 32.7441H19.0715Z" fill="#0E82FD"/>
<g id="Black">
<path id="Vector" d="M13.6406 1.41372C13.1172 1.49966 12.3672 1.88247 12.0156 2.24184C11.8594 2.40591 11.6094 2.74966 11.4688 3.00747L11.2031 3.47622L9.80469 3.51528C8.26562 3.55434 8.14062 3.59341 7.6875 4.07778C7.28906 4.49966 7.15625 4.82778 7.15625 5.39028C7.15625 5.96841 7.3125 6.36684 7.69531 6.75747C8.22656 7.28091 8.32031 7.29653 10.7891 7.34341C13.5703 7.39028 13.5859 7.39809 12.9688 8.41372C12.3438 9.45278 12.1875 10.3043 12.4922 10.9762C12.6641 11.359 13.2422 11.8903 13.7578 12.1247C13.9609 12.2262 14.1328 12.32 14.1406 12.3434C14.1406 12.3668 14.0156 12.4684 13.8672 12.57C13.4766 12.8356 12.4219 13.9528 12.0547 14.4918C11.8828 14.7497 11.6172 15.1872 11.4688 15.4684L11.1953 15.9762L9.875 16.0153C8.36719 16.07 8.04687 16.1637 7.58594 16.6793C7.23437 17.0856 7.10937 17.4059 7.10937 17.945C7.10937 18.82 7.65625 19.5622 8.46875 19.8043C8.76562 19.8981 9.32812 19.9215 10.9141 19.9215C12.8672 19.9215 12.9766 19.9293 13.125 20.0778C13.2109 20.1637 13.2813 20.2575 13.2813 20.2965C13.2813 20.3278 13.1406 20.6012 12.9609 20.8981C12.3281 21.9762 12.1719 22.609 12.375 23.3043C12.5312 23.8278 12.9922 24.32 13.6641 24.6637L14.125 24.8981L13.7422 25.195C12.9062 25.8278 11.8203 27.1872 11.3203 28.2184L11.1406 28.5934H9.92187C8.46875 28.5934 8.10937 28.6872 7.61719 29.1793C6.8125 29.984 6.86719 31.234 7.75 31.984C8.29687 32.4528 8.58594 32.4997 10.9062 32.4997C13.5 32.4997 13.5078 32.4997 12.8438 33.5934C11.9844 35.0231 12.0703 36.1559 13.1094 36.9137C13.8984 37.4918 15.4531 37.9762 17.5391 38.2809C19.2422 38.5309 20.0469 38.5543 21.25 38.4059C24.7422 37.9606 26.6172 37.2887 27.25 36.2418C27.4922 35.8434 27.5078 35.7809 27.4844 35.234C27.4531 34.6325 27.3984 34.4606 26.7891 33.3356C26.5625 32.9059 26.5547 32.8747 26.6719 32.695L26.7969 32.4997H28.8906C31.2656 32.4997 31.5938 32.445 32.1094 31.984C32.9531 31.2184 32.9609 29.8278 32.125 29.1403C31.6719 28.7653 31.2188 28.6715 29.9219 28.6715H28.7734L28.3594 27.9528C27.8125 26.984 27.4141 26.484 26.5313 25.6481L25.7891 24.945L26.2109 24.7418C27.125 24.2965 27.5781 23.6637 27.5781 22.8356C27.5781 22.2653 27.4531 21.8903 27.0234 21.1715C26.8438 20.8668 26.7031 20.5309 26.7031 20.4293C26.7031 20.0153 26.7109 20.0075 29.1641 19.984C31.3281 19.9606 31.4609 19.9528 31.7578 19.7887C32.4609 19.4137 32.8125 18.8278 32.8125 18.0465C32.8125 17.4762 32.6016 16.9762 32.2031 16.6325C31.7188 16.2028 31.4844 16.1481 30.0391 16.1012L28.7109 16.0543L28.4922 15.6247C27.9297 14.5465 26.9063 13.2887 26.1016 12.695C25.9297 12.5622 25.7891 12.445 25.7891 12.4215C25.7891 12.3981 25.9609 12.3043 26.1641 12.2028C26.6797 11.9684 27.2578 11.4372 27.4297 11.0543C27.5234 10.8512 27.5781 10.5543 27.5781 10.2106C27.5781 9.71841 27.5469 9.62466 27.1094 8.78872C26.7188 8.03872 26.6563 7.85903 26.7188 7.69497C26.7578 7.59341 26.875 7.48403 26.9688 7.46059C27.0703 7.44497 28.1328 7.41372 29.3438 7.40591L31.5391 7.38247L31.9219 7.14809C32.7422 6.64028 33.0469 5.56997 32.6328 4.66372C32.5234 4.42153 32.3281 4.14809 32.1719 4.03872C31.6563 3.64028 31.4297 3.59341 30.1016 3.59341C29.4219 3.59341 28.8281 3.56216 28.7813 3.53091C28.7344 3.49966 28.6172 3.30434 28.5078 3.09341C28.1094 2.27309 27.1953 1.61684 26.2813 1.49184C25.6016 1.39809 25.0234 1.50747 24.1641 1.89809C21.3047 3.19497 18.6016 3.20278 16.0391 1.92153C15 1.40591 14.4141 1.28091 13.6406 1.41372ZM15.375 3.09341C17.1875 3.98403 19.0156 4.32778 20.8984 4.14809C22.3906 3.99966 23.3125 3.73403 24.6641 3.06997C25.5547 2.63247 26.0547 2.57778 26.6094 2.86684C26.9688 3.05434 27.3828 3.49184 27.4609 3.76528C27.5625 4.08559 27.9063 4.46841 28.2344 4.61684C28.5078 4.74184 28.75 4.76528 29.8281 4.76528H31.1094L31.3359 4.99184C31.6172 5.27309 31.625 5.53872 31.375 5.83559L31.1875 6.05434L28.8906 6.09341C27.6328 6.11684 26.5313 6.16372 26.4453 6.20278C25.8125 6.48403 25.4609 7.03091 25.4609 7.73403C25.4531 8.21059 25.5391 8.44497 26.0938 9.45278C26.3906 10.0075 26.3984 10.3668 26.1172 10.6403C25.5781 11.1403 24.2578 11.5622 22.2422 11.8668C20.5938 12.1247 19.9453 12.1481 18.7109 11.9918C15.7891 11.6403 14.0078 11.0934 13.7031 10.4372C13.5938 10.2106 13.5938 10.1559 13.7109 9.87466C13.7813 9.71059 13.9766 9.32778 14.1563 9.03872C14.4375 8.57778 14.4844 8.42934 14.5156 7.93716C14.5469 7.46841 14.5234 7.31997 14.3828 7.05434C14.1641 6.61684 13.7266 6.27309 13.2656 6.17153C13.0547 6.13247 11.9688 6.09341 10.8594 6.09341C8.9375 6.09341 8.82031 6.08559 8.67187 5.93716C8.46875 5.73403 8.39844 5.42153 8.50781 5.18716C8.65625 4.85122 9.01562 4.76528 10.3047 4.76528C10.9453 4.76528 11.5703 4.72622 11.6953 4.67934C12.0156 4.56216 12.2578 4.31216 12.4766 3.86684C12.7891 3.24966 13.1563 2.92153 13.75 2.72622C14.1094 2.60903 14.6328 2.72622 15.375 3.09341ZM16.1719 12.9762C17.4688 13.2575 18.9062 13.4372 19.9219 13.4372C20.9375 13.4372 22.375 13.2575 23.6719 12.9762C24.0781 12.8825 24.4297 12.8122 24.4609 12.8122C24.4922 12.8122 24.5391 12.8981 24.5625 12.9997C24.5859 13.1012 24.8281 13.3668 25.1016 13.5778C26.0234 14.3122 26.7656 15.2262 27.3359 16.32C27.5859 16.7965 27.75 17.0075 27.9844 17.1715C28.2969 17.3747 28.3438 17.3825 29.7109 17.4215L31.1094 17.4606L31.2969 17.6793C31.6016 18.0309 31.5156 18.4137 31.0938 18.6325C30.9063 18.7262 30.4844 18.7497 28.7344 18.7497C26.6719 18.7497 26.5859 18.7575 26.25 18.9215C25.7891 19.1637 25.4922 19.5543 25.3984 20.0543C25.2969 20.5934 25.4219 21.07 25.8594 21.7965C26.0938 22.1793 26.2031 22.4684 26.2344 22.7262C26.2656 23.07 26.25 23.109 26.0156 23.3122C25.2969 23.9137 23.6406 24.359 21.0703 24.6559C19.9922 24.7731 19.8438 24.7731 18.8047 24.6559C15.3594 24.2418 13.4688 23.5309 13.6328 22.7028C13.6641 22.57 13.8672 22.1403 14.0859 21.7575C14.4219 21.1637 14.4922 20.9762 14.5156 20.57C14.5703 19.7653 14.2656 19.1793 13.6328 18.8981C13.3516 18.7653 13.0859 18.7497 11.2266 18.7497C9.00781 18.7497 8.70312 18.7106 8.52344 18.3747C8.38281 18.1168 8.42187 17.7731 8.60156 17.609C8.74219 17.4762 8.92969 17.4528 10.1484 17.4215C11.9766 17.3668 11.9375 17.3903 12.7188 15.9606C13.1328 15.1872 13.8594 14.32 14.6094 13.695C14.9297 13.4215 15.2266 13.1168 15.2578 13.0075C15.2969 12.8981 15.3516 12.8122 15.3828 12.8122C15.4141 12.8122 15.7656 12.8825 16.1719 12.9762ZM16.6797 25.6637C17.1953 25.7653 18.1328 25.9137 18.7656 25.984C19.8516 26.109 19.9844 26.109 21.1094 25.984C22.1406 25.8668 23.6953 25.609 24.3828 25.4293C24.5625 25.3825 24.5938 25.4059 24.6328 25.609C24.6641 25.7575 24.8125 25.9372 25.1094 26.1637C26.0234 26.8747 26.7734 27.7965 27.3906 28.9762C27.6016 29.3825 27.7813 29.609 28 29.7575C28.2969 29.9528 28.3594 29.9606 29.6797 29.9997C31.0703 30.0387 31.3359 30.0934 31.4375 30.359C31.5313 30.609 31.4844 30.9137 31.3203 31.0622C31.1719 31.195 30.9766 31.2106 28.9141 31.2497C26.7031 31.2887 26.6719 31.2887 26.2891 31.4918C25.7734 31.7575 25.4766 32.1793 25.4141 32.7497C25.3594 33.2731 25.4609 33.5934 25.9141 34.3825C26.1016 34.7028 26.2734 35.0934 26.2969 35.2497C26.4297 36.0309 24.9297 36.6793 21.9922 37.109C20.5156 37.32 19.3906 37.3122 17.8672 37.07C15.1094 36.6403 13.6719 36.0622 13.6719 35.3903C13.6719 35.2731 13.7813 34.9684 13.9141 34.7184C14.0469 34.4684 14.2422 34.0934 14.3516 33.8981C14.9297 32.7965 14.4375 31.5934 13.2813 31.3356C13.0859 31.2887 12.0234 31.2497 10.9141 31.2497H8.89062L8.66406 31.0231C8.39062 30.7418 8.375 30.5465 8.625 30.2575L8.8125 30.0387L10.2109 29.9997C11.5625 29.9606 11.625 29.9528 11.9219 29.7575C12.1484 29.609 12.3125 29.3825 12.5703 28.8981C12.7578 28.5387 13.0312 28.0622 13.1875 27.8512C13.5781 27.3122 14.4141 26.445 14.8672 26.1168C15.125 25.9293 15.2578 25.7653 15.2891 25.609C15.3281 25.4059 15.3594 25.3825 15.5391 25.4293C15.6484 25.4606 16.1641 25.5622 16.6797 25.6637Z" fill="#000F28"/>
<path id="Vector_2" d="M22.9297 7.03906C21.6953 7.28906 20.1484 7.38281 18.8906 7.27344C18.2734 7.22656 17.6094 7.16406 17.4062 7.13281C17.0859 7.09375 17.0156 7.11719 16.8437 7.28906C16.5859 7.54688 16.5781 7.90625 16.8203 8.15625C17.0937 8.42969 18.0781 8.55469 20.0391 8.55469C21.5391 8.55469 22.5391 8.46875 23.3594 8.28125C23.5078 8.25 23.7266 8.19531 23.8437 8.17188C24.4453 8.03906 24.5547 7.21094 24.0078 6.96094C23.7812 6.85938 23.8125 6.85938 22.9297 7.03906Z" fill="#000F28"/>
<path id="Vector_3" d="M15.2344 19.297C15.0156 19.5158 15.0234 19.9533 15.2578 20.1876C15.4609 20.3908 16.1172 20.5705 17.3047 20.7423C18.7812 20.9611 19.1094 20.8751 19.1953 20.2658C19.2578 19.7892 19.0781 19.6408 18.3516 19.5705C18.0312 19.547 17.3437 19.4376 16.8203 19.3283C15.6562 19.1017 15.4375 19.0939 15.2344 19.297Z" fill="#000F28"/>
<path id="Vector_4" d="M23.3203 19.2967C23.1953 19.3358 22.7188 19.4217 22.2656 19.4842C21.6094 19.5779 21.4141 19.6404 21.3125 19.7733C21.125 19.992 21.1328 20.4061 21.3203 20.6326C21.4531 20.7967 21.5312 20.8201 21.9297 20.8045C22.1797 20.7967 22.75 20.7186 23.2031 20.6326C24.1172 20.4529 24.375 20.2811 24.375 19.8358C24.375 19.3514 23.9297 19.1248 23.3203 19.2967Z" fill="#000F28"/>
<path id="Vector_5" d="M22.6562 32.8906C22.25 32.9688 21.6016 33.0547 21.2187 33.0859C20.6328 33.1328 20.4922 33.1719 20.3359 33.3281C20.1094 33.5547 20.1016 33.8984 20.3281 34.1797L20.5 34.3984L21.3984 34.3516C22.3047 34.3047 23.4844 34.1328 23.9687 33.9766C24.4141 33.8359 24.5391 33.2734 24.2109 32.9219C24 32.6953 23.7344 32.6875 22.6562 32.8906Z" fill="#000F28"/>
</g>
</g>
</svg>
