<svg width="40" height="40" viewBox="0 0 40 40" fill="none" xmlns="http://www.w3.org/2000/svg">
<path d="M17.5 1.375C16.3125 1.53906 15.0547 1.83594 13.8828 2.23438C12.8438 2.58594 10.5391 3.67188 10.1328 4C9.6797 4.375 9.83595 5.07031 10.3906 5.19531C10.5859 5.23438 10.7734 5.16406 11.4688 4.78125C13.4688 3.66406 15.7109 2.9375 18.0078 2.65625C19.1563 2.51562 21.2266 2.54688 22.4766 2.73438C29.3984 3.74219 35.0625 8.78906 36.875 15.5625C37.6016 18.2969 37.6172 21.5078 36.9141 24.2656C35.3516 30.375 30.6328 35.1719 24.5469 36.8438C22.3672 37.4375 19.7656 37.5938 17.5234 37.2656C11.875 36.4453 7.01563 32.9375 4.42188 27.8203C3.16407 25.3359 2.57813 22.875 2.57813 20.0781C2.57813 17.2031 3.19532 14.6797 4.57032 11.9141C5.64063 9.77344 6.73438 8.39844 7.78126 7.88281C8.25782 7.64844 8.38282 7.61719 8.94532 7.625C9.64063 7.625 10.0625 7.78906 10.5313 8.23438C10.9922 8.66406 11.1953 9.16406 11.2344 9.96094C11.2734 10.8438 11.1484 11.2031 10.3906 12.3906C10.0859 12.8594 9.76563 13.4375 9.6797 13.6719C9.21876 14.8594 9.54688 16.3906 10.4609 17.3125C11.1875 18.0469 12.6016 18.5 13.0469 18.1406C13.1953 18.0234 13.2422 17.9141 13.2422 17.6641C13.2422 17.2422 13.0703 17.0938 12.3828 16.8906C11.4297 16.6094 10.9063 15.9609 10.8047 14.9609C10.75 14.4688 10.9141 14.0703 11.6016 13.0078C12.4297 11.7266 12.6172 11.1094 12.5625 9.83594C12.5391 9.25 12.4766 8.89844 12.3516 8.57812C11.375 6.0625 8.18751 5.48438 6.0547 7.4375C3.82813 9.47656 1.93751 13.6719 1.35938 17.8516C1.1797 19.1797 1.2422 21.8359 1.48438 23.2031C2.87501 31.0625 8.93751 37.1094 16.8359 38.5234C17.7422 38.6875 18.0859 38.7109 20 38.7109C21.9141 38.7109 22.2578 38.6875 23.1641 38.5234C31.0859 37.1016 37.1016 31.0859 38.5234 23.1641C38.6875 22.2578 38.7109 21.9141 38.7109 20C38.7109 18.0859 38.6875 17.7422 38.5234 16.8359C38.0547 14.2031 37.0938 11.7969 35.6484 9.625C32.625 5.07031 27.8359 2.08594 22.3984 1.36719C21.2422 1.21875 18.6406 1.22656 17.5 1.375Z" fill="#000F28"/>
<path d="M17.6562 5.15625C17.5547 5.25781 17.5 5.41406 17.5 5.625C17.5 6.07031 17.7031 6.25 18.1953 6.25C18.6562 6.25 18.8281 6.07812 18.8281 5.61719C18.8281 5.39062 18.7812 5.28125 18.625 5.16406C18.3516 4.94531 17.8672 4.94531 17.6562 5.15625Z" fill="#0E82FD"/>
<path d="M25.0078 5.20312C24.9141 5.32031 24.8438 5.50781 24.8438 5.625C24.8438 5.74219 24.9141 5.92969 25.0078 6.04688C25.1406 6.21875 25.2266 6.25 25.5547 6.25C26.0469 6.25 26.25 6.07031 26.25 5.625C26.25 5.17969 26.0469 5 25.5547 5C25.2266 5 25.1406 5.03125 25.0078 5.20312Z" fill="#0E82FD"/>
<path d="M24.7422 8.59286C24.1563 8.69442 23.2969 8.97567 22.7734 9.23348C20.7031 10.2804 19.2266 12.3897 19.0078 14.6085C18.9609 15.1085 18.9531 15.1241 18.6016 15.3585C18.4063 15.4913 18.1016 15.7725 17.9297 15.9835L17.6094 16.3741L17.2578 16.1866C16.4453 15.7725 15.4688 15.9054 14.7813 16.5225C14.1719 17.0694 14.0313 17.4444 14.0391 18.4522L14.0547 19.2882L13.8438 19.21C13.7266 19.1632 13.3516 19.1085 13.0078 19.085C10.9688 18.9522 9.31251 20.2569 8.68751 22.4913L8.54688 22.9991L8.08594 23.1007C7.29688 23.2804 6.66407 23.8038 6.40626 24.4835C6.28907 24.796 6.29688 25.6085 6.41407 26.0069C6.55469 26.4835 7.10157 27.0616 7.67969 27.335C8.64844 27.8038 9.81251 27.835 10.6953 27.421L11.1719 27.1944V27.5616C11.1719 28.0304 11.3672 29.2022 11.5313 29.7647C12.25 32.2022 14.0391 33.9132 16.2813 34.3038C17.1641 34.4522 19.1719 34.3585 20.0938 34.1163C23.2969 33.2725 25.3438 30.9835 26.7188 26.7022C26.9844 25.8741 27.2656 24.9991 27.3359 24.7647C27.4609 24.3585 27.5156 24.296 28.4453 23.5616C31.3828 21.21 32.9063 18.8897 33.1094 16.46C33.1875 15.5147 33.0859 14.4366 32.8516 13.671C31.8984 10.6241 29 8.49129 25.8594 8.52254C25.4531 8.53036 24.9453 8.56161 24.7422 8.59286ZM27.3828 10.0382C28.0625 10.2257 29.0313 10.7257 29.6094 11.1944C31.5234 12.7491 32.2891 15.3272 31.5234 17.6163C30.9453 19.3194 29.6328 20.921 27.3516 22.6788C26.9063 23.0225 26.4766 23.4132 26.3984 23.546C26.3125 23.6788 26.0859 24.296 25.8906 24.921C24.7578 28.5538 24.1406 29.7882 22.8125 31.0929C21.8359 32.0538 20.4688 32.7335 19.0625 32.96C18.3047 33.085 16.8281 33.0694 16.2891 32.9288C14.9297 32.585 13.8438 31.671 13.2031 30.3507C12.7422 29.4132 12.5703 28.6085 12.5234 27.1866C12.4844 26.0304 12.5234 25.5225 12.75 23.9991C12.8672 23.2022 12.7813 22.9679 12.3203 22.8585C11.8828 22.7491 11.6328 22.96 11.5 23.5616C11.1328 25.21 10.7969 25.8272 10.0781 26.1944C9.70313 26.3897 9.58594 26.4132 9.19532 26.3741C8.64063 26.3194 8.01563 26.0616 7.81251 25.796C7.62501 25.5616 7.60938 25.0304 7.78126 24.7804C7.96094 24.5225 8.30469 24.3741 8.87501 24.3194C9.57032 24.2569 9.72657 24.1163 9.83594 23.4913C10.0859 22.0616 10.75 21.0382 11.7031 20.6085C11.9766 20.4835 12.2422 20.4366 12.7344 20.4366C13.3125 20.4288 13.4609 20.46 13.8359 20.6475C14.4063 20.921 14.8672 21.4288 15.1953 22.1319C15.6016 22.9913 15.7109 23.5069 15.7656 24.8272C15.8203 25.9679 15.8281 26.0382 16.0078 26.1788C16.3359 26.4444 16.875 26.3194 17.0313 25.9366C17.0859 25.796 17.1094 25.3585 17.0938 24.7413L17.0703 23.7725L17.6641 24.0694C18.6875 24.585 19.3125 24.7257 20.6641 24.7257C21.6797 24.7257 21.875 24.7022 22.1484 24.5694C22.5469 24.3741 22.6875 23.96 22.4688 23.6319C22.2734 23.335 22.0313 23.2725 21.5078 23.3663C20.875 23.4913 19.6797 23.4054 19.0625 23.2022C18.1875 22.9132 17.6563 22.5772 16.9453 21.8741C16.3672 21.3116 16.2188 21.1007 15.9141 20.4679C15.5391 19.6788 15.3828 19.085 15.3672 18.3585C15.3516 17.835 15.5 17.5538 15.8984 17.3663C16.125 17.2569 16.2188 17.2569 16.4766 17.335C16.8984 17.46 17.0781 17.7335 17.1406 18.3585C17.25 19.3819 17.6328 20.1632 18.3203 20.7647C18.7109 21.1085 19.4141 21.4835 19.6797 21.4835C20.2344 21.4835 20.5703 20.8663 20.2578 20.421C20.2188 20.3741 19.9766 20.2179 19.7031 20.0772C18.9063 19.6554 18.5 19.0069 18.5 18.1554C18.4922 17.3194 18.9688 16.6007 19.75 16.2257C20.1953 16.0147 20.3125 15.8038 20.3125 15.1632C20.3125 13.796 21.1016 12.1632 22.2109 11.2179C22.9688 10.5772 23.7734 10.171 24.7266 9.95223C25.3203 9.81942 26.7344 9.85848 27.3828 10.0382Z" fill="#000F28"/>
<path d="M16.2578 11.4531C16.1641 11.5703 16.0938 11.7578 16.0938 11.875C16.0938 11.9922 16.1641 12.1797 16.2578 12.2969C16.3906 12.4688 16.4766 12.5 16.8047 12.5C17.2969 12.5 17.5 12.3203 17.5 11.875C17.5 11.4297 17.2969 11.25 16.8047 11.25C16.4766 11.25 16.3906 11.2812 16.2578 11.4531Z" fill="#0E82FD"/>
<path d="M5.00781 15.2031C4.91406 15.3203 4.84375 15.5078 4.84375 15.625C4.84375 15.7422 4.91406 15.9297 5.00781 16.0469C5.14062 16.2188 5.22656 16.25 5.55469 16.25C6.04688 16.25 6.25 16.0703 6.25 15.625C6.25 15.1797 6.04688 15 5.55469 15C5.22656 15 5.14062 15.0312 5.00781 15.2031Z" fill="#0E82FD"/>
<path d="M6.40625 18.9062C6.30469 19.0078 6.25 19.1641 6.25 19.375C6.25 19.8203 6.45312 20 6.94531 20C7.40625 20 7.57812 19.8281 7.57812 19.3672C7.57812 19.1406 7.53125 19.0312 7.375 18.9141C7.10156 18.6953 6.61719 18.6953 6.40625 18.9062Z" fill="#0E82FD"/>
<path d="M35.0078 20.2031C34.9141 20.3203 34.8438 20.5078 34.8438 20.625C34.8438 20.7422 34.9141 20.9297 35.0078 21.0469C35.1406 21.2188 35.2266 21.25 35.5547 21.25C36.0469 21.25 36.25 21.0703 36.25 20.625C36.25 20.1797 36.0469 20 35.5547 20C35.2266 20 35.1406 20.0312 35.0078 20.2031Z" fill="#0E82FD"/>
<path d="M30.1562 26.4062C30.0547 26.5078 30 26.6641 30 26.875C30 27.3203 30.2031 27.5 30.6953 27.5C31.1562 27.5 31.3281 27.3281 31.3281 26.8672C31.3281 26.6406 31.2812 26.5312 31.125 26.4141C30.8516 26.1953 30.3672 26.1953 30.1562 26.4062Z" fill="#0E82FD"/>
<path d="M8.90625 30.1562C8.80469 30.2578 8.75 30.4141 8.75 30.625C8.75 31.0703 8.95312 31.25 9.44531 31.25C9.90625 31.25 10.0781 31.0781 10.0781 30.6172C10.0781 30.3906 10.0312 30.2812 9.875 30.1641C9.60156 29.9453 9.11719 29.9453 8.90625 30.1562Z" fill="#0E82FD"/>
<path d="M27.5078 31.4531C27.4141 31.5703 27.3438 31.7578 27.3438 31.875C27.3438 31.9922 27.4141 32.1797 27.5078 32.2969C27.6406 32.4688 27.7266 32.5 28.0547 32.5C28.5469 32.5 28.75 32.3203 28.75 31.875C28.75 31.4297 28.5469 31.25 28.0547 31.25C27.7266 31.25 27.6406 31.2812 27.5078 31.4531Z" fill="#0E82FD"/>
</svg>
