<svg width="40" height="40" viewBox="0 0 40 40" fill="none" xmlns="http://www.w3.org/2000/svg">
<path d="M8.98438 7.4453C8.64844 7.60936 8.48438 8.24217 8.48438 9.33592C8.49219 10.1406 8.51562 10.3515 8.69531 10.8437C8.98438 11.664 9.33594 12.2031 9.96875 12.8125C10.5781 13.3906 11.3516 13.8203 12.1484 14.0234C12.7344 14.1719 13.8047 14.1719 14.4141 14.0234C14.6719 13.9609 14.9062 13.914 14.9453 13.9062C14.9766 13.9062 15 14.625 15 15.5V17.0937L14.7266 17.3359C14.3672 17.6484 13.7891 17.9375 13.2266 18.0859C12.0703 18.3906 10.8438 18.0547 9.88281 17.1875C9.39844 16.7422 9.04688 16.6719 8.78906 16.9531C8.46094 17.3203 8.66406 17.7734 9.40625 18.3281C10.5938 19.2344 11.9844 19.5547 13.3906 19.2578C14.0625 19.1172 14.8438 18.7578 15.2969 18.3828L15.6484 18.0937L16.1328 18.3515C16.3984 18.4844 17.1797 18.9375 17.8594 19.3437C18.5469 19.75 19.1797 20.1015 19.2812 20.125C19.6641 20.2265 20.1797 21.1094 20.2734 21.8515C20.3438 22.414 20.1484 23.1172 19.7656 23.6797C19.4141 24.1953 19.3672 24.5234 19.6094 24.7656C19.9844 25.1406 20.4531 24.875 20.9453 24.0234C21.6719 22.75 21.5938 21 20.75 19.8984C20.6406 19.75 20.5469 19.6172 20.5469 19.5859C20.5469 19.5469 21.7188 18.8515 22.7656 18.2812C23.3594 17.9609 23.3828 17.9531 23.6953 18.0469C24.4766 18.2812 25.0703 18.9375 25.2422 19.75C25.4141 20.5859 25.0547 21.4375 24.2891 22C23.8594 22.3125 23.7422 22.5781 23.9141 22.8828C24.1719 23.3437 24.6641 23.2656 25.3125 22.6797C26.7891 21.3515 26.8281 19.0312 25.3984 17.7187C24.9688 17.3281 24.1562 16.875 23.8906 16.875C23.7578 16.875 23.75 16.7422 23.75 15.1719V13.4687L24.1406 13.289C25.0938 12.8594 25.7734 11.914 25.8438 10.9297C25.875 10.4765 25.8594 10.3906 25.7109 10.2422C25.5078 10.039 25.125 10.0312 24.9297 10.2265C24.8438 10.3125 24.75 10.5156 24.7266 10.6797C24.5938 11.4531 24.2891 11.9062 23.7109 12.1875L23.3672 12.3515L22.5625 11.9062C22.1172 11.664 21.2656 11.164 20.6562 10.8047C20.0547 10.4531 19.4766 10.1562 19.3828 10.1562C19.2812 10.1562 18.7422 10.4297 18.1719 10.7734C16.4453 11.8047 14.75 12.7109 14.3047 12.8437C13.8281 12.9844 12.9453 13.0078 12.4453 12.8906C11.8281 12.75 11.2188 12.3984 10.7344 11.914C9.76562 10.9609 9.41406 9.71092 9.72656 8.3828C9.85938 7.8203 9.79688 7.5703 9.47656 7.42967C9.24219 7.3203 9.22656 7.3203 8.98438 7.4453ZM22.0547 12.9765L22.5781 13.2422V15.1406V17.0312L22.1797 17.25C21.9688 17.3672 21.2656 17.7656 20.625 18.1406C19.9844 18.5234 19.4219 18.8281 19.3828 18.8281C19.3359 18.8281 18.9922 18.6406 18.6172 18.414C18.2422 18.1875 17.5312 17.7734 17.0469 17.5078L16.1719 17.0156L16.1875 15.1406L16.2109 13.2578L17.0703 12.7812C17.5469 12.5156 18.2578 12.1015 18.6562 11.8594L19.3906 11.4219L20.4609 12.0625C21.0547 12.414 21.7734 12.8281 22.0547 12.9765Z" fill="#0E82FD"/>
<path d="M18.5313 13.4458C18.1094 13.6568 17.6797 14.1568 17.5703 14.563C17.2422 15.7818 18.0391 16.938 19.25 17.0162C20.0781 17.0708 20.7109 16.7037 21.0938 15.9537C21.2344 15.6802 21.2656 15.524 21.2344 15.0396C21.2109 14.5552 21.1719 14.4146 20.9766 14.1255C20.8438 13.9458 20.5859 13.688 20.3984 13.5552C20.1094 13.3521 19.9844 13.3208 19.4688 13.2974C18.9766 13.2818 18.8047 13.3052 18.5313 13.4458ZM19.8828 14.649C20.3203 15.0787 20 15.8599 19.3906 15.8599C18.7656 15.8599 18.4375 15.1177 18.8672 14.6568C19.125 14.3755 19.6094 14.3677 19.8828 14.649Z" fill="#0E82FD"/>
<path d="M16.5312 1.92949C16.5234 1.93731 16.375 1.96856 16.2031 1.98418C15.8828 2.01543 15.4922 2.14824 15.1562 2.32012C15.0469 2.37481 14.9219 2.42168 14.8672 2.42168C14.8125 2.42168 14.7344 2.48418 14.6953 2.55449C14.6484 2.63262 14.6094 2.66387 14.6094 2.62481C14.6094 2.48418 13.5781 3.63262 13.4688 3.90606C13.1016 4.78887 13.125 4.75762 12.6562 4.77324C11.7656 4.79668 10.9922 4.89043 10.7891 4.99199C10.7109 5.03887 10.625 5.05449 10.6094 5.03106C10.5859 5.01543 10.4688 5.03106 10.3438 5.08574C9.83594 5.28887 9.51562 5.40606 9.47656 5.39824C9.39062 5.38262 8.20312 6.04668 8.20312 6.10137C8.20312 6.14824 8.17188 6.16387 8.13281 6.13262C8.08594 6.10918 8.02344 6.15606 7.97656 6.22637C7.92969 6.30449 7.89062 6.34356 7.89062 6.31231C7.89062 6.24981 7.625 6.45293 7.32812 6.73418C7.25 6.81231 7.1875 6.85137 7.1875 6.82012C7.1875 6.76543 6.66406 7.29668 6.30469 7.71856C6.1875 7.85137 6.10156 7.98418 6.10938 7.99981C6.125 8.01543 6.04688 8.10137 5.9375 8.19512C5.82812 8.28106 5.77344 8.35137 5.8125 8.35918C5.84375 8.35918 5.76562 8.48418 5.63281 8.63262C5.5 8.78887 5.39062 8.94512 5.39062 8.97637C5.39062 9.01543 5.25781 9.34356 5.08594 9.70293C4.71875 10.4998 4.64062 10.7186 4.61719 11.0154C4.60938 11.117 4.55469 11.1717 4.45312 11.1717C4.375 11.1717 4.22656 11.2029 4.125 11.242C3.85938 11.3514 3.64062 11.4217 3.60156 11.4061C3.58594 11.3982 3.54688 11.4295 3.51562 11.4842C3.48438 11.5311 3.41406 11.5779 3.35156 11.5936C3.17188 11.617 2.57812 12.0232 2.57812 12.1248C2.57812 12.1717 2.55469 12.1951 2.53125 12.1717C2.49219 12.1248 2.10937 12.4686 2.10937 12.5545C2.10937 12.5779 2.04687 12.6561 1.96094 12.7264C1.71094 12.9451 1.21094 13.8748 1.14844 14.2576C1.125 14.3826 1.07812 14.5779 1.05469 14.6873C0.914062 15.2029 1 16.7029 1.17187 16.9139C1.21094 16.9607 1.25781 17.0936 1.28125 17.2107C1.29687 17.3279 1.33594 17.4529 1.35937 17.492C1.38281 17.5311 1.35156 17.6639 1.28125 17.7967C1.21875 17.9295 1.14844 18.1014 1.13281 18.1795C1.11719 18.2576 1.05469 18.4764 0.984375 18.6717C0.796875 19.242 0.765625 19.4451 0.734375 20.3904C0.710937 21.1873 0.773437 21.8279 0.914062 22.1873C0.9375 22.2498 0.96875 22.3592 0.976562 22.4217C1 22.6482 1.20312 23.1248 1.27344 23.1248C1.30469 23.1248 1.3125 23.1561 1.28906 23.2029C1.26562 23.242 1.28125 23.2811 1.33594 23.2811C1.39062 23.2811 1.41406 23.3045 1.38281 23.3279C1.3125 23.3982 1.89844 24.2967 2.27344 24.7029C2.5625 25.0154 2.59375 25.0779 2.61719 25.5467C2.625 25.8279 2.66406 26.1404 2.6875 26.2498C2.75781 26.5467 3.22656 27.4373 3.34375 27.4764C3.39062 27.4998 3.4375 27.5545 3.4375 27.6092C3.4375 27.6561 3.50781 27.7498 3.59375 27.8123C3.67969 27.8748 3.75 27.9607 3.75 28.0076C3.75781 28.0467 3.9375 28.242 4.15625 28.4373C4.375 28.6326 4.64844 28.8826 4.76562 28.9998C4.88281 29.1248 5 29.2186 5.03125 29.2186C5.07812 29.2186 5.25781 29.3748 5.60938 29.7107C5.70312 29.8045 5.78125 29.8514 5.78125 29.8123C5.78125 29.7732 5.84375 29.8201 5.92969 29.9061C6.00781 29.9998 6.10156 30.0467 6.13281 30.0154C6.25781 29.8982 5.96875 30.3592 5.78906 30.5701C5.67969 30.6873 5.61719 30.7811 5.64844 30.7811C5.67969 30.7811 5.5625 30.9842 5.39062 31.2342C5.04688 31.7498 4.45312 32.9061 4.45312 33.0779C4.45312 33.1404 4.41406 33.2186 4.36719 33.242C4.32031 33.2732 4.30469 33.3436 4.32812 33.4061C4.35156 33.4686 4.34375 33.5154 4.30469 33.5154C4.26562 33.5154 4.21094 33.6482 4.17188 33.8045C4.10156 34.1482 4.08594 34.2107 4.0625 34.2342C4.04688 34.2654 4.01562 34.3982 3.86719 35.0389C3.73438 35.6482 3.67188 36.2889 3.64062 37.2654C3.60156 38.5154 3.63281 38.5311 6.07812 38.492C7.05469 38.4764 7.90625 38.4529 7.97656 38.4295C8.16406 38.3748 8.36719 38.1951 8.32031 38.1248C8.29688 38.0857 8.3125 38.0389 8.35938 38.0076C8.39844 37.9842 8.4375 37.8904 8.4375 37.8045C8.4375 37.5232 8.75 36.7264 9.01562 36.3123C9.28906 35.8904 9.71875 35.3904 9.80469 35.3904C9.82812 35.3904 9.92969 35.3045 10.0312 35.1951C10.1328 35.0857 10.25 34.9998 10.2891 34.9998C10.3281 34.9998 10.4297 34.9295 10.5078 34.8436C10.5859 34.7576 10.6953 34.6873 10.75 34.6873C10.8047 34.6873 10.9141 34.617 10.9922 34.5389C11.0703 34.4529 11.1875 34.3748 11.25 34.3592C11.3125 34.3436 11.5156 34.2576 11.7031 34.1639C11.8984 34.0623 12.0781 34.0076 12.1172 34.0311C12.1562 34.0545 12.1875 34.0311 12.1875 33.9842C12.1875 33.9373 12.2109 33.9139 12.25 33.9373C12.3828 34.0154 13.9844 33.117 13.9844 32.9607C13.9844 32.9217 14.0312 32.8904 14.0938 32.8904C14.2578 32.8904 15.1562 31.867 15.1562 31.6717C15.1562 31.6248 15.2109 31.5389 15.2734 31.4842C15.4062 31.3748 15.75 30.6248 15.7188 30.5232C15.7109 30.492 15.7422 30.4686 15.7891 30.4686C15.8359 30.4686 15.8594 30.4217 15.8359 30.367C15.8203 30.3201 15.8359 30.2107 15.875 30.1326C15.9766 29.9373 16.0703 29.4373 16.0859 28.9998C16.0938 28.9061 16.2969 28.9061 16.5625 28.9998C16.75 29.0701 17.375 29.2498 17.4609 29.2654C17.5078 29.2654 17.5938 29.2967 17.6562 29.3201C17.8828 29.4061 19.2969 29.7967 19.4141 29.8045C19.4609 29.8045 19.5391 29.8357 19.5938 29.8748C19.6484 29.9061 19.7188 29.9217 19.7344 29.8982C19.7578 29.8748 19.9375 29.9139 20.1406 29.9764C20.3438 30.0389 20.6172 30.1014 20.7422 30.117C20.875 30.1404 21.0625 30.1717 21.1719 30.1951C21.5078 30.2732 22.8516 30.4217 23.2422 30.4217C23.4688 30.4217 24.0625 30.3592 24.7266 30.2732C25.0938 30.2186 25.8672 30.0076 25.9766 29.9217C26.0234 29.8904 26.1406 29.8357 26.2422 29.8045C26.3516 29.7732 26.5703 29.6482 26.7422 29.5232C26.9141 29.3982 27.0859 29.2967 27.1172 29.2967C27.2734 29.2967 28.7656 27.9061 28.7109 27.8123C28.6875 27.7732 28.7266 27.7264 28.7969 27.7029C28.8594 27.6795 28.8984 27.6248 28.875 27.5936C28.8516 27.5545 28.8906 27.4529 28.9688 27.367C29.0391 27.2889 29.1406 27.1482 29.1953 27.0623C29.2422 26.9842 29.3125 26.9217 29.3516 26.9295C30.3125 27.1092 32.6016 27.0857 32.9297 26.8904C33.0078 26.8436 33.0312 26.8357 33.3203 26.7654C33.4062 26.7498 33.4766 26.7264 33.4766 26.7186C33.4766 26.7107 33.5469 26.6951 33.6406 26.6795C33.7344 26.6561 33.9688 26.5779 34.1719 26.492C34.3672 26.4061 34.5469 26.3436 34.5625 26.3514C34.5703 26.3592 34.6484 26.3123 34.7188 26.2498C34.7969 26.1873 34.9062 26.1326 34.9688 26.1248C35.0312 26.117 35.2109 25.9998 35.3828 25.867C35.5469 25.7342 35.7266 25.6248 35.7734 25.6248C35.8203 25.6248 35.8594 25.5857 35.8594 25.5467C35.8594 25.4998 35.9062 25.4686 35.9688 25.4686C36.0859 25.4686 37.4219 24.1951 37.4219 24.0857C37.4219 24.0467 37.4922 23.9686 37.5781 23.9061C37.6641 23.8436 37.7344 23.7654 37.7344 23.7264C37.7344 23.6873 37.8203 23.5467 37.9219 23.4139C38.2031 23.0389 38.8047 21.8514 38.7656 21.7342C38.75 21.6873 38.7734 21.6404 38.8203 21.6404C38.8672 21.6404 38.8984 21.617 38.8906 21.5779C38.8828 21.5467 38.9297 21.367 38.9844 21.1717C39.2031 20.4373 39.2891 19.8123 39.2969 18.9842C39.3047 18.2107 39.2109 17.1482 39.1406 17.1482C39.1328 17.1482 39.1172 17.0779 39.1016 16.992C39.0312 16.5389 38.8516 16.0154 38.6562 15.6404C38.5781 15.4998 38.5156 15.3357 38.5156 15.2732C38.5156 15.2186 38.4688 15.117 38.4219 15.0623C38.3516 14.992 38.3203 14.6561 38.3125 14.0232C38.3125 13.0232 38.2891 12.8748 38.1406 12.5936C38.0859 12.4998 38.0625 12.3904 38.0859 12.3514C38.1094 12.3123 38.0703 12.2186 38 12.1561C37.9297 12.0857 37.8672 11.9842 37.8594 11.9295C37.8125 11.6561 36.7734 10.3904 36.5859 10.3904C36.5469 10.3904 36.4297 10.3201 36.3281 10.2342C36.2266 10.1482 36.1016 10.0779 36.0391 10.0779C35.9844 10.0779 35.9375 10.0389 35.9375 9.99981C35.9375 9.95293 35.8672 9.92168 35.7812 9.92168C35.6953 9.92168 35.625 9.89043 35.625 9.85137C35.625 9.82012 35.4688 9.74199 35.2812 9.68731C34.9844 9.60918 34.9219 9.55449 34.8828 9.34356C34.8281 9.10137 34.5156 8.49981 34.3281 8.28106C33.9219 7.81231 33.5156 7.39824 33.5156 7.46074C33.5156 7.50762 33.4922 7.50762 33.4531 7.46074C33.3594 7.32793 32.7969 6.99199 32.4219 6.84356C32.0234 6.67949 30.75 6.60137 30.3438 6.71074C30.1172 6.77324 30.0859 6.75762 30.0469 6.60918C30.0234 6.51543 29.9375 6.36699 29.8438 6.27324C29.7578 6.17949 29.6875 6.07012 29.6875 6.03106C29.6875 5.88262 27.9688 4.21856 27.8203 4.21856C27.7891 4.21856 27.6953 4.15606 27.6094 4.07793C27.4062 3.90606 27.1953 3.77324 26.9531 3.66387C26.8438 3.61699 26.625 3.50762 26.4688 3.42168C26.2109 3.28887 25.5625 3.07012 25.2344 3.00762C25.1719 2.99199 25.1094 2.97637 25.1016 2.96856C25.0859 2.95293 25.0156 2.94512 24.9453 2.92949C24.8672 2.92168 24.7344 2.88262 24.6484 2.84356C24.4766 2.77324 22.4453 2.75762 22.0703 2.83574C21.9453 2.85918 21.6953 2.89824 21.5234 2.92168C21.1797 2.96856 20.3984 3.19512 20.2734 3.28106C20.125 3.39043 19.7656 3.44512 19.7656 3.35918C19.7656 3.24199 19.0469 2.57793 18.9766 2.62481C18.9375 2.64824 18.9062 2.63262 18.9062 2.58574C18.9062 2.53887 18.8203 2.48418 18.7109 2.45293C18.6016 2.42949 18.5156 2.37481 18.5156 2.32793C18.5156 2.28887 18.4844 2.27324 18.4453 2.29668C18.4062 2.32793 18.3594 2.31231 18.3438 2.27324C18.3359 2.22637 18.2266 2.17949 18.1094 2.15606C17.9922 2.14043 17.8672 2.10137 17.8281 2.08574C17.7031 1.99981 16.5938 1.86699 16.5312 1.92949ZM17.7344 3.23418C18.1719 3.35918 18.6172 3.69512 18.8672 4.07793C18.9375 4.19512 19.0312 4.27324 19.0703 4.24981C19.1094 4.22637 19.1406 4.26543 19.1406 4.32793C19.1406 4.39043 19.2969 4.62481 19.4844 4.83574C20.1172 5.54668 20.25 5.85918 20.2734 6.62481C20.2891 6.99981 20.2656 7.34356 20.2188 7.39824C20.1797 7.45293 20.1641 7.52324 20.1875 7.57012C20.2109 7.60918 20.2109 7.65606 20.1797 7.67168C20.1406 7.67949 20.0469 7.83574 19.9609 8.00762C19.875 8.17949 19.7266 8.42168 19.6328 8.53887C19.2891 8.96856 19.4609 9.43731 19.9766 9.50762C20.25 9.54668 20.3047 9.52324 20.4766 9.29668C20.5781 9.16387 20.7109 8.99981 20.7656 8.94512C20.8125 8.88262 20.8594 8.80449 20.8594 8.75762C20.8594 8.71074 20.8906 8.67168 20.9375 8.67168C20.9766 8.67168 21.0391 8.57793 21.0625 8.45293C21.0938 8.33574 21.1406 8.20293 21.1719 8.16387C21.2109 8.11699 21.2578 7.96074 21.2812 7.81231C21.3047 7.66387 21.3594 7.41387 21.3906 7.26543C21.4531 6.96856 21.4531 6.93731 21.375 6.17168C21.3203 5.62481 20.9609 4.78887 20.6797 4.52324C20.5469 4.39824 20.5312 4.35137 20.6484 4.38262C20.6562 4.38262 20.7734 4.34356 20.8984 4.29668C22.0469 3.85137 23.7344 3.75762 24.8828 4.07793C25.0547 4.12481 25.2422 4.16387 25.2969 4.14824C25.3438 4.14043 25.3906 4.17168 25.3906 4.21074C25.3906 4.25762 25.5156 4.31231 25.6641 4.34356C25.8125 4.36699 25.9609 4.42168 25.9844 4.46074C26.0078 4.49981 26.0547 4.51543 26.0938 4.49199C26.125 4.46856 26.1953 4.50762 26.25 4.57012C26.3047 4.63262 26.3828 4.68731 26.4219 4.68731C26.4609 4.68731 26.6172 4.78106 26.7656 4.89043C26.9141 5.00762 27.0312 5.07012 27.0312 5.04668C27.0312 4.98418 28.3516 6.14824 28.375 6.23418C28.3984 6.28887 28.5625 6.50762 28.7344 6.67949C28.7812 6.74199 28.8281 6.82012 28.8281 6.85918C28.8281 6.90606 28.8594 6.95293 28.8906 6.96856C28.9531 6.99199 29.1094 7.24981 29.6172 8.17168C29.7734 8.45293 29.8438 8.67168 29.8438 8.95293C29.8438 9.48418 29.8281 9.60918 29.7578 9.60918C29.7266 9.60918 29.6562 9.72637 29.6094 9.87481C29.5625 10.0232 29.4766 10.1639 29.4141 10.1873C29.2344 10.2498 29.2734 10.7029 29.4688 10.9139C29.7344 11.2029 30.0938 11.1561 30.3828 10.8045C30.5156 10.6404 30.625 10.4842 30.625 10.4451C30.625 10.4139 30.6953 10.2264 30.7812 10.0311C31.0078 9.53887 31.0078 7.97637 30.7812 7.90606C30.5781 7.83574 30.7422 7.77324 31.125 7.78106C31.8516 7.78887 32.4531 8.02324 32.9453 8.49199C33 8.53887 33.0703 8.59356 33.1016 8.60918C33.3047 8.69512 33.7656 9.52324 33.8594 9.96074C33.8906 10.1092 34.1562 10.6248 34.2109 10.6326C34.2344 10.6404 34.3438 10.6561 34.4531 10.6639C34.8047 10.7186 34.8906 10.742 35.3594 10.9764C35.9297 11.2654 36.6016 11.9139 36.8359 12.4061C37.1953 13.1482 37.2422 13.367 37.2031 14.0623C37.1875 14.4295 37.1719 14.8279 37.1641 14.9607C37.1641 15.0857 37.25 15.3436 37.3672 15.5232C37.4766 15.7029 37.5938 15.9451 37.625 16.0701C37.6562 16.1873 37.7109 16.3045 37.7422 16.3279C37.7812 16.3514 37.8281 16.4607 37.8438 16.5623C37.8594 16.6717 37.8828 16.7576 37.8906 16.7576C37.9062 16.7576 37.9453 16.9217 38.0078 17.2264C38.0312 17.3514 38.0859 17.5857 38.1172 17.742C38.2031 18.1092 38.1562 19.7889 38.0625 20.1951C37.8438 21.0936 37.7031 21.5311 37.625 21.6404C37.5703 21.7029 37.4531 21.9295 37.3516 22.1482C37.25 22.3592 37.0859 22.6482 36.9844 22.7889C36.8828 22.9217 36.7969 23.0701 36.7969 23.117C36.7969 23.1639 36.7578 23.2029 36.7188 23.2029C36.6719 23.2029 36.5781 23.3045 36.5 23.4217C36.3047 23.7498 35.0469 24.8357 34.875 24.8436C34.8281 24.8436 34.7266 24.9139 34.6484 24.9998C34.5703 25.0857 34.4922 25.1404 34.4688 25.117C34.4531 25.1014 34.2891 25.1639 34.1094 25.2498C33.7188 25.4607 33.0703 25.7107 32.8359 25.742C32.75 25.7576 32.6016 25.7889 32.5078 25.8201C32.1484 25.9295 30.4297 26.0076 30.3359 25.9139C30.3125 25.8826 30.3828 25.7264 30.4922 25.5701C30.6719 25.3045 30.7812 24.9998 30.9219 24.3748C31.0078 23.9998 30.9453 22.8904 30.8359 22.8904C30.8047 22.8904 30.7891 22.8592 30.8203 22.8201C30.8438 22.7811 30.8203 22.7186 30.7734 22.6951C30.7344 22.6639 30.7109 22.5936 30.7344 22.5389C30.7656 22.4451 30.4219 21.8592 30.2969 21.8123C30.2656 21.7967 30.2344 21.7498 30.2344 21.7029C30.2344 21.5545 29.5234 20.9529 29.1094 20.7498C28.5703 20.4842 27.7734 20.367 27.4922 20.5154C27.1484 20.6873 27.0859 21.0701 27.3516 21.3514C27.4375 21.4451 27.5703 21.5232 27.6406 21.5232C27.9453 21.5311 28.7266 21.8279 28.9219 22.0076C29.0312 22.117 29.1484 22.2029 29.1719 22.1951C29.1953 22.1873 29.2109 22.1951 29.2031 22.2107C29.1875 22.2186 29.2578 22.3123 29.3516 22.4217C29.5391 22.617 29.8125 23.2654 29.8516 23.5936C29.8828 23.8904 29.7656 24.4607 29.6016 24.7654C29.4219 25.1092 28.9688 25.6248 28.8438 25.6248C28.7891 25.6248 28.75 25.6561 28.75 25.7029C28.75 25.742 28.7031 25.7811 28.6562 25.7811C28.6016 25.7811 28.4766 25.9451 28.375 26.1561C27.8672 27.2107 26.9297 28.2342 26.1406 28.5936C25.3516 28.9451 25.1875 29.0154 25.0703 29.0232C25 29.0311 24.9062 29.0623 24.8594 29.0936C24.5312 29.2967 22.4375 29.2967 21.4766 29.0936C21.1172 29.0232 20.7344 28.9451 20.625 28.9295C20.5156 28.9217 20.1641 28.8357 19.8438 28.742C19.5234 28.6482 19.2031 28.5701 19.1406 28.5545C19.0781 28.5467 18.9219 28.4998 18.7969 28.4451C18.6719 28.3982 18.5547 28.367 18.5391 28.3904C18.5156 28.4061 18.3828 28.3748 18.2344 28.3123C18.0859 28.2498 17.9453 28.2029 17.9141 28.1951C17.875 28.1951 17.6719 28.1404 17.4531 28.0779C17.2344 28.0154 16.9766 27.9451 16.8828 27.9295C16.5234 27.8514 16.4375 27.8201 16.2344 27.742C16.1094 27.6951 16.0156 27.6795 16.0156 27.7029C16.0156 27.7342 15.9609 27.7107 15.8984 27.6561C15.8359 27.6014 15.7812 27.5779 15.7812 27.6092C15.7812 27.6404 15.6953 27.6014 15.5859 27.5311C15.4766 27.4607 15.3906 27.4295 15.3906 27.4607C15.3906 27.492 15.3359 27.4764 15.2734 27.4217C15.1641 27.3357 14.2656 26.8826 14.1797 26.8748C14.0781 26.867 13.2891 26.4061 12.8828 26.117C12.625 25.9295 12.4062 25.7811 12.3828 25.7811C12.3672 25.7811 12.2422 25.6717 12.1016 25.5389C11.7031 25.1482 11.1797 25.3436 11.125 25.8982C11.1094 26.1092 11.1562 26.2029 11.3906 26.4139C11.7969 26.7811 12.2422 27.1092 12.3359 27.1092C12.3828 27.1092 12.4219 27.1404 12.4219 27.1717C12.4219 27.2107 12.5156 27.2889 12.6406 27.3436C12.7578 27.4061 12.9062 27.4998 12.9766 27.5545C13.0469 27.617 13.1875 27.6795 13.2812 27.6951C13.3828 27.7186 13.4922 27.7654 13.5156 27.8123C13.5469 27.8592 13.6172 27.9061 13.6797 27.9217C13.7734 27.9373 14.1641 28.1014 14.7656 28.3904C15.0391 28.5232 15.0391 28.6873 14.7422 30.0389C14.7266 30.0779 14.6953 30.1639 14.6641 30.2107C14.625 30.2654 14.5859 30.3748 14.5703 30.4607C14.5547 30.5389 14.4844 30.6717 14.4219 30.7498C14.3516 30.8357 14.3047 30.9139 14.3125 30.9373C14.3359 30.992 14.0859 31.2811 13.5391 31.8436C13.0469 32.3357 12.2109 32.8279 11.6562 32.9373C11.5156 32.9686 11.4062 33.0232 11.4062 33.0701C11.4062 33.117 11.3828 33.1326 11.3594 33.1014C11.2891 33.0311 10.3438 33.5623 9.6875 34.0467C9.0625 34.4998 8.10938 35.4607 8.17188 35.5623C8.19531 35.5936 8.17188 35.6248 8.125 35.6248C8.03906 35.6248 7.625 36.4607 7.41406 37.0545L7.3125 37.3436H6.03125H4.74219L4.80469 36.6561C4.875 35.7811 4.89062 35.7029 4.94531 35.4686C4.97656 35.3592 5.01562 35.1873 5.03906 35.0779C5.10156 34.742 5.21094 34.3514 5.35156 33.9842C5.42188 33.7889 5.49219 33.5936 5.5 33.5545C5.60156 33.1795 6.00781 32.3592 6.34375 31.8592C6.50781 31.6092 6.625 31.4061 6.59375 31.4061C6.5625 31.4061 6.63281 31.3123 6.75 31.2029C6.85938 31.0857 7.02344 30.8748 7.11719 30.7342C7.20312 30.5857 7.30469 30.4686 7.34375 30.4686C7.41406 30.4686 7.57812 30.0467 7.57812 29.8748C7.57812 29.7342 7.11719 29.2967 6.97656 29.2967C6.92188 29.2967 6.85156 29.242 6.82812 29.1795C6.79688 29.117 6.75 29.0857 6.71094 29.1092C6.67188 29.1326 6.64062 29.1092 6.64062 29.0623C6.64062 29.0154 6.58594 28.9607 6.51562 28.9295C6.44531 28.9061 6.3125 28.8123 6.21094 28.7186C6.11719 28.6248 5.90625 28.4451 5.75 28.3201C5.36719 28.0154 4.28906 26.9529 4.35156 26.9529C4.375 26.9529 4.33594 26.8826 4.25781 26.7967C4.03906 26.5545 3.75781 25.9373 3.74219 25.6717C3.73438 25.5389 3.75781 25.2654 3.78125 25.0701C3.83594 24.7107 3.83594 24.7029 3.36719 24.2264C3.10938 23.9686 2.91406 23.7498 2.9375 23.7498C2.96094 23.7498 2.90625 23.6717 2.8125 23.5779C2.72656 23.4842 2.65625 23.3592 2.65625 23.3045C2.65625 23.2498 2.61719 23.2029 2.57812 23.2029C2.50781 23.2029 2.39844 23.0076 2.30469 22.7342C2.29687 22.7107 2.26562 22.6248 2.22656 22.5389C1.99219 21.9529 1.95312 21.8436 1.98437 21.8201C2.00781 21.7967 1.97656 21.6326 1.92187 21.4607C1.80469 21.0545 1.83594 19.5623 1.96875 19.3357C1.99219 19.2889 2.03906 19.1326 2.07031 18.9842C2.10156 18.8357 2.23437 18.4998 2.35937 18.242C2.61719 17.7029 2.65625 17.3748 2.47656 17.1092C2.15625 16.6014 1.95312 14.9686 2.1875 14.7342C2.22656 14.6951 2.26562 14.6092 2.26562 14.5467C2.26562 14.0467 3.28906 12.7967 3.85156 12.6092C3.92188 12.5779 3.98438 12.5232 3.98438 12.4764C3.98438 12.4295 4.00781 12.4217 4.03906 12.4451C4.0625 12.4764 4.16406 12.4529 4.25 12.3904C4.34375 12.3357 4.57812 12.2576 4.76562 12.2186C5.42188 12.1014 5.49219 12.0467 5.59375 11.617C5.60156 11.5857 5.61719 11.5389 5.625 11.4998C5.64062 11.4686 5.65625 11.4061 5.65625 11.367C5.67969 11.2107 5.96094 10.492 6.19531 9.99981C6.32812 9.71856 6.42969 9.46856 6.42188 9.42949C6.41406 9.39824 6.4375 9.37481 6.47656 9.37481C6.51562 9.37481 6.63281 9.22637 6.74219 9.03887C7.01562 8.57793 7.42188 8.11699 7.90625 7.71856C8.30469 7.39824 8.54688 7.19512 8.64844 7.10918C8.70312 7.07012 8.76562 7.03106 8.78906 7.03106C8.82031 7.03106 8.95312 6.94512 9.09375 6.83574C9.23438 6.72637 9.375 6.66387 9.39844 6.69512C9.42969 6.71856 9.45312 6.70293 9.45312 6.64824C9.45312 6.59356 9.49219 6.57793 9.53125 6.60137C9.57812 6.62481 9.60938 6.61699 9.60938 6.57793C9.60938 6.53887 9.65625 6.50762 9.71094 6.50762C9.75781 6.49981 10.0156 6.42168 10.2734 6.32793C11.0703 6.02324 11.9219 5.89043 12.875 5.89824C13.6406 5.91387 13.7891 5.89043 13.9453 5.76543C14.0547 5.67949 14.1328 5.59356 14.125 5.56231C14.0938 5.45293 14.2266 4.91387 14.3594 4.63262C14.5625 4.17949 15.1094 3.57012 15.3828 3.47637C15.4688 3.45293 15.5469 3.39824 15.5469 3.36699C15.5469 3.30449 15.9766 3.15606 16.3281 3.09356C16.6562 3.03887 17.2812 3.10137 17.7344 3.23418Z" fill="#012047"/>
</svg>
