<svg width="40" height="40" viewBox="0 0 40 40" fill="none" xmlns="http://www.w3.org/2000/svg">
<g clip-path="url(#clip0_406_12215)">
<path d="M20.7031 5.67969C20.3203 5.74219 20.0703 5.88282 19.9609 6.10157C19.8672 6.27344 19.8438 6.73438 19.8438 8.39063V10.4609L19.4922 10.6172C18.9609 10.8516 18.3359 11.4844 18.0781 12.0547C17.8828 12.4688 17.8516 12.6328 17.8516 13.2422C17.8516 13.8438 17.8828 14.0078 18.0625 14.3906C18.3359 14.9766 18.875 15.5391 19.4141 15.8125L19.8438 16.0313V17.5078V18.9844H17.9297C15.8203 18.9844 15.5703 19.0313 15.3672 19.4297C15.3047 19.5469 15.2344 19.7969 15.2109 19.9766C15.1875 20.1563 15.1016 20.4063 15.0078 20.5391C14.8047 20.8203 14.2344 21.0547 13.9375 20.9844C13.4453 20.8594 13.0469 20.375 13.0469 19.9141C13.0469 19.6172 12.8047 19.2344 12.5391 19.1094C12.1562 18.9219 7.53125 18.9219 7.14844 19.1094C6.82812 19.2578 6.64062 19.625 6.64062 20.1016C6.64062 21.1875 6.94531 23.0469 7.3125 24.1797C7.875 25.9141 8.42969 26.9688 9.72656 28.7891C10.7969 30.2891 11.0469 30.7422 11.25 31.5313C11.3906 32.0859 11.4062 32.4063 11.4062 35.6797C11.4062 39.4844 11.4141 39.6016 11.8047 39.875C11.9141 39.9453 12.1406 40 12.3672 40C12.6875 40 12.7812 39.9609 12.9766 39.7656L13.2109 39.5313L13.1875 35.5313C13.1562 31.7188 13.1484 31.4922 12.9922 30.9297C12.7188 29.9453 12.3047 29.2344 10.9062 27.3047C9.625 25.5469 8.71875 23.25 8.54688 21.3594L8.49219 20.7813H9.92969H11.3672L11.5156 21.1406C11.7031 21.5859 12.3516 22.2578 12.8125 22.4844C13.3047 22.7188 13.9375 22.8281 14.4688 22.7734C15.3984 22.6641 16.3594 21.9844 16.7344 21.1641L16.9141 20.7813H18.9297C20.6094 20.7813 20.9844 20.7578 21.1797 20.6563C21.6172 20.4375 21.6406 20.2578 21.6406 17.5781C21.6406 14.5313 21.6328 14.5078 20.6094 14.2969C19.8125 14.1406 19.4297 13.4688 19.7578 12.7969C19.9453 12.4063 20.2266 12.2109 20.7109 12.1406C20.8984 12.1172 21.1406 12.0391 21.2344 11.9766C21.6016 11.75 21.6406 11.4844 21.6406 9.36719V7.39844L22.6016 7.44532C27.4375 7.70313 31.1172 10.2969 32.4531 14.4063C32.7422 15.2891 32.8906 16.1484 32.9688 17.4609C33.0469 18.8125 33.1562 19.2344 33.6016 19.9219C34 20.5391 34.5391 21.0625 35.6953 21.9453C36.7344 22.7422 37.1719 23.1563 37.2344 23.4141C37.2969 23.6641 37.0938 23.9531 36.6719 24.2031C34.9766 25.2188 34.5781 25.7813 34.5938 27.1641C34.6016 27.7266 34.5781 27.8438 34.375 28.2188C34.1094 28.6875 34.0781 29.0859 34.2656 29.4766C34.3906 29.7344 34.3906 29.7578 34.1797 30.1094C33.8828 30.6094 33.8516 31.1719 34.0547 32.1406C34.1484 32.5703 34.2188 32.9609 34.2188 33.0156C34.2188 33.2031 33.75 33.6563 33.4141 33.7891C33.1875 33.8828 32.6953 33.9453 31.8359 33.9922C30.2891 34.0859 29.4922 34.2109 28.7891 34.4922C27.125 35.1563 26.5703 36.125 26.5625 38.3438C26.5625 39.3672 26.6328 39.6406 26.9688 39.875C27.25 40.0703 27.8281 40.0391 28.0703 39.8125C28.3281 39.5703 28.3516 39.4766 28.375 38.2031C28.3984 37.3047 28.4219 37.1094 28.5547 36.875C28.9609 36.1875 29.8594 35.8984 31.9453 35.7891C33.8516 35.6875 34.5703 35.4453 35.3047 34.6484C35.9844 33.9141 36.125 33.2344 35.8672 31.9688L35.6953 31.1563L35.8984 30.75C36.125 30.2813 36.2109 29.7031 36.1172 29.2656C36.0625 29 36.0859 28.8984 36.2812 28.5078C36.5156 28.0703 36.5156 28.0547 36.4219 27.5C36.2812 26.6875 36.375 26.5313 37.3516 25.9297C38.6484 25.1328 39.1328 24.3906 39.0391 23.3594C38.9531 22.3984 38.4453 21.7422 36.8359 20.5234C35.0078 19.1328 34.8516 18.875 34.7578 17.1797C34.5078 12.625 32.3203 9.15625 28.4141 7.10938C27.0625 6.39844 25.2656 5.88282 23.5234 5.71094C22.75 5.625 21.1094 5.60938 20.7031 5.67969Z" fill="#000F28"/>
<path d="M13.9453 0.0544434C13.1719 0.156006 11.8594 0.452881 11.0156 0.726318C8.50782 1.52319 6.58594 2.67944 4.84376 4.44507C3.32032 5.97632 2.39844 7.43725 1.72657 9.39819C1.10157 11.2185 0.742193 13.9998 1.05469 14.6091C1.28126 15.0466 1.42969 15.0779 3.64844 15.0779L5.66407 15.0857L5.85157 15.4841C6.21876 16.2576 6.98438 16.8357 7.90626 17.0232C9.08594 17.2732 10.4063 16.6169 10.9844 15.5076L11.2109 15.0779H13.2266C14.9453 15.0779 15.2813 15.0623 15.4609 14.9529C15.8906 14.6951 15.8984 14.6794 15.9219 12.1482C15.9375 10.8591 15.9219 9.64819 15.8984 9.46069C15.8281 8.9685 15.5313 8.69507 15 8.62475C14.4922 8.55444 14.1016 8.24975 13.9766 7.80444C13.7891 7.19507 14.1953 6.54663 14.8281 6.44507C15.3594 6.35913 15.4453 6.32788 15.6172 6.19507C15.7109 6.11694 15.8203 5.91382 15.8594 5.74194C15.9609 5.31225 15.9531 0.968506 15.8594 0.609131C15.7266 0.132568 15.4766 -0.000244141 14.7734 0.00756836C14.4453 0.0153809 14.0781 0.0388184 13.9453 0.0544434ZM14.1406 3.30444V4.74194L13.8125 4.89038C13.2891 5.11694 12.6328 5.78882 12.375 6.35132C12.1797 6.76538 12.1484 6.92944 12.1484 7.53882C12.1484 8.17163 12.1797 8.29663 12.4063 8.76538C12.6953 9.35913 13.25 9.906 13.7891 10.1248L14.1406 10.2732V11.7732V13.281H12.1875C10.5859 13.281 10.1875 13.3044 10 13.3982C9.73438 13.531 9.53125 13.8826 9.53125 14.1794C9.53125 14.4919 9.32032 14.8748 9.03907 15.0779C8.39063 15.5623 7.34376 15.0544 7.34376 14.2576C7.34376 13.9138 7.11719 13.5388 6.83594 13.406C6.62501 13.3044 6.24219 13.281 4.67188 13.281H2.75782L2.78126 13.0623C3.00001 10.9919 3.48438 9.45288 4.38282 7.92944C5.90625 5.35913 8.51563 3.36694 11.625 2.406C12.3125 2.19507 13.6563 1.89038 13.9297 1.88257L14.1406 1.87475V3.30444Z" fill="#0E82FD"/>
</g>
<defs>
<clipPath id="clip0_406_12215">
<rect width="40" height="40" fill="white"/>
</clipPath>
</defs>
</svg>
