<svg width="40" height="40" viewBox="0 0 40 40" fill="none" xmlns="http://www.w3.org/2000/svg">
<path d="M20.9425 2.02655C20.5762 2.18857 20.2733 2.66757 20.2733 3.09021C20.2733 3.21701 20.2451 3.29449 20.2028 3.26631C20.1676 3.24518 20.1324 3.15361 20.1324 3.06908C20.1324 2.81549 19.8295 2.37171 19.5689 2.23788C19.4209 2.15335 19.1814 2.10404 18.9631 2.10404C18.4982 2.10404 18.1812 2.30832 17.9558 2.75914L17.7938 3.09726L17.9065 3.84393C17.9699 4.25249 18.0121 4.60469 17.998 4.61878C17.9769 4.63287 17.8008 4.44972 17.6036 4.20318C17.0823 3.56921 16.878 3.44242 16.392 3.44242C15.7087 3.44242 15.272 3.8862 15.272 4.57652C15.272 4.9569 15.3917 5.15413 16.1877 6.091L16.7371 6.72497L16.392 7.08422C16.0398 7.45051 15.9623 7.69705 16.1314 7.86611C16.1807 7.91542 16.2793 7.95064 16.3568 7.95064C16.5188 7.95064 17.5261 6.91516 17.5261 6.7461C17.5261 6.67566 17.1809 6.21779 16.7653 5.71766C16.3427 5.22457 15.9834 4.75966 15.9553 4.68922C15.8425 4.37928 16.3004 3.97777 16.5892 4.13978C16.6667 4.175 16.9907 4.52721 17.3148 4.92168C17.9276 5.66835 18.0967 5.76697 18.4418 5.62609C18.7588 5.49225 18.794 5.27388 18.6461 4.31589C18.5757 3.85802 18.5123 3.37198 18.5123 3.24518C18.5123 2.79436 18.9983 2.57599 19.3082 2.89298C19.428 3.01273 19.5125 3.2804 19.6393 3.92846C19.7802 4.63991 19.8436 4.81602 19.9845 4.92872C20.1958 5.09778 20.3578 5.09778 20.548 4.93577C20.6748 4.83715 20.7171 4.64696 20.8298 3.82984C20.9495 2.99864 20.9918 2.82958 21.1186 2.72392C21.4356 2.46329 21.8934 2.67461 21.8934 3.06908C21.8934 3.18179 21.83 3.80167 21.7455 4.44972C21.668 5.10482 21.6187 5.6754 21.6328 5.7247C21.6539 5.77401 21.8793 5.93603 22.14 6.091C22.6965 6.41503 23.1402 6.88698 23.4713 7.52799C23.8587 8.26762 23.9503 8.66209 23.9996 9.78211L24.0419 10.8035L24.2602 10.8246C24.5631 10.8528 24.6477 10.719 24.6899 10.1132C24.8167 8.40146 23.9855 6.48547 22.7598 5.6754C22.5204 5.52043 22.3161 5.35137 22.3161 5.3091C22.3161 5.26684 22.3795 4.73853 22.4499 4.13274C22.6119 2.85776 22.5767 2.59713 22.2034 2.23788C21.992 2.0336 21.9146 2.00542 21.5201 1.98429C21.2806 1.9702 21.02 1.99133 20.9425 2.02655Z" fill="#000F28"/>
<path d="M19.2808 5.53489C19.1328 5.9364 18.6961 6.26043 18.3016 6.26043H18.0903V6.69012C18.0903 7.11277 18.0903 7.11981 17.6817 7.5495C16.8153 8.46523 16.8435 8.3807 17.2521 9.0358C17.5972 9.59229 17.6677 9.97267 17.4845 10.2615C17.407 10.3742 17.1112 10.6559 16.8224 10.8884C15.639 11.8253 14.6669 13.1777 14.526 14.0864C14.4626 14.4527 14.5612 14.4457 15.012 14.0442C15.8714 13.2834 16.9985 13.0157 18.1819 13.2764C18.3439 13.3116 18.4143 13.2764 18.6609 13.0157C19.0835 12.5579 19.1962 12.2902 19.2314 11.6421C19.3019 10.3953 20.0697 9.45845 21.0911 9.37392C21.7744 9.31757 22.2604 9.62751 22.5703 10.3249C22.7465 10.7264 22.9578 10.8461 23.2184 10.7053C23.5354 10.5362 23.5002 9.32461 23.155 8.28209C22.838 7.31704 22.4647 6.85918 21.718 6.49993C21.2954 6.3027 21.0488 5.98571 21.0488 5.63351C21.0488 5.39401 20.9713 5.36583 20.6966 5.5208C20.4501 5.66168 20.0697 5.64759 19.7457 5.48558C19.3935 5.30243 19.3723 5.30948 19.2808 5.53489Z" fill="#0E82FD"/>
<path d="M12.4266 7.21C11.6659 7.36497 11.5532 7.47063 11.3207 8.29479C10.7924 10.091 10.5952 11.5985 10.5881 13.7962C10.5881 15.6981 10.6445 16.2758 10.9474 17.6494L11.1235 18.4453L10.8699 18.6637C10.1303 19.3188 9.48925 20.5938 9.16522 22.0519C8.98912 22.8831 8.98912 25.1161 9.16522 26.0177C9.89076 29.6032 12.1801 32.7308 15.6106 34.8158C18.3648 36.4923 21.7601 37.6053 25.2539 37.9645C26.3387 38.0772 28.7901 38.0138 29.572 37.8518C31.0019 37.5701 31.8261 37.0418 32.2065 36.1965C33.1715 34.0551 32.8968 27.6942 31.65 22.9888C30.5159 18.7341 28.8042 16.0785 26.705 15.3389C26.4373 15.2403 26.0711 15.1839 25.6414 15.1698L24.9863 15.1417L24.782 14.8599C24.3734 14.2964 23.6338 13.8174 22.8449 13.6131C22.394 13.4863 21.4642 13.4863 21.0134 13.6131C20.5837 13.7258 19.8793 14.078 19.5905 14.3175L19.3721 14.5006L19.196 14.3598C18.8086 14.0569 18.2169 13.8455 17.6674 13.8103C16.2093 13.7258 15.0048 14.4443 14.3708 15.7756L14.0961 16.3532L14.0045 16.1137C13.8566 15.7052 13.8284 14.4584 13.9693 13.9442C14.2863 12.7255 15.195 11.3872 16.2657 10.5771C16.9137 10.091 16.9771 9.73179 16.5333 8.98511C16.0543 8.18209 15.6035 8.03416 14.9202 8.47794C14.3004 8.87945 14.1806 8.81606 14.0397 7.99894C13.9059 7.21 13.4692 6.99868 12.4266 7.21ZM13.4058 8.17504C13.5607 9.20348 13.9693 9.56273 14.723 9.33027C14.8991 9.28096 15.1597 9.14713 15.3006 9.04147C15.4345 8.9358 15.5824 8.87241 15.6247 8.90058C15.674 8.92876 15.8219 9.126 15.9557 9.34436L16.2093 9.73179L15.7937 10.084C14.1595 11.4858 13.2931 13.0143 13.1874 14.712C13.1381 15.4023 13.2649 16.1278 13.5396 16.7195L13.7087 17.0929L13.4269 17.1774C13.2649 17.2197 12.8141 17.4239 12.4196 17.6282L11.6941 18.0016L11.5461 17.2901C11.4686 16.8956 11.363 16.2898 11.3137 15.9447C11.201 15.1205 11.201 12.6269 11.3137 11.683C11.4898 10.2812 11.9476 8.23844 12.1449 8.02711C12.2646 7.90032 13.0888 7.73831 13.2438 7.81579C13.3071 7.85101 13.3776 8.00598 13.4058 8.17504ZM23.183 14.4513C23.4859 14.6063 23.831 14.8458 24.0424 15.0642L24.3946 15.4234L24.2185 15.5643C23.0562 16.4871 22.225 17.3535 21.5981 18.3045C20.154 20.4952 19.7384 23.1437 20.3724 26.2009C20.464 26.6447 20.9077 28.2719 21.3515 29.8216C22.4293 33.562 22.4645 33.7733 22.1123 34.1678L21.9009 34.4002L21.1402 34.3932C19.5834 34.3791 17.597 33.6817 15.9205 32.5476C12.1801 30.0329 10.3909 25.6162 11.2221 20.9249C11.3278 20.3191 11.3278 20.312 11.1798 20.1852C10.8347 19.9035 10.6727 20.1148 10.5318 21.0517C10.1091 23.8129 10.4895 26.4193 11.6447 28.7297C13.2015 31.8362 16.3502 34.2171 19.8441 34.9285C20.5978 35.0835 21.6262 35.1117 22.0489 34.999C22.387 34.9004 22.7322 34.6115 22.8519 34.3157C22.9857 33.9987 22.9717 33.3084 22.8167 32.604C22.7392 32.2729 22.3447 30.8289 21.9291 29.3989C20.943 25.9755 20.8373 25.4824 20.788 23.9679C20.7316 22.1505 20.957 21.0164 21.6685 19.5724C22.2461 18.389 23.345 17.0929 24.5495 16.1701C24.9722 15.8461 25.0004 15.832 25.4794 15.832C26.9023 15.8179 28.135 16.7548 29.2832 18.6989C30.4948 20.7699 31.5021 24.4046 31.9458 28.3212C32.1008 29.73 32.1219 33.7733 31.974 34.5763C31.8331 35.3582 31.6429 35.9288 31.4175 36.2387C30.8399 37.0347 28.9944 37.4574 26.5078 37.3728C21.4431 37.1897 16.2093 35.1117 13.1944 32.0757C11.4686 30.3358 10.2852 28.1662 9.83441 25.8909C9.62309 24.8062 9.61604 23.1508 9.82736 22.1787C10.1091 20.8685 10.5952 19.9035 11.3066 19.2061C11.5743 18.9455 11.9195 18.7482 13.0183 18.234C13.7721 17.8818 14.4272 17.5578 14.4765 17.5226C14.5187 17.4803 14.5962 17.269 14.6385 17.0506C14.6878 16.8322 14.8428 16.3885 14.9907 16.0785C15.3288 15.3812 15.843 14.874 16.4559 14.6345C17.0194 14.4161 17.8576 14.4091 18.3014 14.6133C18.9495 14.9233 18.9495 14.8951 18.4282 15.5643C15.7233 19.0441 14.8991 23.2705 16.16 27.1941C16.4136 27.976 16.5052 28.0887 16.8151 27.9901C17.0264 27.9267 17.0546 27.7295 16.8996 27.3139C15.4908 23.4607 16.3713 19.0652 19.2312 15.6629C20.1892 14.5218 20.95 14.1273 22.0911 14.1766C22.5983 14.1977 22.7533 14.24 23.183 14.4513Z" fill="#000F28"/>
<path d="M16.7588 15.1406C16.3573 15.2604 15.991 15.5562 15.6881 16C15.2866 16.6058 15.3218 16.7256 15.9346 17.0214C16.2023 17.1482 16.47 17.2327 16.5404 17.2116C16.6109 17.1905 16.7799 16.9792 16.9208 16.7467C17.0617 16.5142 17.3505 16.0846 17.5689 15.7957C17.8013 15.4858 17.9492 15.2322 17.9211 15.1688C17.8788 15.0491 17.1533 15.0279 16.7588 15.1406Z" fill="#000F28"/>
<path d="M24.669 16.2689C24.1689 16.6141 23.4574 17.2973 23.1193 17.7552C22.7953 18.1849 22.8023 18.4667 23.1334 18.5019C23.3377 18.523 23.4011 18.4737 23.7885 18.0088C24.183 17.5298 24.824 16.9592 25.296 16.6634C25.5284 16.5155 25.5636 16.1703 25.3523 16.0505C25.148 15.9449 25.1269 15.9519 24.669 16.2689Z" fill="#000F28"/>
<path d="M25.6486 16.9719C24.8456 17.5777 24.0073 18.5005 24.0073 18.7752C24.0073 18.8527 24.1552 19.0992 24.3313 19.3247C24.9583 20.1418 25.3668 21.2195 25.4584 22.3254C25.5007 22.7763 25.4866 22.896 25.3527 23.1496C25.1062 23.6286 24.6835 23.7624 24.0778 23.5511C23.9157 23.4948 23.6762 23.4455 23.5494 23.4455C23.1972 23.4455 22.6196 23.6568 22.4153 23.8611C22.2463 24.0231 22.2392 24.0724 22.2815 24.4246C22.4013 25.3544 23.1268 27.2634 24.0848 29.1512C24.9935 30.9474 25.7472 31.9829 26.5432 32.5183C27.0926 32.8845 27.4871 32.955 27.9379 32.7718C28.3535 32.5957 28.5014 32.3844 28.593 31.8279C28.755 30.8277 28.3394 28.5454 27.5012 25.8334C27.0715 24.4387 26.9729 24.0301 26.9236 23.4314C26.8461 22.4804 27.1983 21.3956 27.8534 20.5785C28.0365 20.3531 28.2197 20.1347 28.269 20.0995C28.4733 19.9305 28.9382 19.3458 28.9382 19.2542C28.9382 19.1979 28.748 18.8738 28.5155 18.5287C27.8745 17.5707 26.7827 16.6197 26.3178 16.6127C26.198 16.6127 25.9515 16.7465 25.6486 16.9719Z" fill="#0E82FD"/>
<path d="M14.9272 17.4524C14.8427 17.5369 14.7793 17.6285 14.7793 17.6637C14.7793 17.9103 15.9556 18.5372 16.174 18.4034C16.5544 18.1568 16.4558 17.9314 15.8288 17.6285C15.1596 17.3045 15.0892 17.2904 14.9272 17.4524Z" fill="#000F28"/>
<path d="M22.4714 18.811C22.3376 18.9449 22.3728 19.2125 22.5419 19.3464C23.0843 19.7761 23.4576 20.1987 23.683 20.6284C23.9789 21.1849 24.2184 22.0443 24.2184 22.5374C24.2184 23.0516 24.5776 23.2911 24.8171 22.9318C25.0214 22.6219 24.7678 21.2272 24.3593 20.4171C24.0916 19.8958 23.5985 19.2971 23.1759 18.9801C22.8096 18.7124 22.6123 18.6701 22.4714 18.811Z" fill="#000F28"/>
<path d="M21.971 20.2471C21.7878 20.6486 21.5624 21.4094 21.499 21.818C21.4427 22.1842 21.4004 22.1772 22.3866 21.832C22.7176 21.7123 23.0699 21.6137 23.1826 21.6137C23.3446 21.6137 23.3728 21.5855 23.3728 21.4235C23.3728 21.0431 22.5275 19.9231 22.2316 19.9231C22.1541 19.9231 22.0625 20.0428 21.971 20.2471Z" fill="#000F28"/>
<path d="M28.6913 20.5014C28.3109 20.91 28.0643 21.2622 27.8601 21.6778L27.5642 22.2695V23.1922V24.115L28.001 25.5027C28.494 27.0524 28.7828 28.1513 29.0153 29.3629C29.2266 30.4265 29.2407 31.8354 29.0576 32.3637C28.7195 33.3358 27.6558 33.7232 26.6414 33.2442C25.5214 32.7159 24.2817 31.0535 23.1264 28.5387C22.2318 26.5875 21.8162 25.383 21.6683 24.3263C21.5838 23.6994 21.5274 23.5867 21.295 23.5867C21.0203 23.5867 20.9498 23.7487 20.9991 24.3123C21.0977 25.4323 21.7106 27.1651 22.8095 29.3981C23.6266 31.0746 24.331 32.1523 25.0988 32.9201C26.0145 33.8359 26.8669 34.2163 27.7403 34.1176C28.6279 34.012 29.3323 33.4907 29.6493 32.7018C29.7972 32.3214 29.8113 32.1805 29.8113 31.1239C29.8113 30.2082 29.7831 29.7926 29.6563 29.1516C29.4309 28.0245 29.0717 26.665 28.5997 25.1716C28.2264 23.9812 28.1982 23.8614 28.1982 23.1993C28.1982 22.5442 28.2123 22.4597 28.4306 22.0229C28.5574 21.7553 28.8815 21.3115 29.1844 20.9734C29.7268 20.3746 29.7902 20.2267 29.6 20.0365C29.4027 19.8322 29.2407 19.9167 28.6913 20.5014Z" fill="#000F28"/>
<path d="M17.2301 21.9247C17.1034 22.0022 16.9836 22.0726 16.9695 22.0867C16.8991 22.136 17.2865 22.4671 17.5894 22.608C17.9768 22.7911 19.2307 22.8827 19.4843 22.7488C19.6533 22.6573 19.7026 22.298 19.5617 22.2064C19.5195 22.1783 19.1884 22.1571 18.8362 22.1501C18.3008 22.143 18.1388 22.1149 17.8289 21.9599L17.4626 21.7767L17.2301 21.9247Z" fill="#000F28"/>
<path d="M22.9993 22.2496C22.5555 22.3271 21.7877 22.6934 21.682 22.8766C21.5975 23.0456 21.682 23.264 21.8581 23.3344C21.9215 23.3556 22.1751 23.2781 22.4217 23.1583C22.6682 23.0386 23.0627 22.9188 23.3092 22.8836C23.5487 22.8484 23.7741 22.7779 23.8023 22.7286C23.8939 22.5877 23.8728 22.4116 23.753 22.2919C23.6333 22.1721 23.5206 22.1651 22.9993 22.2496Z" fill="#000F28"/>
<path d="M20.6961 10.0752C20.3086 10.2724 19.9635 10.7585 19.8578 11.2586C19.7662 11.6883 19.8437 11.8926 20.0973 11.8926C20.3298 11.8926 20.4566 11.7376 20.5129 11.3995C20.5622 11.0825 20.9144 10.6458 21.1469 10.6106C21.2807 10.5894 21.33 10.6599 21.5413 11.1177C21.6047 11.2516 21.8724 11.2938 22.0063 11.1882C22.2458 10.9839 22.0415 10.2865 21.6681 10.0611C21.3652 9.87797 21.0835 9.88501 20.6961 10.0752Z" fill="#000F28"/>
<path d="M24.9579 10.9561C23.5843 11.1182 21.7458 11.5549 21.0132 11.886C20.0905 12.3086 19.2945 12.9989 19.0409 13.5977C18.9493 13.8301 18.9493 13.8654 19.0691 14.0133C19.2452 14.2317 19.4987 14.1542 19.6749 13.8301C19.8439 13.5061 20.4427 12.9567 20.8864 12.7031C22.2107 11.9564 25.5708 11.3788 26.6908 11.7028C27.1275 11.8367 27.4938 12.1536 27.5642 12.4636C27.6981 13.0694 26.726 13.9922 25.6482 14.281C25.3313 14.3655 25.2326 14.5275 25.3101 14.7881C25.4369 15.1756 26.719 14.7177 27.4656 14.0203C28.3532 13.1962 28.48 12.1959 27.7685 11.5267C27.2613 11.0477 26.1061 10.8153 24.9579 10.9561Z" fill="#000F28"/>
<path d="M29.713 14.6557C28.5719 14.7754 27.5927 14.9022 27.5434 14.9445C27.4237 15.0431 27.4659 15.346 27.6139 15.4446C27.6984 15.4939 28.2971 15.4658 29.7623 15.3249C32.2348 15.0854 32.2066 15.0854 32.425 15.3108C32.6293 15.508 32.6433 15.6912 32.4954 15.9729C32.3686 16.2336 32.3405 16.2406 31.2416 16.3745C30.7274 16.4379 30.2695 16.5224 30.2272 16.5646C30.0934 16.6633 30.1145 17.0296 30.2484 17.0859C30.3892 17.1352 31.946 16.9873 32.3334 16.8887C32.6433 16.8112 32.9885 16.5365 33.1294 16.2547C33.2632 16.0011 33.2632 15.3953 33.1364 15.1488C32.911 14.712 32.4179 14.4162 31.9671 14.4373C31.8685 14.4444 30.8541 14.543 29.713 14.6557Z" fill="#000F28"/>
<path d="M30.417 15.7333C29.5857 15.8249 28.8954 15.9023 28.8884 15.9023C28.8743 15.9094 28.8672 15.9587 28.8672 16.015C28.8672 16.1559 29.0645 16.1559 30.7198 15.9657C31.8258 15.8389 32.1075 15.7826 32.0934 15.7051C32.0794 15.6488 32.0441 15.5994 32.0019 15.5924C31.9667 15.5854 31.2482 15.6488 30.417 15.7333Z" fill="#000F28"/>
<path d="M7.69994 16.0414C7.36887 16.1259 7.19277 16.2387 6.98144 16.5204C6.80534 16.7458 6.78421 16.8374 6.78421 17.2812C6.78421 17.725 6.80534 17.8165 6.98144 18.0419C7.24208 18.3871 7.48158 18.4998 8.17894 18.6266C8.98197 18.7675 9.19329 18.7534 9.28487 18.5843C9.47506 18.2321 9.28487 18.1194 8.26347 17.9504C7.73516 17.8658 7.59428 17.7954 7.46749 17.5489C7.33365 17.3023 7.36887 17.1262 7.58724 16.8797L7.79152 16.6472L8.97493 16.767C10.264 16.9008 10.3415 16.8867 10.3415 16.5345C10.3415 16.2668 10.2429 16.2316 9.14398 16.1259C8.65794 16.0766 8.18599 16.0273 8.08737 16.0132C7.98875 15.9992 7.81969 16.0132 7.69994 16.0414Z" fill="#000F28"/>
<path d="M7.88984 17.2986C7.91098 17.3973 8.13639 17.4677 9.07325 17.6508C9.71427 17.7776 10.2778 17.8622 10.3271 17.8481C10.3694 17.834 10.4116 17.7354 10.4116 17.6438C10.4116 17.4325 10.4328 17.4395 9.20005 17.2846C8.01664 17.1437 7.86167 17.1437 7.88984 17.2986Z" fill="#000F28"/>
<path d="M30.0506 17.3248C29.9731 17.3671 29.9238 17.4798 29.9238 17.5995C29.9238 17.7263 29.9731 17.832 30.0506 17.8672C30.114 17.9095 30.7198 17.9729 31.396 18.0222C32.5161 18.1067 32.6288 18.1278 32.819 18.2828C33.1078 18.5294 33.1007 18.8604 32.8049 19.107C32.6076 19.276 32.5513 19.2901 32.0864 19.2549C31.8046 19.2338 31.4947 19.1985 31.396 19.1845C31.1706 19.1492 30.91 19.3183 30.91 19.5014C30.91 19.7691 31.0861 19.8325 31.9596 19.8889C32.7626 19.9382 32.819 19.9311 33.1078 19.7762C33.5515 19.5226 33.7276 19.2197 33.7276 18.6914C33.7276 18.318 33.6995 18.2124 33.5234 17.9729C33.2346 17.5784 32.9176 17.4798 31.6496 17.3882C31.072 17.3459 30.5014 17.3037 30.3817 17.2825C30.269 17.2685 30.114 17.2825 30.0506 17.3248Z" fill="#000F28"/>
<path d="M30.5998 18.508C30.5716 18.5433 30.5787 18.5926 30.6139 18.6137C30.7054 18.6701 32.5299 18.818 32.5792 18.7757C32.6848 18.6701 32.4735 18.5996 31.917 18.5573C31.5719 18.5292 31.1492 18.494 30.9731 18.4728C30.7829 18.4517 30.628 18.4658 30.5998 18.508Z" fill="#000F28"/>
<path d="M8.05205 19.0174C7.12927 19.0949 6.87568 19.1724 6.61505 19.4682C6.31215 19.8205 6.20649 20.2079 6.31215 20.6094C6.42486 21.0109 6.57279 21.2152 6.91795 21.4124C7.17153 21.5533 7.24902 21.5603 8.03091 21.5251C8.91847 21.4829 9.07344 21.4265 9.07344 21.1588C9.07344 20.863 8.92551 20.8207 8.09431 20.8771C7.3265 20.9264 7.31946 20.9264 7.14336 20.7503C6.96021 20.5671 6.9109 20.2854 7.00248 20.0318C7.08701 19.8134 7.41808 19.7289 8.54513 19.6444C9.16501 19.595 9.72854 19.5246 9.79898 19.4894C9.89056 19.4401 9.91873 19.3626 9.90464 19.2006L9.88351 18.9752L9.31998 18.9681C9.01004 18.9611 8.43947 18.9822 8.05205 19.0174Z" fill="#000F28"/>
<path d="M8.15736 20.1425C7.47408 20.213 7.38251 20.2411 7.38251 20.3538C7.38251 20.4172 7.5727 20.4243 8.10805 20.3891C9.10127 20.3186 9.35485 20.2764 9.35485 20.1637C9.35485 20.051 9.10127 20.051 8.15736 20.1425Z" fill="#000F28"/>
</svg>
