<svg width="40" height="40" viewBox="0 0 40 40" fill="none" xmlns="http://www.w3.org/2000/svg">
<path d="M17.8203 0.461575C17.6875 0.594387 17.6719 0.7897 17.6406 2.89907C17.6016 5.0397 17.5859 5.25064 17.3984 5.94595C17.0938 7.11782 16.7422 7.71939 15.8906 8.57095C15.3203 9.14126 15.1562 9.3522 15.1562 9.51626C15.1562 10.1491 15.7422 10.2741 16.3438 9.77407C17.4766 8.84439 18.1484 7.76626 18.5078 6.32095C18.7422 5.36782 18.8281 4.39907 18.8281 2.45376C18.8281 0.82095 18.8203 0.711575 18.6641 0.516262C18.4688 0.266262 18.0469 0.235012 17.8203 0.461575Z" fill="#000F28"/>
<path d="M21.1328 0.436972C20.9844 0.546347 20.9766 0.647909 20.9766 2.87447C20.9766 4.81197 21 5.30416 21.1172 5.85885C21.4062 7.21041 21.9766 8.34322 22.7734 9.17916C23.6406 10.0854 24.1016 10.2807 24.4531 9.90572C24.7109 9.62447 24.6562 9.3276 24.2812 8.99947C23.1641 8.0151 22.6719 7.24166 22.3281 5.89791C22.1875 5.35885 22.1641 4.96822 22.1328 2.9526C22.0938 0.796347 22.0859 0.624472 21.9453 0.476034C21.7656 0.280722 21.3594 0.265097 21.1328 0.436972Z" fill="#000F28"/>
<path d="M7.875 7.00758C7.6875 7.21851 7.64062 7.4607 7.74219 7.67945C7.83594 7.88258 8.00781 7.97633 8.55469 8.11695C8.97656 8.23414 9.57812 8.5857 10 8.97633L10.3516 9.30445L10.0391 9.26539C9.86719 9.24195 9.03906 9.19508 8.1875 9.17164L6.65625 9.11695L6.45312 9.32008C6.20312 9.57008 6.19531 9.87476 6.42969 10.1091C6.60156 10.281 6.67969 10.2888 8.20312 10.3357C9.08594 10.367 9.94531 10.4216 10.1172 10.4529L10.4297 10.5154L9.89844 10.8123C8.94531 11.3435 7.82031 11.617 6.17187 11.6951C5.60156 11.7185 5.10937 11.781 4.98437 11.8435C4.69531 11.992 4.61719 12.3748 4.82812 12.6482C4.97656 12.8435 5 12.8513 5.82812 12.8513C8.33594 12.8513 10.25 12.2576 11.5234 11.0857L11.8359 10.7966L12.3828 10.9763C13.6406 11.3904 14.6797 11.9841 15.5312 12.7732C16.6875 13.8435 17.3516 15.0388 17.7891 16.867C17.9922 17.6873 17.9922 17.742 18.0391 21.7654L18.0859 25.8357L18.3203 26.2185C19.0703 27.4216 20.8047 27.3904 21.4219 26.1716L21.6406 25.742L21.6484 22.617C21.6641 18.1404 21.7422 17.3201 22.2734 15.7888C23.0625 13.4998 24.8437 11.8123 27.3359 10.9841L27.9219 10.7966L28.3516 11.1795C29.5 12.2107 31.2344 12.7576 33.6719 12.867C34.6406 12.906 34.7344 12.8982 34.8594 12.7654C35.0156 12.5857 35.0469 12.3748 34.9766 12.0935C34.9062 11.8279 34.5937 11.7185 33.9141 11.7185C32.375 11.7185 30.6562 11.3201 29.7266 10.7498L29.3359 10.5076L29.6484 10.4529C29.8203 10.4138 30.6797 10.367 31.5547 10.3357C33.0859 10.2888 33.1641 10.281 33.3359 10.1091C33.5703 9.87476 33.5625 9.57008 33.3125 9.32008L33.1094 9.11695L31.5781 9.17164C30.7266 9.19508 29.8984 9.24195 29.7266 9.26539L29.4141 9.31226L29.7266 8.99195C30.0547 8.6482 31.1484 8.04664 31.4375 8.04664C31.875 8.04664 32.1875 7.56226 31.9922 7.19508C31.8047 6.82789 31.5391 6.78883 30.7656 7.03101C29.7656 7.3357 28.6328 8.23414 27.9844 9.23414C27.7812 9.54664 27.6406 9.68726 27.4844 9.71851C27.3594 9.74195 27.0781 9.84351 26.8516 9.94508C26.6328 10.0466 26.3047 10.1795 26.1328 10.2341C24.8281 10.656 23.2109 11.8982 22.3047 13.1638C21.5312 14.2576 21.0547 15.4529 20.6875 17.2263C20.6406 17.4451 20.5859 19.3826 20.5547 21.5779L20.5078 25.531L20.3203 25.7341C20.125 25.9373 19.9531 25.9763 19.625 25.8904C19.2266 25.781 19.2187 25.6716 19.2187 21.8982C19.2187 18.0935 19.1641 17.406 18.7812 16.0154C18.1328 13.7029 16.6875 11.8357 14.6797 10.7107C14.4297 10.5701 14.1719 10.4529 14.0937 10.4295C13.9453 10.406 13.4453 10.1951 12.8516 9.91383C12.6797 9.8357 12.4219 9.74976 12.2891 9.71851C12.1016 9.67945 11.9687 9.55445 11.6953 9.1482C10.9687 8.09351 9.99219 7.32789 8.97656 7.03101C8.33594 6.8357 8.03125 6.8357 7.875 7.00758Z" fill="#000F28"/>
<path d="M7.26562 13.1794C6.71094 13.2497 6.54687 13.3044 6.40625 13.4528C6.20312 13.6715 6.21094 14.0231 6.41406 14.2262C6.57031 14.3825 6.63281 14.3903 7.49219 14.3356C8.35937 14.2809 9.60937 14.3981 9.60937 14.5231C9.60937 14.5465 9.375 14.695 9.08594 14.8434C8.41406 15.1872 7.89062 15.6794 7.89062 15.9684C7.89062 16.234 8.21094 16.5622 8.46094 16.5622C8.5625 16.5622 8.78906 16.4528 8.95312 16.32C9.25781 16.0778 9.96094 15.695 10.2969 15.5856C10.4687 15.5387 10.4766 15.5465 10.4297 15.7184C10.125 16.7965 9.6875 17.3825 8.85156 17.8044C8.17969 18.1403 8.03906 18.445 8.36719 18.859C8.47656 18.9997 8.60156 19.0622 8.76562 19.0622C9.375 19.0622 10.7187 18.0153 11.1172 17.2184C11.2266 16.9997 11.4141 16.4997 11.5312 16.109C11.7734 15.3044 11.7109 15.3434 12.5859 15.4684C13.4531 15.5934 13.8906 15.8278 14.7656 16.6247C15.2969 17.109 15.7188 17.8512 15.8984 18.6012C16.0625 19.3122 16.0703 25.8825 15.9062 26.2809C15.7656 26.6247 15.5859 26.7731 14.7812 27.2653C13.9453 27.7809 13.0078 28.7028 12.6719 29.3434C11.8359 30.945 12.1328 32.7887 13.4453 34.1481C14.1484 34.8669 15.1094 35.4762 16.25 35.9059C17.4609 36.359 17.5703 36.5622 17.5781 38.2106C17.5781 39.8122 17.3828 39.6872 19.8672 39.6872C21.4531 39.6872 21.875 39.6637 22 39.5778C22.1328 39.4762 22.1484 39.3356 22.1875 38.1481C22.2266 36.8356 22.2266 36.82 22.4453 36.5309C22.5703 36.3747 22.7813 36.195 22.9141 36.1325C23.0547 36.0778 23.5156 35.8903 23.9453 35.7106C25.625 35.0153 26.8438 33.859 27.3594 32.4528C27.6016 31.7887 27.6016 30.7028 27.3516 29.9762C26.9922 28.9294 25.9531 27.7887 24.7266 27.109C24.3359 26.8903 24.1172 26.7106 23.9688 26.4762L23.75 26.1403V22.5778C23.75 18.7184 23.7656 18.5544 24.1953 17.6559C24.4141 17.195 25.3359 16.2184 25.7422 16.0153C25.875 15.9528 26.0234 15.8512 26.0781 15.8044C26.2422 15.6481 27 15.4528 27.5156 15.445L27.9922 15.4294L28.1641 16.0231C28.3828 16.7731 28.6094 17.2497 28.9922 17.734C29.4688 18.3434 30.5469 19.0622 30.9766 19.0622C31.2031 19.0622 31.4609 18.8669 31.5156 18.6403C31.6016 18.2965 31.4453 18.07 30.9375 17.8122C30.3047 17.4919 29.9141 17.1247 29.625 16.5856C29.3359 16.0231 29.1953 15.5465 29.3203 15.5465C29.4922 15.5465 30.3906 16.0075 30.7578 16.2887C31.1875 16.6169 31.4219 16.6325 31.6953 16.359C31.8516 16.2028 31.8828 16.1169 31.8438 15.9215C31.8203 15.7887 31.75 15.6247 31.7031 15.5622C31.5625 15.3981 30.7422 14.8512 30.3828 14.6872C30.2031 14.6169 30.0938 14.5309 30.1328 14.5075C30.3516 14.3669 31.375 14.2887 32.2344 14.3356L33.1797 14.3903L33.3516 14.1794C33.5625 13.9059 33.5625 13.734 33.3438 13.4762C33.1875 13.2965 33.0703 13.2653 32.3984 13.1872C31.0234 13.0231 29.6328 13.2965 28.6875 13.8981C28.3047 14.1481 28.1484 14.2028 27.6563 14.2419C26.2891 14.359 25.1719 14.859 24.0391 15.859C23.7188 16.1403 23.1797 16.9919 22.9453 17.5778C22.5938 18.4684 22.5703 18.8512 22.5938 22.7731L22.6172 26.445L22.8516 26.9059C23.1172 27.4372 23.4531 27.7419 24.3125 28.2419C27.2656 29.9606 27.0313 32.9215 23.8125 34.4762C23.3281 34.7106 22.7734 34.945 22.5781 35.0075C22.3438 35.0778 22.0781 35.2575 21.7891 35.5465C21.1719 36.1481 21.0156 36.6012 21.0156 37.734V38.5934H19.8906H18.7656L18.7344 37.6325C18.6953 36.5309 18.5703 36.1637 18.0547 35.609C17.7422 35.2653 17.4688 35.1169 16.4609 34.734C16.1719 34.6169 15.7969 34.445 15.625 34.3356C15.4531 34.2262 15.2812 34.1403 15.2422 34.1403C15.2031 34.1403 14.8906 33.8747 14.5469 33.5544C14.0938 33.1325 13.8594 32.8356 13.6641 32.445C13.4219 31.9606 13.3984 31.859 13.3984 31.2106C13.3984 30.5856 13.4219 30.4528 13.6328 30.0387C13.9531 29.4059 14.7656 28.6169 15.6016 28.1169C16.3984 27.6559 16.6562 27.3903 16.9453 26.7965L17.1484 26.3669V22.5387C17.1484 18.2809 17.1484 18.3044 16.625 17.1872C16.3594 16.6403 16.1953 16.4059 15.6328 15.859C14.6484 14.8825 13.5391 14.3747 12.125 14.2497C11.6406 14.2028 11.4531 14.1403 11.0625 13.9059C10.7969 13.7497 10.3906 13.5465 10.1484 13.4528C9.42187 13.1872 8.19531 13.07 7.26562 13.1794Z" fill="#000F28"/>
<path d="M8.1875 1.56346C7.0625 1.76658 5.99219 2.24314 5.03906 2.96189C3.16406 4.37596 1.78125 6.61814 1.10156 9.35252C0.796875 10.5713 0.742187 11.1025 0.75 12.8135C0.75 14.3369 0.773437 14.5869 0.960937 15.4775C1.07812 16.0244 1.28125 16.7744 1.40625 17.1572C2.53906 20.501 5.0625 22.9306 8.07031 23.5635C8.75781 23.7041 9.96875 23.7041 10.6562 23.5556C12.0312 23.2666 13.2969 22.3056 13.9062 21.0947C14.3047 20.2978 14.4141 19.7666 14.4141 18.6338C14.4141 17.7353 14.3828 17.3994 14.2266 16.7666L14.0312 15.9931L13.6094 15.8056C13.375 15.7041 13.0781 15.5947 12.9531 15.5713C12.7422 15.5322 12.7344 15.5322 12.7812 15.79C12.8125 15.9385 12.9375 16.4619 13.0547 16.9541C13.4609 18.5791 13.3359 19.8056 12.6641 20.8291C11.9141 21.9775 10.8984 22.501 9.42188 22.501C7.82812 22.4931 6.38281 21.9072 5.07031 20.7275C4.39062 20.1103 4.07812 19.751 3.63281 19.0635C2.53906 17.3838 1.98437 15.5166 1.89844 13.2431C1.76562 9.73533 2.88281 6.63377 5.01562 4.56346C6.96875 2.67283 9.21094 2.16502 11.2969 3.15721C12.2188 3.59471 12.9062 4.35252 13.2734 5.34471C13.6562 6.38377 13.6484 7.58689 13.2344 9.07908C13.1328 9.45408 13.0469 9.80564 13.0469 9.86814C13.0469 9.95408 14.0469 10.4385 14.1016 10.376C14.1094 10.3603 14.2344 9.91502 14.375 9.37596C14.7266 8.04002 14.7891 6.56346 14.5391 5.51658C14.2969 4.50096 13.9219 3.82908 13.1641 3.08689C12.4609 2.39158 11.7891 2.00877 10.7812 1.71971C10.125 1.54002 8.76562 1.45408 8.1875 1.56346Z" fill="#0E82FD"/>
<path d="M29.9609 1.5554C28.6484 1.76633 27.6719 2.2429 26.8359 3.08665C25.75 4.16477 25.3047 5.34446 25.3047 7.0554C25.3125 8.00852 25.3672 8.39915 25.6719 9.54758L25.8828 10.3054L26.2812 10.1413C26.5 10.0554 26.7422 9.96165 26.8203 9.94602C26.9844 9.89915 26.9922 9.97727 26.7656 9.07883C26.6562 8.66477 26.5312 8.02415 26.4844 7.65696C26.2188 5.71165 27.0781 3.96165 28.6719 3.17258C29.2891 2.87571 30.2109 2.65696 30.8672 2.65696C31.9062 2.65696 33.2344 3.14133 34.1953 3.86008C36.1562 5.33665 37.3594 7.4929 37.9766 10.6257C38.0391 10.946 38.0781 11.7507 38.0781 12.7741C38.0781 14.1726 38.0469 14.532 37.8984 15.2351C37.6094 16.5866 37.1484 17.8132 36.5391 18.8288C36.3203 19.2038 35.5703 20.1413 35.2344 20.4616C32.9062 22.7116 29.6562 23.1882 27.9062 21.532C27.4766 21.1257 27.0859 20.5398 26.9062 20.0398C26.6875 19.3991 26.6719 18.1648 26.875 17.2663C27.1953 15.907 27.2656 15.5241 27.2344 15.4851C27.1562 15.407 26.0938 15.7898 26.0312 15.9226C25.9922 15.9929 25.875 16.3679 25.7734 16.7585C25.6172 17.3445 25.5859 17.6491 25.5859 18.5945C25.5859 19.571 25.6094 19.7976 25.7656 20.2663C26.3359 21.9695 27.5234 23.0945 29.2031 23.5241C30.7031 23.907 32.6719 23.5866 34.1797 22.7116C36.7734 21.2116 38.4609 18.6179 39.1094 15.1179C39.2891 14.1648 39.3125 11.4773 39.1484 10.5476C38.3672 6.00852 35.8281 2.65696 32.4609 1.71165C31.8516 1.53977 30.5625 1.46165 29.9609 1.5554Z" fill="#0E82FD"/>
</svg>
