<svg width="37" height="37" viewBox="0 0 37 37" fill="none" xmlns="http://www.w3.org/2000/svg">
<path d="M15.1514 0.15625C14.9951 0.3125 14.9951 0.421875 14.9951 7.67188C14.9873 19.3125 14.9639 21.2188 14.8233 21.6797C14.3389 23.2734 13.2295 24.3828 11.6748 24.8203C11.417 24.8984 10.6826 24.9453 9.53421 24.9766C7.97171 25.0156 7.76859 25.0391 7.64359 25.1641C7.51077 25.2969 7.49515 25.4531 7.49515 26.875C7.49515 28.3516 7.50296 28.4453 7.65921 28.6016C7.81546 28.7578 7.87796 28.7656 9.94046 28.7344C12.417 28.6953 12.7373 28.6328 14.1592 27.9453L15.003 27.5312L14.9795 30.5C14.9561 33.3359 14.9483 33.4922 14.792 33.8281C14.5811 34.2734 14.2686 34.5859 13.8233 34.7969C13.4951 34.9453 13.3155 34.9609 11.2451 34.9844L9.01859 35.0078L9.00296 34.4297C8.98734 33.7812 8.79984 33.2266 8.34671 32.4375C7.99515 31.8438 6.47171 30.3203 5.99515 30.0938C5.65921 29.9297 5.61234 29.9219 5.36234 30.0234C5.0264 30.1719 4.87015 30.5234 5.01859 30.8594C5.06546 30.9766 5.38577 31.2969 5.7139 31.5547C7.0264 32.6094 7.84671 33.9375 7.67484 34.7656L7.62796 35.0078L5.19827 34.9844C2.92484 34.9609 2.74515 34.9531 2.41702 34.7969C1.97171 34.5859 1.65921 34.2734 1.44827 33.8281C1.29202 33.4922 1.28421 33.3438 1.26077 29.9219C1.22952 26.0703 1.31546 24.2656 1.55765 23.1719C1.64359 22.7812 1.7139 22.3594 1.7139 22.2266C1.7139 21.8984 1.43265 21.6406 1.08109 21.6406C0.588898 21.6484 0.456085 21.8672 0.182648 23.1641C0.0420227 23.8125 0.0342102 24.2578 0.0342102 28.9453V34.0234L0.260773 34.4922C0.557648 35.0938 1.1514 35.6875 1.75296 35.9844L2.22171 36.2109H8.12015H14.0186L14.4873 35.9844C15.0889 35.6875 15.6826 35.0938 15.9795 34.4922L16.2061 34.0234L16.2295 30.2812L16.253 26.5391L16.667 26.0859C17.1045 25.6094 17.6983 24.7656 17.9326 24.2734C18.0108 24.1172 18.0967 23.9844 18.1201 23.9844C18.1436 23.9844 18.2295 24.1172 18.3076 24.2734C18.542 24.7656 19.1358 25.6094 19.5733 26.0859L19.9873 26.5391L20.0108 30.2812L20.0342 34.0234L20.2608 34.4922C20.5576 35.0938 21.1514 35.6875 21.753 35.9844L22.2217 36.2109H28.1201H34.0186L34.4873 35.9844C35.0889 35.6875 35.6826 35.0938 35.9795 34.4922L36.2061 34.0234V28.9062C36.2061 23.875 36.2061 23.7734 36.0264 22.9922C34.8701 17.7344 30.9639 13.8359 25.753 12.7188C25.1123 12.5859 24.6826 12.5469 23.5889 12.5469L22.2217 12.5391L21.7373 12.7891L21.2451 13.0312V6.67188C21.2451 0.414062 21.2451 0.3125 21.0889 0.15625C20.9873 0.0546875 20.8311 0 20.6201 0C20.4092 0 20.253 0.0546875 20.1514 0.15625C20.0108 0.296875 19.9951 0.414062 19.9951 1.40625V2.5H18.1201H16.2451V1.40625C16.2451 0.414062 16.2295 0.296875 16.0889 0.15625C15.9873 0.0546875 15.8311 0 15.6201 0C15.4092 0 15.253 0.0546875 15.1514 0.15625ZM19.9951 4.375V5H18.1201H16.2451V4.375V3.75H18.1201H19.9951V4.375ZM19.9951 6.875V7.5H18.1201H16.2451V6.875V6.25H18.1201H19.9951V6.875ZM19.9951 15.1016C19.9951 21.1719 20.003 21.4844 20.1514 22.0625C20.6436 24 22.2451 25.6016 24.1826 26.0938C24.667 26.2188 25.0498 26.25 26.1436 26.25H27.4951V26.8906V27.5234L26.1123 27.4766C24.4639 27.4141 23.7373 27.2656 22.6905 26.7656C20.8701 25.8984 19.4873 24.1953 18.9717 22.1875C18.8155 21.5625 18.7998 21.2969 18.7686 17.7812C18.7295 14.2422 18.7217 14.0391 18.5811 13.8984C18.378 13.6953 17.8623 13.6953 17.6592 13.8984C17.5186 14.0391 17.5108 14.2422 17.4717 17.7812C17.4405 21.2969 17.4248 21.5625 17.2686 22.1875C16.7608 24.1797 15.3936 25.8672 13.5655 26.7578C12.5264 27.2578 11.792 27.4141 10.1358 27.4766L8.74515 27.5234V26.8906V26.25H10.0967C11.6983 26.25 12.292 26.1328 13.2998 25.6094C14.1905 25.1484 15.1436 24.1953 15.6045 23.3047C16.2686 22.0234 16.2451 22.3047 16.2451 15.1016V8.75H18.1201H19.9951V15.1016ZM25.6826 14.0938C26.378 14.25 27.8858 14.7578 28.0342 14.8906C28.0498 14.9062 27.9014 15.2344 27.7061 15.6094C27.0733 16.8594 26.9405 18.1875 27.3389 19.25C27.5655 19.8438 27.7295 20 28.1201 20C28.7373 20 28.878 19.6094 28.5889 18.6875C28.503 18.4141 28.4326 18.0625 28.4326 17.8984C28.4326 17.3359 28.7217 16.4766 29.1358 15.7969L29.292 15.5391L29.9014 15.9531C30.7686 16.5469 32.2842 18.0859 32.878 18.9844C33.7764 20.3281 34.4092 21.8125 34.7139 23.2812C34.917 24.2422 35.003 26.1953 34.9795 29.2188L34.9561 32.0703L34.4951 31.6406C33.7139 30.9141 33.3936 29.9844 33.5967 29.0234C33.7764 28.1406 33.7764 27.8438 33.5967 27.6641C33.417 27.4844 32.9795 27.4453 32.7295 27.5781C32.292 27.8125 32.0655 29.8594 32.3701 30.7812C32.7061 31.7891 33.4248 32.6719 34.378 33.2422C34.6514 33.4062 34.8858 33.5469 34.9014 33.5625C34.9639 33.6094 34.5889 34.2031 34.3545 34.4297C33.792 34.9688 33.9092 34.9609 29.4561 34.9844L25.4483 35.0078L25.503 34.7891C25.5967 34.4141 25.5498 33.2656 25.4248 32.7734C25.253 32.1328 24.9248 31.4141 24.753 31.3281C24.5108 31.1953 24.0733 31.2344 23.8936 31.4141C23.6826 31.625 23.7217 32 24.0186 32.8047C24.2686 33.4922 24.3076 34.25 24.1045 34.7188L23.9795 35.0234L23.3467 34.9766C22.3467 34.8984 21.792 34.5625 21.4483 33.8281C21.292 33.4922 21.2842 33.3359 21.2608 30.5L21.2373 27.5312L22.0811 27.9453C23.503 28.6328 23.8233 28.6953 26.2998 28.7344C28.3623 28.7656 28.4248 28.7578 28.5811 28.6016C28.7373 28.4453 28.7451 28.3516 28.7451 26.875C28.7451 25.4531 28.7295 25.2969 28.5967 25.1641C28.4717 25.0391 28.2686 25.0156 26.7061 24.9766C24.917 24.9297 24.542 24.875 23.8233 24.5547C22.9639 24.1719 22.0655 23.2578 21.6748 22.3828C21.3076 21.5547 21.2842 21.3047 21.2842 18.2422C21.2842 15.0391 21.292 14.9688 21.7764 14.4375C22.1045 14.0703 22.4248 13.8906 22.8467 13.8359C23.378 13.7578 24.7686 13.8828 25.6826 14.0938Z" fill="#000F28"/>
<path d="M5.77639 8.92188C3.07326 9.30469 0.682637 11.5703 0.112324 14.2969C-0.036113 14.9922 -0.036113 16.5078 0.104512 17.1875C0.627949 19.6641 2.46389 21.6328 4.9717 22.3984C5.58889 22.5859 5.77639 22.6094 6.87014 22.6094C7.96389 22.6094 8.15139 22.5859 8.76857 22.3984C11.2686 21.6328 13.1123 19.6562 13.6358 17.1875C13.7764 16.5078 13.7764 14.9922 13.6279 14.2969C12.8779 10.7344 9.46389 8.39844 5.77639 8.92188ZM8.48732 11.5938C8.70607 11.7812 8.70607 11.7891 8.72951 12.8438L8.76076 13.9062H9.76076C10.7139 13.9062 10.7764 13.9141 10.9873 14.0938L11.2061 14.2812V15.7266C11.2061 17.1484 11.2061 17.1797 11.0186 17.375C10.8311 17.5703 10.8076 17.5781 9.79201 17.5781H8.76076L8.72951 18.625C8.70607 19.6094 8.69045 19.6875 8.51857 19.875L8.33107 20.0781H6.87014H5.4092L5.2217 19.875C5.04982 19.6875 5.0342 19.6094 5.01076 18.625L4.97951 17.5781H3.94826C2.93264 17.5781 2.9092 17.5703 2.7217 17.375C2.5342 17.1797 2.5342 17.1484 2.5342 15.7266V14.2812L2.75295 14.0938C2.96389 13.9141 3.02639 13.9062 3.97951 13.9062H4.97951L5.01076 12.8438C5.0342 11.7891 5.0342 11.7812 5.25295 11.5938C5.46389 11.4141 5.50295 11.4062 6.87014 11.4062C8.23732 11.4062 8.27639 11.4141 8.48732 11.5938Z" fill="#0E82FD"/>
<path d="M6.22952 13.625C6.20609 14.6094 6.19046 14.6875 6.01859 14.875C5.83109 15.0703 5.80765 15.0781 4.78421 15.0781H3.74515V15.7422V16.4062H4.75296C5.7139 16.4062 5.7764 16.4141 5.98734 16.5938C6.20609 16.7812 6.20609 16.7891 6.22952 17.8438L6.26077 18.9062H6.87015H7.47952L7.51077 17.8438C7.53421 16.7891 7.53421 16.7812 7.75296 16.5938C7.9639 16.4141 8.0264 16.4062 8.98734 16.4062H9.99515V15.7422V15.0781H8.95609C7.93265 15.0781 7.90921 15.0703 7.72171 14.875C7.54984 14.6875 7.53421 14.6094 7.51077 13.625L7.47952 12.5781H6.87015H6.26077L6.22952 13.625Z" fill="#0E82FD"/>
</svg>
