<svg width="40" height="40" viewBox="0 0 40 40" fill="none" xmlns="http://www.w3.org/2000/svg">
<path d="M20.7541 13.1813L13.4731 10.5371L14.0594 15.8593L17.6937 17.3895H22.6669L26.6837 15.8593V10.695L20.7541 13.1813Z" fill="#0E82FD"/>
<path d="M12.9297 1.03906C12.5157 1.14844 11.8672 1.80469 11.7344 2.23438C11.6797 2.41406 11.6407 2.67969 11.6407 2.82031C11.6407 3.07031 12.6875 8.98438 12.7735 9.19531C12.7969 9.26562 12.7188 9.29688 12.5078 9.29688C12.1797 9.29688 11.9532 9.42969 10.9297 10.2344C9.38284 11.4453 7.82034 13.2344 6.92971 14.8125C4.77346 18.625 4.50784 23.8047 6.21878 28.6797C6.60159 29.7812 7.47659 31.5703 7.91409 32.1641C9.24221 33.9453 11.836 34.8203 13.961 34.1953L14.6016 34.0078L14.6485 34.6016C14.7657 36.0703 14.8438 36.5156 15.0625 36.9844C15.3594 37.625 15.8985 38.1562 16.5469 38.4609L17.0703 38.7109H20H22.9297L23.4453 38.4609C24.0782 38.1484 24.6172 37.5938 24.9297 36.9297C25.125 36.5 25.1719 36.2891 25.2422 35.3438C25.2891 34.75 25.336 34.1797 25.3594 34.0938L25.3907 33.9219L25.8985 34.1094C26.8672 34.4609 28.2032 34.4922 29.2813 34.1797C30.2813 33.8828 31.4532 33.125 32.0703 32.3672C33.2657 30.8984 34.4453 27.6953 34.8985 24.7109C35.0469 23.6875 35.0703 21.3047 34.9297 20.2344C34.3985 16.0625 32.5938 12.9297 29.1016 10.1406C28.1797 9.40625 27.9844 9.29688 27.6016 9.29688C27.2735 9.29688 27.25 9.28125 27.2891 9.11719C27.4532 8.44531 28.3594 3.07031 28.3594 2.75781C28.3594 2.00781 27.8516 1.3125 27.1016 1.05469C26.586 0.867188 26.1563 0.914062 25.3672 1.21875C23.1328 2.10156 21.6641 2.42969 20 2.42969C18.2813 2.42969 17.1875 2.17188 14.2422 1.08594C13.7969 0.921875 13.4141 0.90625 12.9297 1.03906ZM14.2266 2.5C15.0938 2.85938 16.6016 3.32812 17.5547 3.53125C18.2813 3.6875 18.6172 3.71094 20 3.71094C21.375 3.71094 21.7188 3.6875 22.4375 3.53125C23.4063 3.32812 24.7266 2.92188 25.7344 2.52344C26.5157 2.21094 26.7422 2.22656 26.9453 2.59375C27.0547 2.78125 27.0235 3.03906 26.5313 5.83594C26.2188 7.59375 25.9219 9.07031 25.8125 9.35938C25.2735 10.8125 24.1875 11.6953 22.3907 12.1484C20.4375 12.6406 17.9297 12.4531 16.3438 11.7031C15.4297 11.2734 14.5078 10.2266 14.1875 9.26562C14.0547 8.89062 12.9688 3.08594 12.9688 2.79688C12.9688 2.60156 13.3125 2.26562 13.5 2.26562C13.586 2.26562 13.9063 2.375 14.2266 2.5ZM29.4532 12.2422C31.1016 13.7969 32.3516 15.7031 33.0078 17.6875C34.2657 21.4688 33.8203 26.1172 31.8047 30.2344C31.4375 30.9922 31.2735 31.2266 30.7813 31.7188C29.8516 32.6562 28.8828 33.0703 27.6563 33.0703C26.8672 33.0703 26.125 32.8438 25.4453 32.3906C24.4922 31.7578 23.4219 30.375 22.8828 29.0703C22.5703 28.3125 22.3985 28.125 22.0313 28.125C21.4766 28.125 21.211 28.5547 21.4375 29.0938L21.5547 29.375L21.2266 29.3203C20.8047 29.2422 19.4453 29.2422 18.961 29.3125C18.6094 29.3672 18.5938 29.3672 18.6719 29.2266C18.8047 28.9688 18.7657 28.4531 18.5938 28.2812C18.4375 28.125 18.0391 28.0703 17.7813 28.1719C17.711 28.1953 17.4453 28.6562 17.1953 29.1875C16.9375 29.7188 16.5469 30.4141 16.3282 30.7344C14.461 33.4375 11.4844 33.8672 9.37503 31.7266C8.71878 31.0625 8.3594 30.4531 7.77346 28.9844C6.56253 25.9609 6.16409 22.8984 6.60159 19.9609C7.11721 16.5312 8.80471 13.6953 11.711 11.3594C12.1641 11 12.5391 10.7188 12.5625 10.7422C12.5782 10.7578 12.625 11.2266 12.6641 11.7734C12.836 14.3594 13.4219 16.9609 14.336 19.2969C14.711 20.2422 15.6094 22.0391 16.3125 23.25C17.0703 24.5547 17.3985 25.2188 17.461 25.5859C17.5391 26.0156 17.7735 26.25 18.125 26.25C18.6719 26.25 18.9063 25.8828 18.7578 25.2422L18.6875 24.9141L18.9766 24.9766C19.3438 25.0547 20.7422 25.0547 21.1172 24.9766L21.4141 24.9141L21.3672 25.3672C21.3203 25.7578 21.336 25.8516 21.4844 26.0312C21.8047 26.4453 22.6563 26.2344 22.6563 25.7422C22.6563 25.4062 22.8985 24.8828 23.7891 23.3281C25.6641 20.0234 26.5235 17.8047 27.1016 14.7578C27.2891 13.7656 27.5 11.8516 27.5 11.1328V10.6172L28.125 11.1016C28.4688 11.3672 29.0703 11.8828 29.4532 12.2422ZM26.0938 12.3906C25.961 13.7578 25.7969 14.6172 25.6407 14.7422C24.9219 15.3047 23.7422 15.9531 22.8125 16.3047C21.1094 16.9531 19.0391 16.9688 17.3203 16.3516C16.6328 16.1094 15.25 15.3984 14.7578 15.0469C14.4375 14.8047 14.3907 14.7344 14.3125 14.3203C14.2266 13.8984 13.9844 11.9688 13.9844 11.7266C13.9844 11.6641 14.125 11.75 14.3203 11.9297C15.6172 13.125 17.5703 13.75 19.9922 13.75C21.1719 13.75 22.1172 13.6172 23.1641 13.3203C24.3672 12.9688 25.0313 12.6016 25.7422 11.8828C25.9532 11.6719 26.1407 11.5078 26.1563 11.5156C26.1641 11.5312 26.1407 11.9297 26.0938 12.3906ZM25.2735 16.7344C24.9922 17.6406 24.8047 18.2031 24.711 18.3828C24.5938 18.6094 23.75 19.0781 22.8125 19.4297C21.4375 19.9531 19.7657 20.0703 18.3203 19.7656C17.4688 19.5781 17.2032 19.6172 17.0391 19.9688C16.6407 20.8516 17.5313 21.2109 20.0782 21.2109C21.6172 21.2031 22.0547 21.1328 23.3282 20.6719L23.836 20.4844L23.586 20.9297C22.625 22.6641 22.5391 22.7969 22.2188 23C21.8047 23.2656 21.1094 23.5 20.461 23.6016C19.5782 23.7344 18.3203 23.3516 17.6875 22.7578C17.086 22.1953 15.5782 19.0625 15 17.1719L14.8594 16.7266L15.461 17.0234C18.375 18.4922 21.625 18.5 24.4532 17.0469C25.2891 16.6172 25.3203 16.6016 25.2735 16.7344ZM21.1719 30.7891C21.8828 30.9453 22.5313 31.3125 22.836 31.7188C23.0547 32.0078 23.0938 32.1016 23.0078 32.1406C22.9453 32.1641 22.5 32.2422 22.0157 32.3125C21.3282 32.4141 20.7657 32.4297 19.4922 32.4062C17.8594 32.3672 17.8594 32.3672 17.6719 32.5547C17.4063 32.8203 17.4532 33.3203 17.7578 33.5469C17.9688 33.7031 18.0703 33.7109 19.9844 33.7109C21.7578 33.7109 22.0938 33.6875 22.8516 33.5312C23.3282 33.4375 23.7891 33.3359 23.8907 33.3125C24.0469 33.2656 24.0625 33.2891 24.0547 33.6016C24.0313 34.3438 24 34.3906 23.3985 34.5469C22.1953 34.8516 21.2188 34.9453 19.4922 34.9062C17.8594 34.8672 17.8594 34.8672 17.6719 35.0547C17.4063 35.3203 17.4532 35.8203 17.7578 36.0469C17.9688 36.2031 18.0703 36.2109 19.9844 36.2109C21.9532 36.2031 22.7188 36.1328 23.6563 35.8672C23.7891 35.8281 23.9063 35.8047 23.9063 35.8125C23.9063 35.8281 23.8516 35.9922 23.7891 36.1797C23.6172 36.6719 23.3203 37.0078 22.8672 37.25L22.461 37.4609H20C17.5782 37.4609 17.5313 37.4609 17.1719 37.2812C16.7344 37.0625 16.2813 36.5625 16.1641 36.1719C16.125 36.0234 16.0391 35.2969 15.9844 34.5703L15.8828 33.2422L16.2578 32.9062C16.461 32.7266 16.8125 32.3438 17.0469 32.0469C17.2735 31.7578 17.5157 31.4766 17.5782 31.4297C17.7969 31.25 18.4688 30.9453 18.9063 30.8281C19.4063 30.6953 20.6641 30.6719 21.1719 30.7891Z" fill="#000F28"/>
</svg>
