<svg width="40" height="40" viewBox="0 0 40 40" fill="none" xmlns="http://www.w3.org/2000/svg">
<g clip-path="url(#clip0_425_44062)">
<circle cx="20" cy="3.36963" r="2.36377" fill="#0E82FD"/>
<path d="M7.70815 6.61022H13.9484L13.2389 4.2549L6.38437 3.39555L1.0896 1.88281L2.22417 5.66462L7.70815 6.61022Z" fill="#0E82FD"/>
<path d="M34.6297 6.46252L39.1133 4.04139L38.3063 2.15829L33.1503 3.41371L27.9494 4.04139L23.959 8.34562L34.6297 6.46252Z" fill="#0E82FD"/>
<path d="M18.8594 0.15625C18 0.460938 17.2656 1.14062 16.8594 2C16.2422 3.32031 16.6328 5.14062 17.7266 6.01562L18.0469 6.27344V7.03906V7.79688L17.6797 7.6875C17.0781 7.50781 16.25 7.07031 15.7422 6.66406C15.4844 6.45312 14.9531 5.88281 14.5547 5.39062C13.7266 4.36719 13.0938 3.79688 12.3359 3.39844C11.2188 2.8125 10.4453 2.64062 7.89062 2.41406C5.17969 2.17969 4.3125 2.01562 2.57812 1.4375C1.79688 1.17188 1.44531 1.09375 1.22656 1.11719C0.65625 1.19531 0.390625 1.625 0.390625 2.47656C0.398438 4.04688 1.04688 5.32812 2.23438 6.10938L2.73438 6.4375V7.07031C2.74219 7.8125 2.82812 8.23438 3.09375 8.79688C3.33594 9.30469 3.9375 9.98438 4.41406 10.2891C4.76562 10.5078 4.76562 10.5078 4.76562 10.9609C4.76562 11.5312 5.07031 12.4531 5.4375 13.0078C6.10938 14.0234 7.50781 14.9375 8.85938 15.2422C9.25781 15.3281 9.30469 15.3594 9.26562 15.5C9.00781 16.4453 9.02344 17.6016 9.29688 18.3984C9.51562 19.0312 10.0859 19.8594 10.6094 20.2812C11.2578 20.8125 11.9141 21.1641 13.6797 21.9219L15.2812 22.6094L14.6641 22.9844C13.5078 23.6875 12.8125 24.3047 12.8125 24.6172C12.8125 25.0391 13.2344 25.3828 13.6094 25.2656C13.7109 25.2344 13.9688 25.0625 14.1797 24.8828C14.6797 24.4609 15.5078 23.9297 16.2344 23.5625L16.8125 23.2734L17.5781 23.6094C18.0078 23.7891 18.3359 23.9609 18.3125 23.9766C18.2969 24 17.8359 24.2188 17.2969 24.4609C16.7578 24.7109 16.1172 25.0312 15.8828 25.1719C14.1641 26.2031 13.7969 27.625 14.9844 28.6797C15.6641 29.2812 16.4922 29.5938 20.7031 30.8203C25.0391 32.0859 25.7578 32.3594 26.5 33.0391C27.2734 33.75 27.6562 34.7578 27.4922 35.6562C27.3203 36.6172 26.6797 37.3906 25.75 37.7578C25.2109 37.9766 24.4531 38.1172 24.4531 37.9922C24.4531 37.9531 24.5781 37.7109 24.7422 37.4531C25.5078 36.2031 25.7656 35.5078 25.6641 34.8984C25.5312 34.1328 25.0781 33.5781 24.2734 33.1797C24.0469 33.0703 22.1953 32.4922 20.1562 31.8828C15.9375 30.6406 15.5391 30.5078 14.8438 30.1641C13.2969 29.3984 12.5781 28.4766 12.5781 27.25C12.5781 26.7031 12.4141 26.4844 12 26.4844C11.5391 26.4844 11.375 26.6953 11.3438 27.3281C11.2656 28.6641 12.0156 29.9062 13.4375 30.8281L14 31.1875L13.5625 31.4375C12.9609 31.7734 12.2656 32.4062 11.9141 32.9375C11.0234 34.2734 10.9844 36.0625 11.8047 37.3516C12.1406 37.875 12.7891 38.4609 13.3516 38.75C13.9141 39.0312 14.875 39.2969 15.3359 39.2969C16.1484 39.2969 16.7188 38.875 16.7812 38.2188C16.8281 37.7031 16.7109 37.3594 16.1953 36.5391C15.6406 35.6562 15.5078 35.2422 15.6562 34.8828C15.8281 34.4844 16.2109 34.2969 17.9062 33.7812C18.0234 33.75 18.0391 33.9453 18.0625 36.1875C18.0859 38.5234 18.0938 38.6484 18.2578 38.9453C18.6406 39.6484 19.2188 40 20.0156 40C20.5938 40 21.0234 39.8203 21.3828 39.4453C21.8984 38.9062 21.9141 38.8125 21.9375 36.1484L21.9609 33.7422L22.1328 33.7891C24.1484 34.3672 24.5859 34.7031 24.3438 35.4922C24.2812 35.6875 24.0469 36.1562 23.8047 36.5391C23.2969 37.3516 23.1719 37.7031 23.2188 38.2031C23.3047 39.1094 24.1172 39.4766 25.4219 39.1875C26.3047 38.9844 27.1484 38.5391 27.6797 37.9766C28.9922 36.6016 29.1562 34.5469 28.0703 32.9141C27.7266 32.3984 26.9688 31.7109 26.4297 31.4297C26.2031 31.3047 26.0156 31.1953 26.0156 31.1719C26.0156 31.1484 26.2031 31.0234 26.4219 30.8984C27 30.5625 27.8828 29.6562 28.1719 29.1016C28.7969 27.8984 28.7109 26.5703 27.9297 25.3438C27.3906 24.5 26.2578 23.4609 25.2109 22.8516C25 22.7344 24.8594 22.6094 24.8984 22.5703C24.9297 22.5391 25.6875 22.1953 26.5781 21.8047C28.7891 20.8438 29.4766 20.3906 30.1328 19.4688C30.8438 18.4844 31.0938 17.1875 30.8281 15.9453C30.7578 15.625 30.7109 15.3594 30.7266 15.3516C30.7344 15.3438 30.9922 15.2734 31.2891 15.1953C32.0547 14.9922 33.2344 14.375 33.7734 13.8984C34.6406 13.125 35.2344 11.9375 35.2344 10.9609C35.2344 10.5078 35.2344 10.5078 35.5859 10.2891C36.0625 9.98438 36.6641 9.30469 36.9062 8.79688C37.1719 8.23438 37.2578 7.8125 37.2656 7.07031V6.4375L37.7656 6.10938C38.6797 5.50781 39.2578 4.64844 39.4922 3.55469C39.7188 2.46875 39.6172 1.63281 39.2109 1.29688C38.875 1.00781 38.6172 1.03906 37.2891 1.48438C36.6562 1.69531 35.6797 1.95312 35.1172 2.05469C33.8984 2.28906 33.8672 2.29688 33.75 2.57031C33.5625 3.02344 33.8594 3.4375 34.3594 3.4375C34.7969 3.4375 36.5156 3.0625 37.4141 2.77344C37.8828 2.625 38.2812 2.5 38.3203 2.5C38.4219 2.5 38.2891 3.32812 38.1172 3.78906C37.9062 4.35156 37.3047 4.97656 36.6562 5.30469C35.7812 5.75 34.6641 5.97656 32.6641 6.11719C32.3359 6.14062 32.2031 6.19531 32.0938 6.32812C31.8906 6.57812 31.9141 6.92188 32.1562 7.16406L32.3594 7.36719L33.3516 7.3125C34.2188 7.26562 34.8828 7.17969 35.7734 6.98438L36.0391 6.92969L36 7.39844C35.9219 8.21875 35.4297 8.92969 34.6094 9.39844C33.9062 9.80469 32.25 10.1562 31.0703 10.1562C30.6953 10.1562 30.5859 10.1875 30.4297 10.3516C30.1641 10.6094 30.1641 11 30.4297 11.25C30.6172 11.4219 30.6562 11.4297 31.5 11.3828C32.3359 11.3359 33.5625 11.1641 33.8672 11.0391C33.9922 10.9922 34 11.0234 33.9531 11.25C33.7109 12.5 32.3906 13.6406 30.75 14.0391C30.2266 14.1641 30.2031 14.1641 30.125 14.0234C29.7891 13.4453 29.0078 12.5469 28.4375 12.0859C26.2109 10.2891 23.75 10.2422 23.2734 11.9844C23.2188 12.1719 23.2031 12.6172 23.2266 13.0703C23.2656 13.7578 23.25 13.8281 23.1406 13.7969C23.0625 13.7812 22.7734 13.7188 22.4844 13.6719L21.9531 13.5781V11.3281V9.07812L22.5078 8.94531C23.9453 8.59375 25.2969 7.66406 26.3281 6.32812C27.6328 4.625 28.7891 4.00781 31.1328 3.75C32 3.65625 32.2656 3.50781 32.2656 3.11719C32.2656 2.53906 31.9844 2.39844 31.0469 2.50781C29.4453 2.6875 28.4688 2.95312 27.5703 3.46094C26.7969 3.89844 26.2734 4.36719 25.4688 5.36719C25.0625 5.86719 24.5156 6.45312 24.2578 6.66406C23.75 7.07031 22.9219 7.50781 22.3281 7.6875L21.9531 7.79688V7.03906V6.27344L22.2734 6.01562C23.3984 5.11719 23.7656 3.27344 23.1016 1.92969C22.6641 1.04688 22 0.453125 21.1094 0.148438C20.5391 -0.046875 19.4219 -0.046875 18.8594 0.15625ZM20.8594 1.41406C21.6484 1.76562 22.1172 2.45312 22.1719 3.32031C22.2031 3.82031 22.1797 3.90625 21.9375 4.375C21.3516 5.50781 20.1484 5.90625 19.0078 5.34375C18.5312 5.11719 18.25 4.8125 17.9844 4.22656C17.8203 3.875 17.7969 3.72656 17.8281 3.28906C17.9141 2.10156 18.8203 1.25 20 1.25C20.3438 1.25 20.625 1.30469 20.8594 1.41406ZM4.375 3.23438C4.91406 3.34375 5.92969 3.48438 6.64062 3.55469C9.28125 3.79688 9.66406 3.84375 10.2734 3.98438C11.7578 4.32812 12.5156 4.86719 13.8047 6.48438C14.1016 6.84375 14.5859 7.35156 14.8828 7.60156C15.5156 8.13281 16.7344 8.75781 17.5234 8.95312L18.0469 9.07812V11.3281V13.5781L17.5234 13.6719C17.2266 13.7188 16.9375 13.7812 16.8594 13.7969C16.75 13.8281 16.7344 13.7578 16.7734 13.0703C16.8359 11.8984 16.6094 11.3125 15.9453 10.9453C14.5703 10.1875 11.8828 11.3125 10.4297 13.25C10.1719 13.5938 9.92188 13.9453 9.875 14.0312C9.78906 14.1797 9.77344 14.1797 9.25 14.0391C8.49219 13.8516 7.53906 13.3594 7.01562 12.8906C6.55469 12.4844 6.14844 11.7969 6.03906 11.2578C6 11.0234 6.00781 10.9922 6.13281 11.0391C6.4375 11.1641 7.66406 11.3359 8.5 11.3828C9.34375 11.4297 9.38281 11.4219 9.57031 11.25C9.83594 11 9.83594 10.6094 9.57031 10.3516C9.41406 10.1875 9.30469 10.1562 8.92969 10.1562C7.82031 10.1562 6.19531 9.82812 5.45312 9.44531C4.64844 9.03906 4.07812 8.22656 4 7.39844L3.96094 6.92969L4.22656 6.98438C5.11719 7.17969 5.78125 7.26562 6.64844 7.3125L7.64062 7.36719L7.84375 7.16406C8.08594 6.92188 8.10938 6.57812 7.90625 6.32812C7.78906 6.1875 7.66406 6.14062 7.29688 6.11719C7.04688 6.10156 6.48438 6.05469 6.05469 6.00781C3.29688 5.72656 1.85938 4.70312 1.66406 2.89844L1.61719 2.44531L2.50781 2.74219C3 2.90625 3.83594 3.125 4.375 3.23438ZM20.7031 13.4766V20.1172L20.3516 20.2578C20.0078 20.3984 19.9922 20.3984 19.6484 20.2578L19.2969 20.1172V13.4766V6.83594H20H20.7031V13.4766ZM15.3906 12.1094C15.6016 12.3203 15.6016 13.0156 15.3828 13.7109C15.1953 14.3281 14.7812 14.8281 14.2812 15.0391C12.9297 15.6094 12.6016 15.8281 12.3438 16.3359C12.1562 16.6875 12.1406 17.1641 12.2969 17.5391C12.4766 17.9688 13.1094 18.5781 13.7891 18.9766C14.1328 19.1797 16.0859 20.0781 18.125 20.9766C23.3984 23.2812 23.4844 23.3203 24.1797 23.7188C26.0938 24.8203 27.2109 26.1094 27.3203 27.3125C27.4141 28.3984 26.6562 29.3906 25.1484 30.1484L24.3203 30.5625L23.2891 30.2656L22.2578 29.9688L22.9844 29.7266C24.7891 29.125 25.7031 28.3047 25.7031 27.2969C25.6953 26.3672 25 25.5859 23.4766 24.8281C23.1797 24.6719 20.6562 23.5625 17.875 22.3594C15.1016 21.1562 12.6562 20.0781 12.4453 19.9766C10.3828 18.9297 9.79688 17.1641 10.8125 15.0391C11.2969 14.0156 11.9688 13.2734 13.0078 12.6172C13.9453 12.0156 15.0625 11.7812 15.3906 12.1094ZM26.0156 12.1328C27.7109 12.7344 29.125 14.3047 29.5781 16.0938C29.9453 17.5469 29.3359 18.9141 27.9375 19.7578C27.5 20.0234 23.4766 21.8125 23.3047 21.8203C23.1406 21.8281 21.6406 21.1406 21.7031 21.0859C21.7344 21.0547 22.6172 20.6484 23.6719 20.1875C25.9766 19.1719 26.4531 18.9141 27.0391 18.375C27.7812 17.6953 27.9922 16.9922 27.6562 16.3359C27.3984 15.8281 27.0703 15.6094 25.7188 15.0391C25.2188 14.8281 24.8047 14.3281 24.6172 13.7109C24.3984 13.0156 24.3984 12.3203 24.6094 12.1094C24.8203 11.8984 25.3672 11.9062 26.0156 12.1328ZM18.0469 17.1875C18.0469 18.4766 18.0312 19.5312 18.0234 19.5312C17.9375 19.5312 15.1875 18.3047 14.7266 18.0625C14.1797 17.7734 13.4375 17.1406 13.4375 16.9688C13.4375 16.8672 14.1094 16.4062 14.25 16.4062C14.4766 16.4062 15.3594 15.8984 15.7109 15.5703C16.1016 15.2031 16.125 15.1953 17.0156 15.0312C17.5234 14.9375 17.9531 14.8594 17.9922 14.8516C18.0234 14.8516 18.0469 15.8984 18.0469 17.1875ZM23.0469 15.0469C23.8516 15.1719 23.875 15.1797 24.2734 15.5625C24.6328 15.8984 25.5156 16.4062 25.75 16.4062C25.8906 16.4062 26.5625 16.8672 26.5625 16.9688C26.5625 17.1406 25.8203 17.7734 25.2734 18.0625C24.8125 18.3047 22.0625 19.5312 21.9766 19.5312C21.9688 19.5312 21.9531 18.4766 21.9531 17.1797C21.9531 14.9844 21.9609 14.8359 22.0938 14.875C22.1641 14.8984 22.5938 14.9688 23.0469 15.0469ZM20.3672 24.8125L20.7031 24.9453V27.0234V29.1094L20.3516 29.2031C20.0781 29.2734 19.9219 29.2734 19.6484 29.2031L19.2969 29.1094V27.0234V24.9453L19.5938 24.8203C19.9688 24.6641 19.9766 24.6641 20.3672 24.8125ZM18.0469 27.1406V28.7422L17.3438 28.5078C16.5547 28.2344 15.7422 27.75 15.6094 27.4609C15.4844 27.1875 15.6094 26.9531 16.0938 26.5703C16.4609 26.2812 17.8125 25.5469 17.9766 25.5469C18.0156 25.5469 18.0469 26.25 18.0469 27.1406ZM22.9219 25.9609C23.6484 26.3359 24.2656 26.8047 24.3906 27.0781C24.4531 27.2188 24.4531 27.3203 24.3906 27.4609C24.2578 27.75 23.4453 28.2344 22.6562 28.5078L21.9531 28.7422V27.1406V25.5391L22.1328 25.5859C22.2266 25.6172 22.5859 25.7891 22.9219 25.9609ZM16.7812 32.1953C17.2578 32.3359 17.6562 32.4766 17.6562 32.5C17.6562 32.5312 17.3125 32.6484 16.8984 32.7656C15.0469 33.2969 14.3438 33.9766 14.3438 35.2031C14.3516 35.6875 14.3906 35.8438 14.6328 36.3359C14.7891 36.6562 15.0547 37.1406 15.2344 37.4141C15.4062 37.6953 15.5469 37.9531 15.5469 37.9922C15.5469 38.1172 14.7891 37.9766 14.25 37.7578C13.3047 37.3828 12.6797 36.6328 12.5078 35.6484C12.2812 34.4297 13.0312 33.1406 14.3906 32.4219C14.9688 32.1094 15.625 31.8672 15.7812 31.9062C15.8438 31.9219 16.2969 32.0469 16.7812 32.1953ZM20.4609 33.2891L20.7109 33.375L20.6875 35.8594L20.6641 38.3438L20.4766 38.5469C20.2109 38.8281 19.7891 38.8281 19.5234 38.5469L19.3359 38.3438L19.3125 35.8594L19.2891 33.375L19.5078 33.2969C19.8047 33.1875 20.1562 33.1875 20.4609 33.2891Z" fill="#151515"/>
</g>
<defs>
<clipPath id="clip0_425_44062">
<rect width="40" height="40" fill="white"/>
</clipPath>
</defs>
</svg>
