<svg width="40" height="40" viewBox="0 0 40 40" fill="none" xmlns="http://www.w3.org/2000/svg">
<path d="M16.8571 5.26758L17.7095 7.39849L15.4365 11.2339L13.0921 16.5661L10.3223 13.7912L12.027 8.39288L16.8571 5.26758Z" fill="#0E82FD"/>
<path d="M18.8281 3.10098C17.6484 3.22598 16.3359 3.62442 15.1172 4.21817C12.1406 5.68692 9.99219 8.48379 9.25 11.8822C8.97656 13.0932 9.07031 16.1166 9.42188 17.89C10.0625 21.0854 12 24.1947 14.5781 26.1479C15.3125 26.7025 15.4844 26.9916 15.4766 27.6322C15.4688 28.4682 14.8828 29.3432 14.0781 29.7416C13.6641 29.9447 13.5703 29.9604 12.1094 30.0072C11.0156 30.0463 10.4688 30.0932 10.1562 30.1947C9 30.5541 7.89844 31.476 7.39062 32.5072C6.92188 33.4682 6.875 33.7885 6.875 35.8666C6.875 37.5697 6.88281 37.7338 7.02344 37.8979L7.17188 38.0854L19.875 38.1088C33.75 38.1244 32.9766 38.1479 33.0938 37.6947C33.1172 37.5854 33.125 36.6635 33.1094 35.6479C33.0781 34.0229 33.0547 33.726 32.9062 33.2807C32.3828 31.6869 30.9141 30.3744 29.3438 30.0854C29.0859 30.0385 28.0234 29.9994 26.9844 29.9994C25.7188 29.9994 25.0234 29.9682 24.8906 29.9057C24.4453 29.7104 24.2812 29.0385 24.6016 28.7182C24.7656 28.5619 24.8594 28.5541 27.0938 28.5072C29.0547 28.476 29.4766 28.4447 29.8047 28.3275C30.5781 28.0463 31.1328 27.6947 31.7266 27.1088C32.1953 26.6479 32.3906 26.3822 32.6406 25.8588C33.0703 24.9525 33.125 24.6088 33.125 22.8197V21.2729L33.4453 21.2182C34.6172 21.0307 35.3672 19.8275 34.9844 18.7416C34.9375 18.5932 34.3906 17.5229 33.7812 16.3666L32.6641 14.2572L32.625 13.0072C32.5938 11.7182 32.4219 10.7572 32.0391 9.65567L31.875 9.20254L32.2266 8.48379C32.625 7.67911 32.8047 7.05411 32.8281 6.35098C32.8672 5.51505 33.3516 5.6713 26.3281 4.26505C20.1484 3.03848 19.8516 2.99161 18.8281 3.10098ZM16.9062 6.56973C17.1328 6.67129 17.3047 7.03067 17.2344 7.24942C17.2031 7.32754 16.8828 7.64786 16.5234 7.96036C14.625 9.56973 13.3047 11.8354 13.1562 13.7104C13.0703 14.8354 12.9531 15.0775 12.5 15.0775C12.0938 15.0775 11.9531 14.851 11.9531 14.1791C11.9531 12.101 13.1016 9.71817 15.0469 7.77286C15.7422 7.06973 16.4766 6.48379 16.6484 6.48379C16.6875 6.48379 16.7969 6.52286 16.9062 6.56973ZM31 10.8354C31.2344 11.7025 31.3359 12.5775 31.3125 13.5229C31.3047 14.0307 31.3359 14.4525 31.4062 14.6479C31.4609 14.8197 32.0156 15.9135 32.625 17.0775C33.2422 18.2416 33.75 19.2729 33.75 19.3666C33.75 19.4604 33.6641 19.6244 33.5547 19.726C33.3906 19.8979 33.2969 19.9213 32.7891 19.9213C31.8984 19.9213 31.8438 19.9916 31.8125 21.1244L31.7812 22.0307H28.3359C24.5469 22.0307 24.3203 22.0541 23.2578 22.4994C21.9219 23.0541 20.8047 24.1088 20.1641 25.4135C19.5234 26.726 19.5312 26.6635 19.5312 32.0619V36.7963H13.8594H8.1875L8.21875 35.3275L8.24219 33.8666L8.52344 33.2807C8.88281 32.5385 9.39062 32.0307 10.1484 31.6557L10.7266 31.3744L12.2969 31.3197C13.1641 31.2885 13.9766 31.2338 14.1172 31.1869C14.6797 31.0072 15.3359 30.5775 15.7812 30.1088C16.8359 28.976 17.125 27.5072 16.5234 26.2885L16.3359 25.89L17.0625 25.1557C17.8516 24.351 18.3516 23.6479 19.1406 22.265L19.6484 21.3588L20 21.4994C20.5469 21.7104 21.5703 21.6869 22.0781 21.4525C22.7734 21.1322 23.2031 20.4604 23.2031 19.6947C23.2031 19.2807 22.9375 18.9838 22.5781 18.9838C22.2656 18.9838 21.875 19.351 21.875 19.6479C21.875 20.1713 21.4297 20.4447 20.7891 20.3041C20.0234 20.14 19.3516 19.5072 19.1406 18.7494C19.1016 18.601 19.0625 17.8979 19.0625 17.1869C19.0625 16.101 19.0859 15.851 19.2109 15.5854C19.6094 14.7182 20.5625 14.4525 21.3203 14.9994C21.6953 15.2729 21.75 15.3744 21.875 15.9525C21.9922 16.5385 22.1484 16.7338 22.5234 16.7416C22.7266 16.7494 22.8672 16.6947 23.0078 16.5619C23.2734 16.3119 23.2734 15.6947 23.0078 15.0385C22.8984 14.7807 22.8125 14.5307 22.8125 14.4838C22.8125 14.2572 23.4844 13.4135 23.9297 13.0775C24.875 12.3666 25.8359 11.9916 27.3047 11.7494C28.4375 11.5697 29.7266 11.0229 30.4297 10.4369C30.5625 10.3275 30.7031 10.2416 30.75 10.2338C30.8047 10.2338 30.9141 10.5072 31 10.8354ZM31.4844 25.2104C31.4844 25.2338 31.375 25.4291 31.2422 25.64C30.9141 26.1557 30.375 26.6166 29.7656 26.9057L29.2578 27.1479L26.9141 27.1869C24.3281 27.2338 24.2109 27.2572 23.6875 27.7572C22.8359 28.5697 22.8906 29.976 23.8125 30.7807C24.375 31.2807 24.6562 31.3275 26.9219 31.3275C28.6328 31.3275 28.9531 31.3432 29.3672 31.476C30.5781 31.851 31.4453 32.8041 31.7109 34.0463C31.7578 34.2729 31.7969 34.9838 31.7969 35.6244V36.7963H27.1875H22.5781V32.6244C22.5781 30.1869 22.6094 28.2807 22.6562 28.0385C22.7734 27.39 23.2188 26.5619 23.6719 26.14C24.1016 25.7416 24.8516 25.351 25.3984 25.2416C25.7969 25.1635 31.4844 25.1322 31.4844 25.2104Z" fill="#000F28"/>
<path d="M24.6069 22.1196L31.8025 21.8418V25.2899C29.6053 25.3737 25.3718 25.9943 24.6069 25.9943C23.8421 25.9943 23.1367 26.6485 22.9858 27.202L22.8458 37.0141H18.619C18.7867 35.2194 19.7764 30.9859 19.3739 27.202C18.9713 23.418 22.8122 22.1364 24.6069 22.1196Z" fill="#0E82FD"/>
</svg>
